<svg xmlns="http://www.w3.org/2000/svg" viewBox="0 0 1141.03 1507.45"><defs><style>.cls-1{fill:#c5f1ff;}.cls-10,.cls-11,.cls-12,.cls-13,.cls-2,.cls-5,.cls-6,.cls-7,.cls-8,.cls-9{fill:none;}.cls-2{stroke:#dc241f;stroke-width:30.15px;}.cls-3{fill:navy;}.cls-16,.cls-17,.cls-4{fill:#fff;}.cls-14,.cls-15,.cls-5{stroke:#d32f2f;}.cls-10,.cls-11,.cls-12,.cls-13,.cls-14,.cls-15,.cls-16,.cls-17,.cls-5,.cls-6,.cls-7,.cls-8,.cls-9{stroke-miterlimit:10;}.cls-11,.cls-5{stroke-width:8px;}.cls-10,.cls-11,.cls-13,.cls-16,.cls-17,.cls-6,.cls-7,.cls-8,.cls-9{stroke:#ff8585;}.cls-10,.cls-12,.cls-13,.cls-15,.cls-17,.cls-6,.cls-7,.cls-8,.cls-9{stroke-width:3px;}.cls-7{stroke-dasharray:28.87 28.87;}.cls-8{stroke-dasharray:13.32 13.32;}.cls-9{stroke-dasharray:25.44 25.44;}.cls-10{stroke-dasharray:26.48 26.48;}.cls-12{stroke:#fbb;}.cls-12,.cls-13{stroke-dasharray:26;}.cls-14,.cls-15{fill:snow;}.cls-14,.cls-16{stroke-width:4px;}</style></defs><g id="Layer_1" data-name="Layer 1"><polyline class="cls-1" points="815.34 922.43 739.34 922.43 730.15 913.4 700.88 913.4 665.81 925.32 618.15 922.94 577.98 903.19 563.68 888.55 561.64 868.13 513.64 812.3 472.79 816.04 430.24 908.64 412.54 914.43 392.45 905.57 374.75 882.43 346.49 899.45 327.77 909.66 285.9 903.53 236.88 886.85 228.02 863.36 221.56 831.36 203.17 812.3 114.83 792.04 72.96 797.15 34.15 835.45 25.09 853.06 37.6 836.47 75.13 801.36 113.94 796.51 151.09 807.87 198.83 815.91 217.34 835.19 223.6 871.36 232.45 887.36 263.94 901.49 298.32 913.75 329.68 916.13 371.56 891.11 383.43 901.06 402.83 918.68 422.75 922.38 436.92 911.66 471.09 839.02 480.28 826.25 512.45 823.36 526.41 844.3 548.71 868.3 552.62 894.85 567.51 924.04 613.47 956.72 645.64 960.3 678.07 966.94 794.49 956.64 816.62 966.94 814.92 924.3 815.34 922.43"/><path class="cls-2" d="M216.11,128a72,72,0,1,1-72-72A72,72,0,0,1,216.11,128Z" transform="translate(-36.61)"/><path class="cls-3" d="M36.61,153.19h215V102.88h-215Z" transform="translate(-36.61)"/><path class="cls-4" d="M36.61,102.88h215V98.46h-215Z" transform="translate(-36.61)"/><path class="cls-4" d="M36.61,157.6h215v-4.41h-215Z" transform="translate(-36.61)"/><path d="M312,145.47a20.08,20.08,0,0,1-8.25,1.48c-8.81,0-15.44-5.56-15.44-15.8,0-9.78,6.63-16.41,16.32-16.41a16.65,16.65,0,0,1,7.41,1.39l-1,3.29a14.71,14.71,0,0,0-6.3-1.3c-7.33,0-12.2,4.68-12.2,12.89,0,7.65,4.41,12.56,12,12.56a16.08,16.08,0,0,0,6.58-1.3Z" transform="translate(-36.61)"/><path d="M316.94,113.58H321v14h.09A7.63,7.63,0,0,1,324,124.7a8.46,8.46,0,0,1,4.17-1.16c3,0,7.84,1.86,7.84,9.6v13.35H332V133.6c0-3.61-1.35-6.67-5.19-6.67A5.85,5.85,0,0,0,321.3,131,4.76,4.76,0,0,0,321,133v13.54h-4.08Z" transform="translate(-36.61)"/><path d="M344.94,136c.09,5.52,3.61,7.79,7.69,7.79a14.73,14.73,0,0,0,6.21-1.16l.7,2.92a18.15,18.15,0,0,1-7.46,1.39c-6.91,0-11-4.54-11-11.31s4-12.1,10.53-12.1c7.32,0,9.27,6.45,9.27,10.57a16.46,16.46,0,0,1-.14,1.9Zm12-2.92c0-2.59-1.07-6.63-5.66-6.63-4.12,0-5.93,3.81-6.26,6.63Z" transform="translate(-36.61)"/><path d="M365.89,130.13c0-2.32-.05-4.22-.19-6.08h3.62l.23,3.71h.09a8.27,8.27,0,0,1,7.42-4.22c3.11,0,7.93,1.86,7.93,9.55v13.4h-4.08V133.56c0-3.62-1.35-6.63-5.19-6.63A6,6,0,0,0,370,133v13.49h-4.08Z" transform="translate(-36.61)"/><path d="M391.61,130.13c0-2.32,0-4.22-.18-6.08h3.62l.23,3.71h.09a8.26,8.26,0,0,1,7.42-4.22c3.1,0,7.92,1.86,7.92,9.55v13.4h-4.08V133.56c0-3.62-1.34-6.63-5.19-6.63A5.8,5.8,0,0,0,396,131.1a6,6,0,0,0-.28,1.9v13.49h-4.08Z" transform="translate(-36.61)"/><path d="M429.77,146.49l-.33-2.83h-.14a8.36,8.36,0,0,1-6.86,3.34c-4.54,0-6.86-3.2-6.86-6.44,0-5.43,4.82-8.39,13.49-8.35v-.46c0-1.85-.51-5.19-5.1-5.19a11.17,11.17,0,0,0-5.84,1.67l-.93-2.69a13.92,13.92,0,0,1,7.37-2c6.86,0,8.53,4.69,8.53,9.18v8.39a32.47,32.47,0,0,0,.37,5.38ZM429.16,135c-4.45-.09-9.5.7-9.5,5.05a3.61,3.61,0,0,0,3.85,3.9,5.58,5.58,0,0,0,5.42-3.76,4.19,4.19,0,0,0,.23-1.3Z" transform="translate(-36.61)"/><path d="M444.23,117.75a2.53,2.53,0,0,1-5.06,0,2.49,2.49,0,0,1,2.55-2.55A2.43,2.43,0,0,1,444.23,117.75Zm-4.55,28.74V124.05h4.08v22.44Z" transform="translate(-36.61)"/><path d="M486.83,132.77c-.23-4.36-.51-9.6-.47-13.49h-.14c-1.06,3.66-2.36,7.56-3.94,11.87l-5.51,15.16h-3.06l-5-14.89c-1.49-4.4-2.74-8.43-3.62-12.14H465c-.1,3.89-.33,9.13-.61,13.81l-.83,13.4h-3.85l2.18-31.24H467l5.33,15.11c1.3,3.85,2.36,7.28,3.15,10.52h.14c.79-3.15,1.9-6.58,3.29-10.52l5.56-15.11h5.15l1.95,31.24h-3.94Z" transform="translate(-36.61)"/><path d="M510.33,146.49l-.33-2.83h-.14A8.36,8.36,0,0,1,503,147c-4.54,0-6.86-3.2-6.86-6.44,0-5.43,4.82-8.39,13.49-8.35v-.46c0-1.85-.51-5.19-5.1-5.19a11.2,11.2,0,0,0-5.84,1.67l-.93-2.69a13.93,13.93,0,0,1,7.38-2c6.86,0,8.52,4.69,8.52,9.18v8.39a31.35,31.35,0,0,0,.38,5.38ZM509.72,135c-4.45-.09-9.5.7-9.5,5.05a3.61,3.61,0,0,0,3.85,3.9,5.58,5.58,0,0,0,5.42-3.76,4.19,4.19,0,0,0,.23-1.3Z" transform="translate(-36.61)"/><path d="M519.69,142.32a10.7,10.7,0,0,0,5.38,1.62c3,0,4.35-1.48,4.35-3.34s-1.15-3-4.17-4.12c-4-1.44-5.93-3.66-5.93-6.35,0-3.62,2.92-6.59,7.74-6.59a11.12,11.12,0,0,1,5.52,1.4l-1,3a8.81,8.81,0,0,0-4.59-1.3c-2.41,0-3.76,1.39-3.76,3.06,0,1.86,1.35,2.69,4.27,3.8,3.89,1.49,5.89,3.44,5.89,6.77,0,3.94-3.06,6.72-8.4,6.72a12.78,12.78,0,0,1-6.3-1.53Z" transform="translate(-36.61)"/><path d="M538.05,142.32a10.63,10.63,0,0,0,5.37,1.62c3,0,4.36-1.48,4.36-3.34s-1.16-3-4.17-4.12c-4-1.44-5.93-3.66-5.93-6.35,0-3.62,2.92-6.59,7.74-6.59a11.08,11.08,0,0,1,5.51,1.4l-1,3a8.78,8.78,0,0,0-4.59-1.3c-2.41,0-3.75,1.39-3.75,3.06,0,1.86,1.34,2.69,4.26,3.8,3.9,1.49,5.89,3.44,5.89,6.77,0,3.94-3.06,6.72-8.39,6.72a12.72,12.72,0,0,1-6.3-1.53Z" transform="translate(-36.61)"/><path d="M566.92,115.66a42.67,42.67,0,0,1,7.75-.65c4.31,0,7.09.79,9,2.55a7.83,7.83,0,0,1,2.45,5.94,8.19,8.19,0,0,1-5.89,8v.14c2.42.83,3.85,3.06,4.59,6.31,1,4.35,1.77,7.37,2.41,8.57H583.1c-.51-.88-1.2-3.57-2.08-7.46-.93-4.31-2.6-5.94-6.26-6.08H571v13.54h-4Zm4,14.24h4.12c4.31,0,7-2.37,7-5.94,0-4-2.92-5.79-7.19-5.84a16.89,16.89,0,0,0-4,.37Z" transform="translate(-36.61)"/><path d="M604.7,146.49l-.32-2.83h-.14a8.36,8.36,0,0,1-6.86,3.34c-4.54,0-6.86-3.2-6.86-6.44,0-5.43,4.82-8.39,13.49-8.35v-.46c0-1.85-.51-5.19-5.1-5.19a11.15,11.15,0,0,0-5.84,1.67l-.93-2.69a13.89,13.89,0,0,1,7.37-2c6.86,0,8.53,4.69,8.53,9.18v8.39a31.42,31.42,0,0,0,.37,5.38ZM604.1,135c-4.45-.09-9.5.7-9.5,5.05a3.61,3.61,0,0,0,3.85,3.9,5.58,5.58,0,0,0,5.42-3.76,4.19,4.19,0,0,0,.23-1.3Z" transform="translate(-36.61)"/><path d="M614.62,131.38c0-2.88-.09-5.19-.18-7.33h3.66l.19,3.85h.09a8.83,8.83,0,0,1,8-4.36c5.42,0,9.5,4.59,9.5,11.41,0,8.06-4.91,12.05-10.19,12.05a7.87,7.87,0,0,1-6.91-3.52h-.09v12.19h-4Zm4,6a9.49,9.49,0,0,0,.18,1.67A6.3,6.3,0,0,0,625,143.8c4.31,0,6.81-3.52,6.81-8.67,0-4.49-2.36-8.34-6.67-8.34a7,7,0,0,0-6.44,6.72Z" transform="translate(-36.61)"/><path d="M645.54,117.75a2.53,2.53,0,0,1-5,0A2.48,2.48,0,0,1,643,115.2,2.42,2.42,0,0,1,645.54,117.75ZM641,146.49V124.05h4.08v22.44Z" transform="translate(-36.61)"/><path d="M671.22,113.58V140.7c0,2,0,4.26.19,5.79h-3.67l-.18-3.89h-.09a8.32,8.32,0,0,1-7.65,4.4c-5.43,0-9.6-4.59-9.6-11.4,0-7.47,4.59-12.06,10.06-12.06,3.43,0,5.75,1.63,6.77,3.43h.09V113.58Zm-4.08,19.61a7.19,7.19,0,0,0-.18-1.72,6,6,0,0,0-5.89-4.73c-4.22,0-6.72,3.71-6.72,8.67,0,4.54,2.22,8.3,6.63,8.3a6.15,6.15,0,0,0,6-4.87,7,7,0,0,0,.18-1.76Z" transform="translate(-36.61)"/><path d="M692,118.68h-9.51v-3.43h23.14v3.43h-9.55v27.81H692Z" transform="translate(-36.61)"/><path d="M706.87,131.05c0-2.64,0-4.91-.19-7h3.57l.14,4.41h.19a6.72,6.72,0,0,1,6.21-4.92,4.55,4.55,0,0,1,1.16.14v3.85a6.34,6.34,0,0,0-1.39-.14c-2.88,0-4.92,2.18-5.47,5.24a10.81,10.81,0,0,0-.19,1.9v12h-4Z" transform="translate(-36.61)"/><path d="M734.22,146.49l-.33-2.83h-.14a8.36,8.36,0,0,1-6.86,3.34c-4.54,0-6.86-3.2-6.86-6.44,0-5.43,4.82-8.39,13.49-8.35v-.46c0-1.85-.51-5.19-5.1-5.19a11.2,11.2,0,0,0-5.84,1.67l-.93-2.69a13.92,13.92,0,0,1,7.37-2c6.87,0,8.53,4.69,8.53,9.18v8.39a31.35,31.35,0,0,0,.38,5.38ZM733.61,135c-4.45-.09-9.5.7-9.5,5.05A3.61,3.61,0,0,0,728,144a5.58,5.58,0,0,0,5.42-3.76,4.19,4.19,0,0,0,.23-1.3Z" transform="translate(-36.61)"/><path d="M744.14,130.13c0-2.32,0-4.22-.19-6.08h3.62l.23,3.71h.09a8.26,8.26,0,0,1,7.42-4.22c3.1,0,7.92,1.86,7.92,9.55v13.4h-4.07V133.56c0-3.62-1.35-6.63-5.2-6.63a5.8,5.8,0,0,0-5.47,4.17,6,6,0,0,0-.27,1.9v13.49h-4.08Z" transform="translate(-36.61)"/><path d="M769.31,142.32a10.63,10.63,0,0,0,5.37,1.62c3,0,4.36-1.48,4.36-3.34s-1.16-3-4.17-4.12c-4-1.44-5.93-3.66-5.93-6.35,0-3.62,2.92-6.59,7.74-6.59a11.08,11.08,0,0,1,5.51,1.4l-1,3a8.78,8.78,0,0,0-4.59-1.3c-2.41,0-3.75,1.39-3.75,3.06,0,1.86,1.34,2.69,4.26,3.8C781,135,783,136.9,783,140.23c0,3.94-3.06,6.72-8.39,6.72a12.72,12.72,0,0,1-6.3-1.53Z" transform="translate(-36.61)"/><path d="M792.76,117.75a2.53,2.53,0,0,1-5,0,2.49,2.49,0,0,1,2.55-2.55A2.42,2.42,0,0,1,792.76,117.75Zm-4.54,28.74V124.05h4.08v22.44Z" transform="translate(-36.61)"/><path d="M804,117.61v6.44h5.84v3.11H804v12.1c0,2.78.79,4.36,3.06,4.36a9,9,0,0,0,2.36-.28l.19,3.06A10.13,10.13,0,0,1,806,147a5.65,5.65,0,0,1-4.4-1.71C800.41,144,800,142,800,139.4V127.16h-3.47v-3.11H800v-5.37Z" transform="translate(-36.61)"/><path d="M823.82,141.58a14.32,14.32,0,0,0,7.23,2c4.13,0,6.54-2.18,6.54-5.33,0-2.92-1.67-4.59-5.89-6.22-5.1-1.8-8.25-4.45-8.25-8.85,0-4.87,4-8.48,10.1-8.48a14.18,14.18,0,0,1,6.91,1.53l-1.11,3.29a12.41,12.41,0,0,0-5.94-1.49c-4.26,0-5.88,2.55-5.88,4.69,0,2.92,1.9,4.35,6.21,6,5.28,2,8,4.59,8,9.18,0,4.82-3.57,9-10.94,9a16.17,16.17,0,0,1-8-2Z" transform="translate(-36.61)"/><path d="M848.2,124.05l4.91,13.26c.51,1.49,1.07,3.25,1.44,4.59h.09c.42-1.34.88-3.06,1.44-4.68l4.45-13.17h4.31l-6.12,16c-2.92,7.69-4.91,11.63-7.69,14a11.19,11.19,0,0,1-5,2.65l-1-3.43a10.87,10.87,0,0,0,3.57-2,12.46,12.46,0,0,0,3.43-4.54,2.88,2.88,0,0,0,.33-1,3.71,3.71,0,0,0-.28-1.07l-8.3-20.68Z" transform="translate(-36.61)"/><path d="M867.72,142.32a10.63,10.63,0,0,0,5.37,1.62c3,0,4.36-1.48,4.36-3.34s-1.16-3-4.17-4.12c-4-1.44-5.94-3.66-5.94-6.35,0-3.62,2.93-6.59,7.75-6.59a11.08,11.08,0,0,1,5.51,1.4l-1,3a8.78,8.78,0,0,0-4.59-1.3c-2.41,0-3.75,1.39-3.75,3.06,0,1.86,1.34,2.69,4.26,3.8,3.9,1.49,5.89,3.44,5.89,6.77,0,3.94-3.06,6.72-8.39,6.72a12.72,12.72,0,0,1-6.3-1.53Z" transform="translate(-36.61)"/><path d="M891.54,117.61v6.44h5.84v3.11h-5.84v12.1c0,2.78.79,4.36,3.06,4.36a9,9,0,0,0,2.37-.28l.18,3.06a10.1,10.1,0,0,1-3.61.55,5.65,5.65,0,0,1-4.41-1.71c-1.16-1.21-1.57-3.2-1.57-5.84V127.16h-3.48v-3.11h3.48v-5.37Z" transform="translate(-36.61)"/><path d="M904,136c.1,5.52,3.62,7.79,7.7,7.79a14.73,14.73,0,0,0,6.21-1.16l.7,2.92A18.2,18.2,0,0,1,911.1,147c-6.9,0-11-4.54-11-11.31s4-12.1,10.52-12.1c7.33,0,9.27,6.45,9.27,10.57a17,17,0,0,1-.13,1.9Zm12-2.92c.05-2.59-1.06-6.63-5.65-6.63-4.13,0-5.93,3.81-6.26,6.63Z" transform="translate(-36.61)"/><path d="M924.92,130.13c0-2.32,0-4.22-.19-6.08h3.57l.19,3.62h.13a7.75,7.75,0,0,1,7-4.13A6.63,6.63,0,0,1,942,128h.09a9.35,9.35,0,0,1,2.51-2.92,7.65,7.65,0,0,1,5-1.58c3,0,7.37,1.95,7.37,9.74v13.21h-4v-12.7c0-4.31-1.57-6.91-4.87-6.91a5.3,5.3,0,0,0-4.82,3.71,6.93,6.93,0,0,0-.32,2v13.86h-4V133.05c0-3.57-1.57-6.17-4.68-6.17a5.57,5.57,0,0,0-5,4.08,5.66,5.66,0,0,0-.33,2v13.54h-4Z" transform="translate(-36.61)"/></g><g id="Layer_2" data-name="Layer 2"><polygon class="cls-1" points="1035.34 0 1031.6 14.68 1056.96 43.45 1045.39 95.53 1034.83 89.4 1046.92 42.43 1030.24 30.51 993.81 135.7 947.68 262.17 951 263.62 979.85 215.79 994.41 220.89 990.58 228.81 984.96 230.09 956.11 267.87 965.81 275.28 998.24 228.55 1002.32 223.19 1013.56 227.53 1052.11 137.64 1070.75 130.51 1100.88 73.06 1107.26 76.89 1052.37 190 1045.73 214.51 1044.19 242.85 931.34 432.72 913.3 488.21 814.92 924.3 797.56 942.17 806.75 961.06 678.07 1507.45 1141.03 1507.45 1137.64 0 1035.34 0"/><polygon class="cls-1" points="929.87 437.26 851.17 424.89 830.75 420.04 790.66 389.15 787.85 359.31 786.58 345.75 740.3 327.43 769.98 344.34 785.47 355.28 787.85 391.87 827.34 424.89 849.9 433.19 888.71 438.94 908.88 451.57 920.75 451.57 928.53 457.57 929.87 437.26"/></g><g id="Layer_3" data-name="Layer 3"><polyline class="cls-5" points="941.56 220.64 922.15 274.25 875.17 279.36 837.39 327.43 786.32 334 777.03 349.32 779.17 397.32 817.47 425.4 819 440.21 838.41 475.96 839.43 569.91 816.96 609.75 798.07 666.43 750.58 679.7 740.3 696.04 737.3 719.53 707.17 750.24 681.13 766 664.79 789.49 657.64 817.06 642.32 834.94 594.83 855.87 581.05 875.79 555.51 913.57 547.34 1025.4 585.13 1178.09 581.81 1195.19 530.49 1251.11 517.73 1256.47 431.94 1262.09 417.13 1271.79 336.7 1350.94 296.79 1360.21 293.13 1360.21"/><line class="cls-6" x1="941.56" y1="220.64" x2="937.13" y2="232.86"/><polyline class="cls-6" points="926.58 262.03 922.15 274.25 909.23 275.66"/><polyline class="cls-6" points="888.1 277.96 875.17 279.36 867.14 289.58"/><polyline class="cls-7" points="849.29 312.28 837.39 327.43 813.53 330.5"/><polyline class="cls-6" points="799.22 332.34 786.32 334 779.58 345.12"/><line class="cls-8" x1="777.41" y1="357.72" x2="778.3" y2="377.68"/><polyline class="cls-6" points="778.59 384.33 779.17 397.32 789.66 405.01"/><polyline class="cls-6" points="806.99 417.72 817.47 425.4 818.81 438.33"/><polyline class="cls-9" points="830.24 460.92 838.41 475.96 839.43 569.91 816.96 609.75 806.2 642.02"/><polyline class="cls-6" points="802.18 654.09 798.07 666.43 785.55 669.93"/><polyline class="cls-10" points="760.04 677.06 750.58 679.7 740.3 696.04 737.3 719.53 707.17 750.24 681.13 766 664.79 789.49 657.64 817.06 642.32 834.94 594.83 855.87 581.05 875.79 555.51 913.57 547.34 1025.4 585.13 1178.09 581.81 1195.19 530.49 1251.11 517.73 1256.47 431.94 1262.09 417.13 1271.79 336.7 1350.94 318.79 1355.1"/><polyline class="cls-6" points="305.89 1358.1 296.79 1360.21 293.13 1360.21"/><polyline class="cls-11" points="294.32 1360.36 276.11 1354.74 204.11 1292.11 151.77 1255.34 107.34 1235.42 88.45 1211.17 83.34 1145.81 85.13 1116.45 112.19 1104.7"/><polyline class="cls-12" points="294.32 1360.36 276.11 1354.74 204.11 1292.11 151.77 1255.34 107.34 1235.42 88.45 1211.17 83.34 1145.81 85.13 1116.45 112.19 1104.7"/><line class="cls-5" x1="892.88" y1="1426.58" x2="1000.38" y2="1426.58"/><line class="cls-13" x1="892.88" y1="1426.58" x2="1000.38" y2="1426.58"/><line class="cls-11" x1="892.88" y1="1461.49" x2="1000.38" y2="1461.49"/><line class="cls-12" x1="892.88" y1="1461.49" x2="1000.38" y2="1461.49"/></g><g id="Layer_5" data-name="Layer 5"><circle class="cls-14" cx="943.34" cy="216.04" r="9.7"/><circle class="cls-15" cx="863.56" cy="294.3" r="7.53"/><circle class="cls-15" cx="802.45" cy="331.06" r="7.53"/><circle class="cls-15" cx="777.39" cy="384.64" r="7.53"/><circle class="cls-14" cx="296.62" cy="1359.28" r="9.7"/><circle class="cls-16" cx="111.51" cy="1104.7" r="9.7"/><path d="M893.7,217.31a5,5,0,0,1-2.13.39,3.78,3.78,0,0,1-4-4.09,4,4,0,0,1,4.23-4.25,4.35,4.35,0,0,1,1.91.36l-.25.85a3.82,3.82,0,0,0-1.63-.33,3,3,0,0,0-3.15,3.33,2.94,2.94,0,0,0,3.1,3.25,4.27,4.27,0,0,0,1.71-.33Z" transform="translate(-36.61)"/><path d="M895,209.06h1v3.62h0a2,2,0,0,1,.75-.74,2.19,2.19,0,0,1,1.08-.3c.78,0,2,.48,2,2.48v3.46h-1.06v-3.34c0-.93-.34-1.72-1.34-1.72a1.54,1.54,0,0,0-1.42,1,1.31,1.31,0,0,0-.07.51v3.5h-1Z" transform="translate(-36.61)"/><path d="M902.23,214.87a1.85,1.85,0,0,0,2,2,3.75,3.75,0,0,0,1.6-.3l.18.76a4.63,4.63,0,0,1-1.93.36,2.69,2.69,0,0,1-2.85-2.93c0-1.75,1-3.13,2.72-3.13a2.47,2.47,0,0,1,2.4,2.74,4.35,4.35,0,0,1,0,.49Zm3.09-.76a1.5,1.5,0,0,0-1.46-1.71,1.74,1.74,0,0,0-1.62,1.71Z" transform="translate(-36.61)"/><path d="M907.65,213.34c0-.6,0-1.09,0-1.57h.94l.06,1h0a2.14,2.14,0,0,1,1.92-1.09c.8,0,2.05.48,2.05,2.47v3.47h-1.05v-3.35c0-.93-.35-1.71-1.35-1.71a1.5,1.5,0,0,0-1.41,1.08,1.45,1.45,0,0,0-.07.49v3.49h-1.06Z" transform="translate(-36.61)"/><path d="M914.31,213.34c0-.6,0-1.09,0-1.57h.94l.06,1h0a2.14,2.14,0,0,1,1.92-1.09c.8,0,2,.48,2,2.47v3.47h-1.06v-3.35c0-.93-.34-1.71-1.34-1.71a1.5,1.5,0,0,0-1.41,1.08,1.44,1.44,0,0,0-.08.49v3.49h-1.05Z" transform="translate(-36.61)"/><path d="M924.18,217.58l-.08-.73h0a2.16,2.16,0,0,1-1.77.86,1.66,1.66,0,0,1-1.78-1.67c0-1.4,1.25-2.17,3.49-2.16v-.12a1.19,1.19,0,0,0-1.32-1.34,2.93,2.93,0,0,0-1.51.43l-.24-.69a3.55,3.55,0,0,1,1.91-.52c1.78,0,2.21,1.21,2.21,2.38v2.17a8.47,8.47,0,0,0,.09,1.39Zm-.15-3c-1.15,0-2.46.17-2.46,1.3a.93.93,0,0,0,1,1,1.45,1.45,0,0,0,1.41-1,1.35,1.35,0,0,0,.06-.34Z" transform="translate(-36.61)"/><path d="M927.93,210.14a.66.66,0,0,1-1.31,0,.65.65,0,0,1,.66-.66A.63.63,0,0,1,927.93,210.14Zm-1.18,7.44v-5.81h1.06v5.81Z" transform="translate(-36.61)"/><path d="M932.14,209.6a10.7,10.7,0,0,1,1.91-.17,3.35,3.35,0,0,1,2.22.59,1.69,1.69,0,0,1,.67,1.43,1.92,1.92,0,0,1-1.37,1.77v0a2.08,2.08,0,0,1,1.67,2,2.16,2.16,0,0,1-.69,1.62,4,4,0,0,1-2.79.76,11.75,11.75,0,0,1-1.62-.1Zm1,3.31h1c1.11,0,1.75-.57,1.75-1.35,0-.95-.72-1.32-1.77-1.32a4.33,4.33,0,0,0-.93.07Zm0,3.88a6.83,6.83,0,0,0,.88,0c1.08,0,2.07-.39,2.07-1.57s-.94-1.56-2.08-1.56h-.87Z" transform="translate(-36.61)"/><path d="M939.24,214.87a1.87,1.87,0,0,0,2,2,3.75,3.75,0,0,0,1.6-.3l.18.76a4.63,4.63,0,0,1-1.93.36,2.69,2.69,0,0,1-2.85-2.93c0-1.75,1-3.13,2.72-3.13a2.47,2.47,0,0,1,2.4,2.74,4.35,4.35,0,0,1,0,.49Zm3.1-.76a1.5,1.5,0,0,0-1.46-1.71,1.74,1.74,0,0,0-1.62,1.71Z" transform="translate(-36.61)"/><path d="M947.88,217.58l-.08-.73h0a2.16,2.16,0,0,1-1.77.86,1.66,1.66,0,0,1-1.78-1.67c0-1.4,1.25-2.17,3.49-2.16v-.12a1.19,1.19,0,0,0-1.32-1.34,2.93,2.93,0,0,0-1.51.43l-.24-.69a3.55,3.55,0,0,1,1.91-.52c1.77,0,2.21,1.21,2.21,2.38v2.17a8.47,8.47,0,0,0,.09,1.39Zm-.15-3c-1.15,0-2.46.17-2.46,1.3a.93.93,0,0,0,1,1,1.45,1.45,0,0,0,1.41-1,1.35,1.35,0,0,0,.06-.34Z" transform="translate(-36.61)"/><path d="M954.59,217.36a3.81,3.81,0,0,1-1.67.34,2.76,2.76,0,0,1-2.89-3,3,3,0,0,1,3.12-3.09,3.56,3.56,0,0,1,1.46.3l-.24.82a2.35,2.35,0,0,0-1.22-.28,2,2,0,0,0-2,2.2,2,2,0,0,0,2,2.17,3,3,0,0,0,1.29-.29Z" transform="translate(-36.61)"/><path d="M955.83,209.06h1v3.62h0a2,2,0,0,1,.75-.74,2.22,2.22,0,0,1,1.08-.3c.78,0,2,.48,2,2.48v3.46h-1.06v-3.34c0-.93-.34-1.72-1.34-1.72a1.51,1.51,0,0,0-1.41,1,1.3,1.3,0,0,0-.08.51v3.5h-1Z" transform="translate(-36.61)"/><path d="M1057.21,1426.28c0,2.78-1.69,4.26-3.75,4.26s-3.63-1.66-3.63-4.11,1.59-4.24,3.75-4.24S1057.21,1423.88,1057.21,1426.28Zm-6.27.13c0,1.73.94,3.27,2.58,3.27s2.59-1.52,2.59-3.35c0-1.61-.84-3.29-2.58-3.29S1050.94,1424.64,1050.94,1426.41Z" transform="translate(-36.61)"/><path d="M1058.54,1426.5c0-.75,0-1.35,0-1.9h1l0,1h0a2.28,2.28,0,0,1,2.06-1.12c1.4,0,2.46,1.19,2.46,3,0,2.08-1.27,3.12-2.64,3.12a2,2,0,0,1-1.79-.92h0v3.16h-1Zm1,1.54a1.88,1.88,0,0,0,.05.43,1.62,1.62,0,0,0,1.58,1.24c1.12,0,1.76-.91,1.76-2.24,0-1.17-.61-2.16-1.72-2.16a1.69,1.69,0,0,0-1.6,1.3,2.13,2.13,0,0,0-.07.44Z" transform="translate(-36.61)"/><path d="M1066,1427.69a1.87,1.87,0,0,0,2,2,3.8,3.8,0,0,0,1.61-.3l.18.76a4.88,4.88,0,0,1-1.93.35,2.69,2.69,0,0,1-2.86-2.92c0-1.75,1-3.13,2.73-3.13a2.46,2.46,0,0,1,2.4,2.73,4,4,0,0,1,0,.49Zm3.1-.75a1.51,1.51,0,0,0-1.47-1.72,1.77,1.77,0,0,0-1.62,1.72Z" transform="translate(-36.61)"/><path d="M1071.38,1426.41c0-.68,0-1.27-.05-1.81h.92l0,1.14h0a1.74,1.74,0,0,1,1.6-1.27,1.32,1.32,0,0,1,.3,0v1a1.79,1.79,0,0,0-.36,0,1.48,1.48,0,0,0-1.41,1.36,2.38,2.38,0,0,0,0,.49v3.09h-1Z" transform="translate(-36.61)"/><path d="M1078.46,1430.4l-.09-.73h0a2.14,2.14,0,0,1-1.77.87,1.65,1.65,0,0,1-1.77-1.67c0-1.4,1.24-2.17,3.48-2.16v-.12a1.19,1.19,0,0,0-1.31-1.34,3,3,0,0,0-1.52.43l-.24-.7a3.63,3.63,0,0,1,1.91-.51c1.78,0,2.21,1.21,2.21,2.37V1429a8.32,8.32,0,0,0,.09,1.39Zm-.16-3c-1.15,0-2.46.18-2.46,1.31a.94.94,0,0,0,1,1,1.45,1.45,0,0,0,1.4-1,1.35,1.35,0,0,0,.06-.34Z" transform="translate(-36.61)"/><path d="M1082.25,1422.93v1.67h1.51v.8h-1.51v3.13c0,.72.2,1.13.79,1.13a2.6,2.6,0,0,0,.61-.07l0,.79a2.69,2.69,0,0,1-.94.14,1.47,1.47,0,0,1-1.14-.44,2.15,2.15,0,0,1-.4-1.51v-3.17h-.9v-.8h.9v-1.39Z" transform="translate(-36.61)"/><path d="M1086.12,1423a.62.62,0,0,1-.67.65.63.63,0,0,1-.63-.65.64.64,0,0,1,.66-.66A.62.62,0,0,1,1086.12,1423Zm-1.17,7.43v-5.8h1v5.8Z" transform="translate(-36.61)"/><path d="M1093,1427.45a2.84,2.84,0,0,1-2.89,3.09,2.76,2.76,0,0,1-2.78-3,2.83,2.83,0,0,1,2.87-3.08A2.75,2.75,0,0,1,1093,1427.45Zm-4.61.06c0,1.28.74,2.24,1.77,2.24s1.76-1,1.76-2.26c0-1-.49-2.23-1.74-2.23S1088.4,1426.41,1088.4,1427.51Z" transform="translate(-36.61)"/><path d="M1094.34,1426.17c0-.6,0-1.09,0-1.57h.93l.06,1h0a2.13,2.13,0,0,1,1.92-1.09c.8,0,2,.48,2,2.47v3.46h-1.06v-3.34c0-.94-.35-1.72-1.34-1.72a1.5,1.5,0,0,0-1.42,1.08,1.45,1.45,0,0,0-.07.49v3.49h-1.06Z" transform="translate(-36.61)"/><path d="M1104.22,1430.4l-.09-.73h0a2.17,2.17,0,0,1-1.78.87,1.65,1.65,0,0,1-1.77-1.67c0-1.4,1.25-2.17,3.49-2.16v-.12a1.19,1.19,0,0,0-1.32-1.34,2.93,2.93,0,0,0-1.51.43l-.24-.7a3.61,3.61,0,0,1,1.91-.51c1.77,0,2.2,1.21,2.2,2.37V1429a8.24,8.24,0,0,0,.1,1.39Zm-.16-3c-1.15,0-2.46.18-2.46,1.31a.94.94,0,0,0,1,1,1.45,1.45,0,0,0,1.4-1,1,1,0,0,0,.06-.34Z" transform="translate(-36.61)"/><path d="M1106.79,1421.89h1v8.51h-1Z" transform="translate(-36.61)"/><path d="M1051.78,1458.22V1463c0,1.81.8,2.58,1.88,2.58s2-.79,2-2.58v-4.78h1.06v4.71c0,2.48-1.31,3.5-3.06,3.5s-2.91-.94-2.91-3.45v-4.76Z" transform="translate(-36.61)"/><path d="M1058.46,1462.07c0-.6,0-1.09,0-1.57h.93l.06,1h0a2.13,2.13,0,0,1,1.92-1.09c.8,0,2.05.48,2.05,2.47v3.46h-1.06V1463c0-.94-.35-1.72-1.34-1.72a1.5,1.5,0,0,0-1.42,1.08,1.45,1.45,0,0,0-.07.49v3.49h-1.06Z" transform="translate(-36.61)"/><path d="M1070.14,1457.79v7c0,.52,0,1.11,0,1.5h-1l0-1h0a2.16,2.16,0,0,1-2,1.14c-1.41,0-2.48-1.18-2.48-3,0-1.93,1.18-3.11,2.6-3.11a2,2,0,0,1,1.75.88h0v-3.46Zm-1.06,5.07a1.65,1.65,0,0,0,0-.44,1.54,1.54,0,0,0-1.52-1.23c-1.09,0-1.74,1-1.74,2.25s.58,2.14,1.72,2.14a1.57,1.57,0,0,0,1.54-1.26,1.59,1.59,0,0,0,0-.45Z" transform="translate(-36.61)"/><path d="M1072.48,1463.59a1.86,1.86,0,0,0,2,2,4,4,0,0,0,1.61-.3l.18.75a4.67,4.67,0,0,1-1.93.36,2.69,2.69,0,0,1-2.86-2.92c0-1.76,1-3.13,2.73-3.13a2.45,2.45,0,0,1,2.39,2.73,4.68,4.68,0,0,1,0,.49Zm3.1-.75a1.51,1.51,0,0,0-1.47-1.72,1.75,1.75,0,0,0-1.62,1.72Z" transform="translate(-36.61)"/><path d="M1077.9,1462.31c0-.69,0-1.27,0-1.81h.92l0,1.14h0a1.75,1.75,0,0,1,1.61-1.27,1.39,1.39,0,0,1,.3,0v1a1.32,1.32,0,0,0-.36,0,1.47,1.47,0,0,0-1.41,1.36,2.38,2.38,0,0,0,0,.49v3.09h-1Z" transform="translate(-36.61)"/><path d="M1084.22,1462.67v.78h-3v-.78Z" transform="translate(-36.61)"/><path d="M1089.81,1466.09a4,4,0,0,1-1.67.33,2.76,2.76,0,0,1-2.89-3,2.94,2.94,0,0,1,3.12-3.08,3.44,3.44,0,0,1,1.46.3l-.24.81a2.5,2.5,0,0,0-1.22-.27,2.19,2.19,0,0,0,0,4.36,2.9,2.9,0,0,0,1.3-.29Z" transform="translate(-36.61)"/><path d="M1096.23,1463.35a2.84,2.84,0,0,1-2.9,3.08,2.76,2.76,0,0,1-2.78-3,2.83,2.83,0,0,1,2.88-3.08A2.75,2.75,0,0,1,1096.23,1463.35Zm-4.61.06c0,1.27.73,2.23,1.76,2.23s1.77-.94,1.77-2.25c0-1-.5-2.23-1.74-2.23S1091.62,1462.31,1091.62,1463.41Z" transform="translate(-36.61)"/><path d="M1097.56,1462.07c0-.6,0-1.09,0-1.57h.94l.06,1h0a2.14,2.14,0,0,1,1.92-1.09c.8,0,2,.48,2,2.47v3.46h-1V1463c0-.94-.35-1.72-1.35-1.72a1.5,1.5,0,0,0-1.41,1.08,1.45,1.45,0,0,0-.07.49v3.49h-1.06Z" transform="translate(-36.61)"/><path d="M1104.08,1465.22a2.69,2.69,0,0,0,1.39.42c.77,0,1.12-.38,1.12-.86s-.3-.78-1.07-1.07c-1-.37-1.54-1-1.54-1.64a1.79,1.79,0,0,1,2-1.7,2.92,2.92,0,0,1,1.43.35l-.26.77a2.32,2.32,0,0,0-1.19-.33c-.62,0-1,.36-1,.79s.35.69,1.1,1c1,.39,1.52.89,1.52,1.75,0,1-.79,1.74-2.17,1.74a3.33,3.33,0,0,1-1.63-.39Z" transform="translate(-36.61)"/><path d="M1110.24,1458.83v1.67h1.51v.8h-1.51v3.13c0,.72.21,1.13.8,1.13a2.76,2.76,0,0,0,.61-.07l0,.79a2.73,2.73,0,0,1-.94.14,1.45,1.45,0,0,1-1.14-.44,2.15,2.15,0,0,1-.41-1.51v-3.17h-.9v-.8h.9v-1.39Z" transform="translate(-36.61)"/><path d="M1112.94,1462.31c0-.69,0-1.27,0-1.81h.92l0,1.14h0a1.75,1.75,0,0,1,1.61-1.27,1.39,1.39,0,0,1,.3,0v1a1.32,1.32,0,0,0-.36,0,1.47,1.47,0,0,0-1.41,1.36,2.38,2.38,0,0,0,0,.49v3.09h-1Z" transform="translate(-36.61)"/><path d="M1121.73,1464.72c0,.6,0,1.13,0,1.58h-.93l-.06-.94h0a2.18,2.18,0,0,1-1.92,1.07c-.91,0-2-.5-2-2.54v-3.39h1.06v3.21c0,1.1.33,1.85,1.29,1.85a1.52,1.52,0,0,0,1.39-1,1.57,1.57,0,0,0,.1-.54v-3.56h1.06Z" transform="translate(-36.61)"/><path d="M1127.62,1466.09a4,4,0,0,1-1.67.33,2.76,2.76,0,0,1-2.89-3,2.94,2.94,0,0,1,3.12-3.08,3.44,3.44,0,0,1,1.46.3l-.24.81a2.5,2.5,0,0,0-1.22-.27,2.19,2.19,0,0,0,0,4.36,2.9,2.9,0,0,0,1.3-.29Z" transform="translate(-36.61)"/><path d="M1130.28,1458.83v1.67h1.51v.8h-1.51v3.13c0,.72.21,1.13.8,1.13a2.76,2.76,0,0,0,.61-.07l0,.79a2.63,2.63,0,0,1-.93.14,1.45,1.45,0,0,1-1.14-.44,2.15,2.15,0,0,1-.41-1.51v-3.17h-.9v-.8h.9v-1.39Z" transform="translate(-36.61)"/><path d="M1134.16,1458.87a.62.62,0,0,1-.67.64.63.63,0,0,1-.64-.64.64.64,0,0,1,.66-.66A.62.62,0,0,1,1134.16,1458.87Zm-1.18,7.43v-5.8H1134v5.8Z" transform="translate(-36.61)"/><path d="M1141,1463.35a2.83,2.83,0,0,1-2.89,3.08,2.76,2.76,0,0,1-2.78-3,2.83,2.83,0,0,1,2.88-3.08A2.74,2.74,0,0,1,1141,1463.35Zm-4.6.06c0,1.27.73,2.23,1.76,2.23s1.77-.94,1.77-2.25c0-1-.5-2.23-1.74-2.23S1136.44,1462.31,1136.44,1463.41Z" transform="translate(-36.61)"/><path d="M1142.38,1462.07c0-.6,0-1.09-.05-1.57h.94l.06,1h0a2.14,2.14,0,0,1,1.92-1.09c.8,0,2,.48,2,2.47v3.46h-1V1463c0-.94-.35-1.72-1.35-1.72a1.5,1.5,0,0,0-1.41,1.08,1.45,1.45,0,0,0-.07.49v3.49h-1.06Z" transform="translate(-36.61)"/><path d="M920.09,307.37a5.29,5.29,0,0,1-2.14.38,3.77,3.77,0,0,1-4-4.09,4,4,0,0,1,4.22-4.24,4.26,4.26,0,0,1,1.92.36l-.25.85a3.85,3.85,0,0,0-1.64-.34,3,3,0,0,0-3.15,3.34,2.94,2.94,0,0,0,3.11,3.25,4.24,4.24,0,0,0,1.7-.34Z" transform="translate(-36.61)"/><path d="M921.36,299.12h1.06v3.62h0a1.87,1.87,0,0,1,.76-.74,2.05,2.05,0,0,1,1.07-.3c.78,0,2,.47,2,2.48v3.45h-1V304.3c0-.94-.35-1.73-1.35-1.73a1.51,1.51,0,0,0-1.41,1.06,1.26,1.26,0,0,0-.07.5v3.5h-1.06Z" transform="translate(-36.61)"/><path d="M928.61,304.92a1.86,1.86,0,0,0,2,2,4,4,0,0,0,1.61-.3l.18.75a4.72,4.72,0,0,1-1.94.36,2.69,2.69,0,0,1-2.85-2.92c0-1.76,1-3.13,2.72-3.13a2.45,2.45,0,0,1,2.4,2.73,4.68,4.68,0,0,1,0,.49Zm3.09-.75a1.5,1.5,0,0,0-1.46-1.72,1.74,1.74,0,0,0-1.62,1.72Z" transform="translate(-36.61)"/><path d="M934,303.4c0-.6,0-1.09,0-1.57h.94l.06,1h0a2.12,2.12,0,0,1,1.92-1.09c.81,0,2.05.47,2.05,2.47v3.46h-1.05v-3.34c0-.94-.35-1.72-1.35-1.72a1.5,1.5,0,0,0-1.41,1.08,1.45,1.45,0,0,0-.07.49v3.49H934Z" transform="translate(-36.61)"/><path d="M940.69,303.4c0-.6,0-1.09-.05-1.57h.94l.06,1h0a2.12,2.12,0,0,1,1.92-1.09c.81,0,2,.47,2,2.47v3.46h-1v-3.34c0-.94-.35-1.72-1.35-1.72a1.5,1.5,0,0,0-1.41,1.08,1.45,1.45,0,0,0-.07.49v3.49h-1.06Z" transform="translate(-36.61)"/><path d="M950.57,307.63l-.09-.73h0a2.16,2.16,0,0,1-1.78.86,1.65,1.65,0,0,1-1.77-1.66c0-1.41,1.24-2.17,3.49-2.16v-.12a1.21,1.21,0,0,0-1.32-1.35,2.82,2.82,0,0,0-1.51.44l-.24-.7a3.6,3.6,0,0,1,1.9-.51c1.78,0,2.21,1.21,2.21,2.37v2.17a7.38,7.38,0,0,0,.1,1.39Zm-.16-3c-1.15,0-2.46.18-2.46,1.31a.93.93,0,0,0,1,1,1.45,1.45,0,0,0,1.4-1,1,1,0,0,0,.06-.33Z" transform="translate(-36.61)"/><path d="M954.31,300.2a.62.62,0,0,1-.67.64.63.63,0,0,1-.64-.64.64.64,0,0,1,.66-.66A.62.62,0,0,1,954.31,300.2Zm-1.17,7.43v-5.8h1.05v5.8Z" transform="translate(-36.61)"/><path d="M958.52,299.55h4.36v.87h-3.31v2.69h3.06V304h-3.06v3.66h-1.05Z" transform="translate(-36.61)"/><path d="M969.21,304.68a2.83,2.83,0,0,1-2.89,3.08,2.76,2.76,0,0,1-2.78-3,2.83,2.83,0,0,1,2.88-3.08A2.74,2.74,0,0,1,969.21,304.68Zm-4.6.06c0,1.27.73,2.23,1.76,2.23s1.76-1,1.76-2.25c0-1-.49-2.23-1.74-2.23S964.61,303.64,964.61,304.74Z" transform="translate(-36.61)"/><path d="M970.55,303.64c0-.69,0-1.27,0-1.81h.92l0,1.14h0a1.74,1.74,0,0,1,1.6-1.27,1.32,1.32,0,0,1,.3,0v1a1.23,1.23,0,0,0-.36,0,1.47,1.47,0,0,0-1.41,1.36,3.37,3.37,0,0,0,0,.49v3.09h-1Z" transform="translate(-36.61)"/><path d="M976,300.16v1.67h1.51v.8H976v3.13c0,.72.2,1.13.79,1.13a2.6,2.6,0,0,0,.61-.07l.05.79a2.67,2.67,0,0,1-.93.14,1.44,1.44,0,0,1-1.14-.44,2.15,2.15,0,0,1-.41-1.51v-3.17h-.9v-.8h.9v-1.39Z" transform="translate(-36.61)"/><path d="M740.79,321.37a5.21,5.21,0,0,1-2.14.38,3.78,3.78,0,0,1-4-4.09,4,4,0,0,1,4.22-4.24,4.26,4.26,0,0,1,1.92.36l-.25.85a3.84,3.84,0,0,0-1.63-.34,3,3,0,0,0-3.16,3.33,3,3,0,0,0,3.11,3.26,4.21,4.21,0,0,0,1.7-.34Z" transform="translate(-36.61)"/><path d="M742.06,313.12h1.06v3.62h0a2,2,0,0,1,.76-.75,2.16,2.16,0,0,1,1.08-.3c.78,0,2,.48,2,2.49v3.45H746V318.3c0-.94-.35-1.73-1.34-1.73a1.52,1.52,0,0,0-1.42,1.05,1.31,1.31,0,0,0-.07.51v3.5h-1.06Z" transform="translate(-36.61)"/><path d="M749.31,318.92a1.87,1.87,0,0,0,2,2,4,4,0,0,0,1.61-.3l.18.75a4.67,4.67,0,0,1-1.93.36,2.7,2.7,0,0,1-2.86-2.93c0-1.75,1-3.13,2.73-3.13a2.47,2.47,0,0,1,2.4,2.74,4.35,4.35,0,0,1,0,.49Zm3.1-.76a1.5,1.5,0,0,0-1.47-1.71,1.76,1.76,0,0,0-1.62,1.71Z" transform="translate(-36.61)"/><path d="M754.74,317.4c0-.6,0-1.09,0-1.57h.93l.06,1h0a2.13,2.13,0,0,1,1.92-1.1c.8,0,2,.48,2,2.47v3.47h-1.06v-3.35c0-.93-.35-1.71-1.34-1.71a1.5,1.5,0,0,0-1.42,1.08,1.75,1.75,0,0,0-.07.49v3.49h-1Z" transform="translate(-36.61)"/><path d="M761.4,317.4c0-.6,0-1.09,0-1.57h.93l.06,1h0a2.12,2.12,0,0,1,1.92-1.1c.8,0,2.05.48,2.05,2.47v3.47h-1.06v-3.35c0-.93-.35-1.71-1.34-1.71a1.5,1.5,0,0,0-1.42,1.08,1.75,1.75,0,0,0-.07.49v3.49H761.4Z" transform="translate(-36.61)"/><path d="M771.27,321.63l-.08-.73h0a2.17,2.17,0,0,1-1.77.86,1.65,1.65,0,0,1-1.78-1.66c0-1.41,1.25-2.18,3.49-2.16v-.12a1.2,1.2,0,0,0-1.32-1.35,2.84,2.84,0,0,0-1.51.44l-.24-.7a3.64,3.64,0,0,1,1.91-.52c1.77,0,2.2,1.22,2.2,2.38v2.17a8.4,8.4,0,0,0,.1,1.39Zm-.16-3c-1.15,0-2.45.18-2.45,1.31a.93.93,0,0,0,1,1,1.43,1.43,0,0,0,1.4-1,1,1,0,0,0,.06-.33Z" transform="translate(-36.61)"/><path d="M775,314.19a.62.62,0,0,1-.67.65.63.63,0,0,1-.63-.65.63.63,0,0,1,.66-.65A.62.62,0,0,1,775,314.19Zm-1.17,7.44v-5.8h1.06v5.8Z" transform="translate(-36.61)"/><path d="M779.23,313.64a12.57,12.57,0,0,1,2-.15,3.34,3.34,0,0,1,2.27.67,2.17,2.17,0,0,1,.7,1.69,2.38,2.38,0,0,1-.62,1.73,3.37,3.37,0,0,1-2.47.88,3.61,3.61,0,0,1-.84-.07v3.24h-1Zm1,3.9a3.54,3.54,0,0,0,.86.08c1.26,0,2-.61,2-1.72s-.75-1.59-1.91-1.59a4.17,4.17,0,0,0-1,.09Z" transform="translate(-36.61)"/><path d="M788.48,321.63l-.09-.73h0a2.19,2.19,0,0,1-1.78.86,1.65,1.65,0,0,1-1.77-1.66c0-1.41,1.24-2.18,3.49-2.16v-.12a1.2,1.2,0,0,0-1.32-1.35,2.84,2.84,0,0,0-1.51.44l-.24-.7a3.6,3.6,0,0,1,1.9-.52c1.78,0,2.21,1.22,2.21,2.38v2.17a7.44,7.44,0,0,0,.1,1.39Zm-.16-3c-1.15,0-2.46.18-2.46,1.31a.93.93,0,0,0,1,1,1.45,1.45,0,0,0,1.4-1,1,1,0,0,0,.06-.33Z" transform="translate(-36.61)"/><path d="M791.05,317.64c0-.69,0-1.27,0-1.81h.92l0,1.14h0a1.75,1.75,0,0,1,1.6-1.28,1.28,1.28,0,0,1,.3,0v1a1.23,1.23,0,0,0-.36,0,1.47,1.47,0,0,0-1.41,1.35,2.57,2.57,0,0,0,0,.5v3.09h-1Z" transform="translate(-36.61)"/><path d="M796.06,318.49h0a7.77,7.77,0,0,1,.51-.66l1.71-2h1.27l-2.25,2.38,2.56,3.42H798.6l-2-2.78-.54.6v2.18h-1v-8.51h1Z" transform="translate(-36.61)"/><path d="M804.27,314.44h-2.46v-.89h6v.89h-2.47v7.19h-1.06Z" transform="translate(-36.61)"/><path d="M813.06,318.68a2.83,2.83,0,0,1-2.89,3.08,2.76,2.76,0,0,1-2.78-3,2.84,2.84,0,0,1,2.88-3.09A2.75,2.75,0,0,1,813.06,318.68Zm-4.6.06c0,1.27.73,2.23,1.76,2.23s1.76-1,1.76-2.25c0-1-.49-2.23-1.73-2.23S808.46,317.64,808.46,318.74Z" transform="translate(-36.61)"/><path d="M814.74,315.83l.76,2.95c.17.64.33,1.24.43,1.84h0c.13-.58.32-1.21.52-1.83l.94-3h.89l.9,2.9c.22.69.38,1.31.52,1.89h0a16.82,16.82,0,0,1,.45-1.88l.82-2.91h1.05l-1.87,5.8h-1l-.89-2.77c-.2-.65-.37-1.22-.52-1.91h0a14.91,14.91,0,0,1-.53,1.92l-.93,2.76h-1l-1.75-5.8Z" transform="translate(-36.61)"/><path d="M823.15,317.4c0-.6,0-1.09,0-1.57H824l.06,1h0a2.13,2.13,0,0,1,1.92-1.1c.8,0,2.05.48,2.05,2.47v3.47H827v-3.35c0-.93-.34-1.71-1.34-1.71a1.5,1.5,0,0,0-1.42,1.08,1.75,1.75,0,0,0-.07.49v3.49h-1.05Z" transform="translate(-36.61)"/><circle class="cls-15" cx="837.9" cy="492.6" r="7.53"/><path d="M820.56,496.77a5.16,5.16,0,0,1-2.13.39,3.78,3.78,0,0,1-4-4.09,4,4,0,0,1,4.22-4.25,4.37,4.37,0,0,1,1.92.36l-.25.85a3.85,3.85,0,0,0-1.63-.33,3,3,0,0,0-3.15,3.33,2.93,2.93,0,0,0,3.1,3.25,4,4,0,0,0,1.7-.34Z" transform="translate(-36.61)"/><path d="M821.84,488.52h1v3.62h0a1.91,1.91,0,0,1,.75-.74,2.16,2.16,0,0,1,1.08-.3c.78,0,2,.48,2,2.48V497h-1.06V493.7c0-.93-.35-1.73-1.34-1.73A1.51,1.51,0,0,0,823,493a1.26,1.26,0,0,0-.07.5V497h-1Z" transform="translate(-36.61)"/><path d="M829.08,494.32a1.87,1.87,0,0,0,2,2,3.76,3.76,0,0,0,1.61-.3l.18.76a4.84,4.84,0,0,1-1.93.36,2.69,2.69,0,0,1-2.85-2.93c0-1.75,1-3.13,2.72-3.13a2.46,2.46,0,0,1,2.4,2.73,4,4,0,0,1,0,.49Zm3.1-.75a1.51,1.51,0,0,0-1.47-1.72,1.77,1.77,0,0,0-1.62,1.72Z" transform="translate(-36.61)"/><path d="M834.51,493.13c0-.75,0-1.35,0-1.9h.95l.05,1h0a2.27,2.27,0,0,1,2.06-1.13c1.4,0,2.46,1.19,2.46,2.95,0,2.09-1.27,3.12-2.64,3.12a2.05,2.05,0,0,1-1.79-.91h0v3.15h-1Zm1,1.54a1.88,1.88,0,0,0,.05.43,1.62,1.62,0,0,0,1.58,1.24c1.12,0,1.76-.91,1.76-2.24,0-1.17-.61-2.16-1.72-2.16a1.69,1.69,0,0,0-1.6,1.31,1.93,1.93,0,0,0-.07.43Z" transform="translate(-36.61)"/><path d="M844.55,497l-.08-.74h0a2.16,2.16,0,0,1-1.78.87,1.65,1.65,0,0,1-1.77-1.67c0-1.4,1.25-2.17,3.49-2.16v-.12a1.19,1.19,0,0,0-1.32-1.34,2.93,2.93,0,0,0-1.51.43l-.24-.7a3.61,3.61,0,0,1,1.91-.51c1.77,0,2.2,1.21,2.2,2.37v2.17a8.44,8.44,0,0,0,.1,1.4Zm-.16-3c-1.15,0-2.46.18-2.46,1.31a.94.94,0,0,0,1,1,1.43,1.43,0,0,0,1.4-1,1,1,0,0,0,.06-.34Z" transform="translate(-36.61)"/><path d="M852,495.45c0,.6,0,1.13,0,1.59h-.93l-.06-1h0a2.16,2.16,0,0,1-1.91,1.08c-.92,0-2-.51-2-2.55v-3.39h1.06v3.21c0,1.11.33,1.85,1.29,1.85a1.5,1.5,0,0,0,1.49-1.5v-3.56H852Z" transform="translate(-36.61)"/><path d="M854.77,493.89h0c.14-.2.35-.45.51-.66l1.71-2h1.27l-2.24,2.39L858.6,497h-1.28l-2-2.79-.54.6V497h-1v-8.52h1Z" transform="translate(-36.61)"/><circle class="cls-15" cx="709.85" cy="747.28" r="7.53"/><path d="M673.4,742.22h-2.46v-.88h6v.88h-2.47v7.2H673.4Z" transform="translate(-36.61)"/><path d="M677.71,740.9h1.06v3.63h0a2,2,0,0,1,.76-.75,2.15,2.15,0,0,1,1.07-.3c.78,0,2,.48,2,2.49v3.45h-1v-3.33c0-.94-.35-1.73-1.35-1.73a1.51,1.51,0,0,0-1.41,1,1.31,1.31,0,0,0-.07.51v3.5h-1.06Z" transform="translate(-36.61)"/><path d="M685.55,742a.63.63,0,0,1-.68.65.63.63,0,0,1-.63-.65.64.64,0,0,1,.66-.66A.63.63,0,0,1,685.55,742Zm-1.18,7.44v-5.81h1.06v5.81Z" transform="translate(-36.61)"/><path d="M687.18,745.43c0-.69,0-1.28,0-1.82h.92l0,1.14h0a1.74,1.74,0,0,1,1.6-1.27.91.91,0,0,1,.3,0v1a1.75,1.75,0,0,0-.35,0,1.47,1.47,0,0,0-1.42,1.35,3.68,3.68,0,0,0,0,.5v3.09h-1Z" transform="translate(-36.61)"/><path d="M696,747.84c0,.6,0,1.12,0,1.58h-.94l-.06-.95h0a2.19,2.19,0,0,1-1.92,1.08c-.91,0-2-.5-2-2.54v-3.4h1v3.22c0,1.1.34,1.85,1.3,1.85a1.54,1.54,0,0,0,1.39-1,1.57,1.57,0,0,0,.09-.54v-3.57H696Z" transform="translate(-36.61)"/><path d="M697.71,745.19c0-.6,0-1.1,0-1.58h.92l0,.94h0a2,2,0,0,1,1.83-1.07,1.71,1.71,0,0,1,1.64,1.17h0a2.35,2.35,0,0,1,.65-.76,2,2,0,0,1,1.28-.41c.77,0,1.91.51,1.91,2.52v3.42h-1v-3.29c0-1.11-.41-1.78-1.26-1.78a1.36,1.36,0,0,0-1.25,1,2,2,0,0,0-.08.52v3.59h-1v-3.48c0-.92-.41-1.59-1.21-1.59a1.44,1.44,0,0,0-1.31,1,1.49,1.49,0,0,0-.08.52v3.5h-1Z" transform="translate(-36.61)"/><path d="M710.94,749.42l-.09-.73h0a2.19,2.19,0,0,1-1.78.86,1.65,1.65,0,0,1-1.77-1.67c0-1.4,1.24-2.17,3.49-2.15v-.12a1.21,1.21,0,0,0-1.32-1.35,2.9,2.9,0,0,0-1.51.43l-.24-.69a3.6,3.6,0,0,1,1.9-.52c1.78,0,2.21,1.21,2.21,2.38V748a7.44,7.44,0,0,0,.1,1.39Zm-.16-3c-1.15,0-2.46.18-2.46,1.3a.94.94,0,0,0,1,1,1.45,1.45,0,0,0,1.4-1,1,1,0,0,0,.06-.34Z" transform="translate(-36.61)"/><path d="M713.79,743.61l1.28,3.43c.13.39.27.84.37,1.19h0c.11-.35.23-.79.37-1.21l1.15-3.41h1.12l-1.58,4.14c-.76,2-1.27,3-2,3.64a3,3,0,0,1-1.3.68l-.26-.89a2.77,2.77,0,0,0,.92-.51,3.22,3.22,0,0,0,.89-1.18.69.69,0,0,0,.08-.25.91.91,0,0,0-.07-.28l-2.15-5.35Z" transform="translate(-36.61)"/><path d="M720.24,742a.66.66,0,0,1-1.31,0,.65.65,0,0,1,.66-.66A.63.63,0,0,1,720.24,742Zm-1.18,7.44v-5.81h1.06v5.81Z" transform="translate(-36.61)"/><path d="M721.87,740.9h1.06v8.52h-1.06Z" transform="translate(-36.61)"/><path d="M727.92,749.42l-.09-.73h0a2.19,2.19,0,0,1-1.78.86,1.65,1.65,0,0,1-1.77-1.67c0-1.4,1.24-2.17,3.49-2.15v-.12a1.21,1.21,0,0,0-1.32-1.35,2.9,2.9,0,0,0-1.51.43l-.24-.69a3.6,3.6,0,0,1,1.9-.52c1.78,0,2.21,1.21,2.21,2.38V748a7.44,7.44,0,0,0,.1,1.39Zm-.16-3c-1.15,0-2.46.18-2.46,1.3a.94.94,0,0,0,1,1,1.45,1.45,0,0,0,1.4-1,1,1,0,0,0,.06-.34Z" transform="translate(-36.61)"/><path d="M731.66,742a.62.62,0,0,1-.67.65.63.63,0,0,1-.64-.65.65.65,0,0,1,.66-.66A.63.63,0,0,1,731.66,742Zm-1.17,7.44v-5.81h1v5.81Z" transform="translate(-36.61)"/><circle class="cls-15" cx="546.28" cy="1024.45" r="7.53"/><path d="M492,1018.51H493v3.9h0c.22-.31.44-.6.64-.86l2.47-3h1.3l-2.93,3.43,3.15,4.66h-1.23l-2.66-4-.77.88v3.09H492Z" transform="translate(-36.61)"/><path d="M501.83,1026.6l-.09-.73h0a2.19,2.19,0,0,1-1.78.86,1.65,1.65,0,0,1-1.77-1.67c0-1.4,1.25-2.17,3.49-2.16v-.12a1.19,1.19,0,0,0-1.32-1.34,2.93,2.93,0,0,0-1.51.43l-.24-.69a3.52,3.52,0,0,1,1.91-.52c1.77,0,2.2,1.21,2.2,2.38v2.17a8.4,8.4,0,0,0,.1,1.39Zm-.16-3c-1.15,0-2.46.18-2.46,1.31a.94.94,0,0,0,1,1,1.45,1.45,0,0,0,1.4-1,1,1,0,0,0,.06-.34Z" transform="translate(-36.61)"/><path d="M504.25,1025.52a2.86,2.86,0,0,0,1.4.42c.76,0,1.12-.39,1.12-.87s-.3-.78-1.08-1.06c-1-.38-1.53-1-1.53-1.65a1.79,1.79,0,0,1,2-1.7,2.94,2.94,0,0,1,1.43.36l-.27.77a2.15,2.15,0,0,0-1.18-.34c-.63,0-1,.36-1,.79s.34.7,1.1,1c1,.38,1.52.88,1.52,1.75s-.79,1.74-2.17,1.74a3.33,3.33,0,0,1-1.63-.4Z" transform="translate(-36.61)"/><path d="M510.42,1019.12v1.67h1.51v.81h-1.51v3.13c0,.72.2,1.12.79,1.12a2.15,2.15,0,0,0,.61-.07l.05.79a2.42,2.42,0,0,1-.93.15,1.46,1.46,0,0,1-1.14-.45,2.13,2.13,0,0,1-.41-1.51v-3.16h-.9v-.81h.9v-1.39Z" transform="translate(-36.61)"/><path d="M518,1025c0,.6,0,1.13,0,1.59h-.94l-.06-.95h0a2.19,2.19,0,0,1-1.92,1.08c-.91,0-2-.5-2-2.54v-3.4h1V1024c0,1.1.34,1.84,1.3,1.84a1.53,1.53,0,0,0,1.39-1,1.49,1.49,0,0,0,.09-.54v-3.56H518Z" transform="translate(-36.61)"/><path d="M519.73,1022.6c0-.68,0-1.27,0-1.81h.92l0,1.14h0a1.75,1.75,0,0,1,1.61-1.27,1,1,0,0,1,.3,0v1a1.94,1.94,0,0,0-.36,0,1.47,1.47,0,0,0-1.41,1.35,2.46,2.46,0,0,0-.05.49v3.1h-1Z" transform="translate(-36.61)"/><path d="M523.66,1026.6c0-.4.05-1,.05-1.5v-7h1v3.65h0a2.18,2.18,0,0,1,2-1.07c1.44,0,2.46,1.2,2.45,3,0,2.08-1.31,3.11-2.6,3.11a2.08,2.08,0,0,1-2-1.09h0l0,1Zm1.09-2.33a1.58,1.58,0,0,0,0,.38,1.61,1.61,0,0,0,1.58,1.24c1.1,0,1.76-.9,1.76-2.23,0-1.16-.6-2.16-1.72-2.16a1.69,1.69,0,0,0-1.61,1.29,2.6,2.6,0,0,0-.06.44Z" transform="translate(-36.61)"/><path d="M533.75,1026.6l-.09-.73h0a2.19,2.19,0,0,1-1.78.86,1.65,1.65,0,0,1-1.77-1.67c0-1.4,1.25-2.17,3.49-2.16v-.12a1.19,1.19,0,0,0-1.32-1.34,2.93,2.93,0,0,0-1.51.43l-.24-.69a3.51,3.51,0,0,1,1.9-.52c1.78,0,2.21,1.21,2.21,2.38v2.17a8.4,8.4,0,0,0,.1,1.39Zm-.16-3c-1.15,0-2.46.18-2.46,1.31a.94.94,0,0,0,1,1,1.45,1.45,0,0,0,1.4-1,1,1,0,0,0,.06-.34Z" transform="translate(-36.61)"/><path d="M538.9,1026.6v-8.09H540l2.59,4.09a22.28,22.28,0,0,1,1.45,2.63h0c-.09-1.08-.12-2.06-.12-3.32v-3.39h1v8.09h-1.06l-2.57-4.1a27.44,27.44,0,0,1-1.51-2.7h0c.06,1,.08,2,.08,3.33v3.46Z" transform="translate(-36.61)"/><path d="M550,1026.6l-.08-.73h0a2.17,2.17,0,0,1-1.77.86,1.66,1.66,0,0,1-1.78-1.67c0-1.4,1.25-2.17,3.49-2.16v-.12a1.19,1.19,0,0,0-1.32-1.34,2.93,2.93,0,0,0-1.51.43l-.24-.69a3.55,3.55,0,0,1,1.91-.52c1.77,0,2.2,1.21,2.2,2.38v2.17a8.4,8.4,0,0,0,.1,1.39Zm-.15-3c-1.16,0-2.46.18-2.46,1.31a.93.93,0,0,0,1,1,1.45,1.45,0,0,0,1.41-1,1.35,1.35,0,0,0,.06-.34Z" transform="translate(-36.61)"/><path d="M557.54,1020.79c0,.42,0,.89,0,1.6v3.37a3.36,3.36,0,0,1-.82,2.65,3.07,3.07,0,0,1-2.11.69,3.64,3.64,0,0,1-1.93-.48l.26-.8a3.25,3.25,0,0,0,1.7.46c1.08,0,1.87-.57,1.87-2v-.65h0a2.07,2.07,0,0,1-1.85,1,2.59,2.59,0,0,1-2.47-2.83,2.79,2.79,0,0,1,2.62-3.08,1.94,1.94,0,0,1,1.81,1h0l0-.88Zm-1.09,2.29a1.47,1.47,0,0,0-.06-.48,1.52,1.52,0,0,0-1.47-1.11c-1,0-1.73.85-1.73,2.19,0,1.14.57,2.09,1.71,2.09a1.55,1.55,0,0,0,1.47-1.08,1.81,1.81,0,0,0,.08-.56Z" transform="translate(-36.61)"/><path d="M562.46,1026.6l-.08-.73h0a2.16,2.16,0,0,1-1.77.86,1.66,1.66,0,0,1-1.78-1.67c0-1.4,1.25-2.17,3.49-2.16v-.12a1.19,1.19,0,0,0-1.32-1.34,2.93,2.93,0,0,0-1.51.43l-.24-.69a3.55,3.55,0,0,1,1.91-.52c1.78,0,2.21,1.21,2.21,2.38v2.17a8.47,8.47,0,0,0,.09,1.39Zm-.15-3c-1.15,0-2.46.18-2.46,1.31a.94.94,0,0,0,1,1,1.45,1.45,0,0,0,1.41-1,1.35,1.35,0,0,0,.06-.34Z" transform="translate(-36.61)"/><path d="M565,1022.6c0-.68,0-1.27,0-1.81h.92l0,1.14h0a1.75,1.75,0,0,1,1.61-1.27,1,1,0,0,1,.3,0v1a1.94,1.94,0,0,0-.36,0,1.49,1.49,0,0,0-1.42,1.35,3.6,3.6,0,0,0,0,.49v3.1H565Z" transform="translate(-36.61)"/><circle class="cls-15" cx="580.91" cy="1160.28" r="7.53"/><path d="M532.17,1157.88h-2.46V1157h6v.88h-2.47v7.2h-1.05Z" transform="translate(-36.61)"/><path d="M536.48,1156.56h1v3.63h0a1.87,1.87,0,0,1,.75-.75,2.19,2.19,0,0,1,1.08-.3c.78,0,2,.48,2,2.48v3.46h-1.06v-3.34c0-.93-.34-1.72-1.34-1.72a1.54,1.54,0,0,0-1.42,1,1.31,1.31,0,0,0-.07.51v3.5h-1Z" transform="translate(-36.61)"/><path d="M544.31,1157.64a.65.65,0,1,1-1.3,0,.64.64,0,0,1,.66-.66A.62.62,0,0,1,544.31,1157.64Zm-1.17,7.44v-5.81h1.05v5.81Z" transform="translate(-36.61)"/><path d="M545.94,1161.08c0-.68,0-1.27,0-1.81h.92l0,1.14h0a1.75,1.75,0,0,1,1.61-1.27.91.91,0,0,1,.3,0v1a1.86,1.86,0,0,0-.36,0,1.47,1.47,0,0,0-1.41,1.35,2.46,2.46,0,0,0,0,.49v3.1h-1Z" transform="translate(-36.61)"/><path d="M554.73,1163.5c0,.6,0,1.12,0,1.58h-.93l-.06-.95h0a2.16,2.16,0,0,1-1.91,1.08c-.92,0-2-.5-2-2.54v-3.4h1.06v3.22c0,1.1.33,1.84,1.29,1.84a1.55,1.55,0,0,0,1.4-.95,1.57,1.57,0,0,0,.09-.54v-3.57h1.06Z" transform="translate(-36.61)"/><path d="M556.89,1159.27l1.14,3.27a14.72,14.72,0,0,1,.47,1.48h0c.13-.48.3-1,.49-1.48l1.13-3.27h1.1l-2.27,5.81h-1l-2.21-5.81Z" transform="translate(-36.61)"/><path d="M565.42,1165.08l-.09-.73h0a2.18,2.18,0,0,1-1.78.86,1.65,1.65,0,0,1-1.77-1.67c0-1.4,1.25-2.17,3.49-2.16v-.12a1.2,1.2,0,0,0-1.32-1.34,2.93,2.93,0,0,0-1.51.43l-.24-.69a3.61,3.61,0,0,1,1.91-.52c1.77,0,2.2,1.21,2.2,2.38v2.17a8.4,8.4,0,0,0,.1,1.39Zm-.16-3c-1.15,0-2.46.18-2.46,1.3a.94.94,0,0,0,1,1,1.43,1.43,0,0,0,1.4-1,1,1,0,0,0,.06-.34Z" transform="translate(-36.61)"/><path d="M568,1160.84c0-.59,0-1.09,0-1.57h.94l.06,1h0a2.14,2.14,0,0,1,1.92-1.09c.8,0,2,.48,2,2.47v3.47h-1.06v-3.35c0-.93-.34-1.71-1.34-1.71a1.5,1.5,0,0,0-1.41,1.08,1.44,1.44,0,0,0-.08.49v3.49h-1Z" transform="translate(-36.61)"/><path d="M574.65,1160.84c0-.59,0-1.09,0-1.57h.92l.05.94h0a2,2,0,0,1,1.82-1.07,1.71,1.71,0,0,1,1.64,1.16h0a2.42,2.42,0,0,1,.65-.75,2,2,0,0,1,1.28-.41c.77,0,1.91.51,1.91,2.52v3.42h-1v-3.29c0-1.11-.4-1.78-1.25-1.78a1.37,1.37,0,0,0-1.25,1,1.73,1.73,0,0,0-.09.53v3.59h-1v-3.48c0-.92-.4-1.59-1.21-1.59a1.44,1.44,0,0,0-1.31,1,1.49,1.49,0,0,0-.08.52v3.5h-1Z" transform="translate(-36.61)"/><path d="M585.83,1157.64a.62.62,0,0,1-.67.65.63.63,0,0,1-.64-.65.65.65,0,0,1,.66-.66A.63.63,0,0,1,585.83,1157.64Zm-1.17,7.44v-5.81h1.05v5.81Z" transform="translate(-36.61)"/><path d="M587.85,1159.27l1.27,3.43c.13.39.28.84.37,1.19h0c.1-.35.22-.79.37-1.21l1.15-3.41h1.11l-1.58,4.14c-.76,2-1.27,3-2,3.63a2.87,2.87,0,0,1-1.3.69l-.26-.89a2.77,2.77,0,0,0,.92-.51,3.22,3.22,0,0,0,.89-1.18.76.76,0,0,0,.09-.25.94.94,0,0,0-.08-.28l-2.14-5.35Z" transform="translate(-36.61)"/><path d="M598,1163.5c0,.6,0,1.12,0,1.58h-.93l-.06-.95h0a2.16,2.16,0,0,1-1.92,1.08c-.91,0-2-.5-2-2.54v-3.4h1.06v3.22c0,1.1.33,1.84,1.29,1.84a1.52,1.52,0,0,0,1.39-.95,1.57,1.57,0,0,0,.1-.54v-3.57H598Z" transform="translate(-36.61)"/><path d="M599.73,1161.08c0-.68,0-1.27-.05-1.81h.92l0,1.14h.05a1.74,1.74,0,0,1,1.6-1.27.87.87,0,0,1,.3,0v1a1.75,1.75,0,0,0-.35,0,1.47,1.47,0,0,0-1.42,1.35,3.52,3.52,0,0,0-.05.49v3.1h-1Z" transform="translate(-36.61)"/><circle class="cls-15" cx="396.88" cy="1289.56" r="7.53"/><path d="M367.5,1280.56a12.81,12.81,0,0,1,2-.15,3.31,3.31,0,0,1,2.26.67,2.15,2.15,0,0,1,.71,1.69,2.38,2.38,0,0,1-.62,1.73,3.37,3.37,0,0,1-2.47.88,3.61,3.61,0,0,1-.84-.07v3.24H367.5Zm1.05,3.9a3.49,3.49,0,0,0,.86.08c1.26,0,2-.61,2-1.72s-.76-1.59-1.91-1.59a4.17,4.17,0,0,0-1,.09Z" transform="translate(-36.61)"/><path d="M374.14,1285.84a1.85,1.85,0,0,0,2,2,3.8,3.8,0,0,0,1.61-.3l.18.76a4.67,4.67,0,0,1-1.93.36,2.7,2.7,0,0,1-2.86-2.93c0-1.75,1-3.13,2.72-3.13a2.46,2.46,0,0,1,2.4,2.74,4.88,4.88,0,0,1,0,.49Zm3.09-.76a1.49,1.49,0,0,0-1.46-1.71,1.75,1.75,0,0,0-1.62,1.71Z" transform="translate(-36.61)"/><path d="M379.56,1284.56c0-.69,0-1.28,0-1.81h.92l0,1.13h0a1.75,1.75,0,0,1,1.61-1.27,1,1,0,0,1,.3,0v1a1.94,1.94,0,0,0-.36,0,1.47,1.47,0,0,0-1.41,1.35,2.57,2.57,0,0,0-.05.5v3.09h-1.05Z" transform="translate(-36.61)"/><path d="M388.35,1287c0,.6,0,1.12,0,1.58h-.93l-.06-1h0a2.16,2.16,0,0,1-1.91,1.08c-.92,0-2-.5-2-2.54v-3.39h1.06V1286c0,1.1.33,1.85,1.29,1.85a1.53,1.53,0,0,0,1.39-1,1.57,1.57,0,0,0,.1-.54v-3.56h1.06Z" transform="translate(-36.61)"/><path d="M390.1,1284.32c0-.6,0-1.1-.05-1.57H391l.06,1h0a2.14,2.14,0,0,1,1.92-1.09c.8,0,2.05.48,2.05,2.47v3.47H394v-3.35c0-.93-.35-1.71-1.35-1.71a1.5,1.5,0,0,0-1.41,1.08,1.45,1.45,0,0,0-.07.49v3.49H390.1Z" transform="translate(-36.61)"/><path d="M401.76,1282.75c0,.41-.05.88-.05,1.59v3.37a3.35,3.35,0,0,1-.82,2.65,3.08,3.08,0,0,1-2.11.7,3.79,3.79,0,0,1-1.94-.48l.27-.81a3.25,3.25,0,0,0,1.7.46c1.08,0,1.87-.56,1.87-2v-.65h0a2.09,2.09,0,0,1-1.85,1,2.6,2.6,0,0,1-2.47-2.83,2.79,2.79,0,0,1,2.62-3.09,2,2,0,0,1,1.81,1h0l0-.87Zm-1.09,2.29a1.44,1.44,0,0,0-.06-.48,1.52,1.52,0,0,0-1.48-1.12c-1,0-1.72.85-1.72,2.19,0,1.14.57,2.09,1.71,2.09a1.55,1.55,0,0,0,1.47-1.08,1.81,1.81,0,0,0,.08-.56Z" transform="translate(-36.61)"/><path d="M408.33,1287c0,.6,0,1.12,0,1.58h-.93l-.06-1h0a2.16,2.16,0,0,1-1.92,1.08c-.91,0-2-.5-2-2.54v-3.39h1.06V1286c0,1.1.33,1.85,1.29,1.85a1.53,1.53,0,0,0,1.39-1,1.57,1.57,0,0,0,.1-.54v-3.56h1.06Z" transform="translate(-36.61)"/><path d="M415.09,1280v7c0,.52,0,1.1.05,1.5h-.95l0-1h0a2.14,2.14,0,0,1-2,1.14c-1.4,0-2.48-1.19-2.48-3,0-1.93,1.19-3.12,2.6-3.12a1.93,1.93,0,0,1,1.75.89h0V1280Zm-1,5.08a1.77,1.77,0,0,0-.05-.45,1.55,1.55,0,0,0-1.52-1.22c-1.09,0-1.74,1-1.74,2.24s.57,2.15,1.71,2.15a1.59,1.59,0,0,0,1.55-1.26,1.64,1.64,0,0,0,.05-.45Z" transform="translate(-36.61)"/><path d="M418,1281.11a.62.62,0,0,1-.67.65.63.63,0,0,1-.63-.65.64.64,0,0,1,.66-.66A.62.62,0,0,1,418,1281.11Zm-1.17,7.44v-5.8h1v5.8Z" transform="translate(-36.61)"/><path d="M838.09,386.75a5.2,5.2,0,0,1-2.13.38,3.78,3.78,0,0,1-4-4.09,4,4,0,0,1,4.23-4.24,4.2,4.2,0,0,1,1.91.36l-.25.85a3.8,3.8,0,0,0-1.63-.34,3,3,0,0,0-3.15,3.34,2.94,2.94,0,0,0,3.1,3.25,4.1,4.1,0,0,0,1.71-.34Z" transform="translate(-36.61)"/><path d="M839.37,378.5h1v3.62h0a2,2,0,0,1,.75-.74,2.19,2.19,0,0,1,1.08-.3c.78,0,2,.48,2,2.48V387h-1.06v-3.33c0-.94-.34-1.73-1.34-1.73A1.51,1.51,0,0,0,840.5,383a1.25,1.25,0,0,0-.08.5V387h-1Z" transform="translate(-36.61)"/><path d="M847.2,379.58a.65.65,0,1,1-1.3,0,.64.64,0,0,1,.66-.66A.62.62,0,0,1,847.2,379.58ZM846,387v-5.8h1.05V387Z" transform="translate(-36.61)"/><path d="M848.84,382.78c0-.6,0-1.09-.05-1.57h.93l.06,1h0a2.13,2.13,0,0,1,1.92-1.09c.8,0,2,.48,2,2.47V387h-1.06v-3.34c0-.94-.35-1.72-1.34-1.72A1.5,1.5,0,0,0,850,383a1.75,1.75,0,0,0-.07.49V387h-1Z" transform="translate(-36.61)"/><path d="M856.72,379.54v1.67h1.51v.8h-1.51v3.13c0,.72.2,1.13.79,1.13a2.6,2.6,0,0,0,.61-.07l0,.79a2.69,2.69,0,0,1-.94.14,1.47,1.47,0,0,1-1.14-.44,2.15,2.15,0,0,1-.4-1.51V382h-.9v-.8h.9v-1.39Z" transform="translate(-36.61)"/><path d="M862.63,387l-.08-.73h0a2.14,2.14,0,0,1-1.77.87,1.66,1.66,0,0,1-1.78-1.67c0-1.4,1.25-2.17,3.49-2.16v-.12a1.19,1.19,0,0,0-1.32-1.34,2.84,2.84,0,0,0-1.51.43l-.24-.7a3.63,3.63,0,0,1,1.91-.51c1.78,0,2.21,1.21,2.21,2.37v2.17a8.32,8.32,0,0,0,.09,1.39Zm-.15-3c-1.15,0-2.46.18-2.46,1.31a.94.94,0,0,0,1,1,1.45,1.45,0,0,0,1.41-1,1.35,1.35,0,0,0,.06-.34Z" transform="translate(-36.61)"/><path d="M870.22,378.5v7c0,.51,0,1.1,0,1.49h-.94l-.05-1h0a2.18,2.18,0,0,1-2,1.14c-1.41,0-2.49-1.19-2.49-2.95,0-1.94,1.19-3.12,2.61-3.12a2,2,0,0,1,1.75.88h0V378.5Zm-1.06,5.07a1.65,1.65,0,0,0,0-.44,1.55,1.55,0,0,0-1.52-1.23c-1.09,0-1.74,1-1.74,2.25s.58,2.14,1.72,2.14a1.58,1.58,0,0,0,1.54-1.25,1.71,1.71,0,0,0,0-.46Z" transform="translate(-36.61)"/><path d="M872,383c0-.68,0-1.27-.05-1.81h.93l0,1.14h0a1.74,1.74,0,0,1,1.61-1.27,1.39,1.39,0,0,1,.3,0v1a1.32,1.32,0,0,0-.36,0,1.49,1.49,0,0,0-1.42,1.36,3.37,3.37,0,0,0,0,.49V387h-1Z" transform="translate(-36.61)"/><path d="M877.12,379.58a.66.66,0,0,1-1.31,0,.65.65,0,0,1,.66-.66A.63.63,0,0,1,877.12,379.58ZM875.94,387v-5.8H877V387Z" transform="translate(-36.61)"/><path d="M878.75,383.1c0-.74,0-1.34,0-1.89h.95l.05,1h0a2.3,2.3,0,0,1,2.07-1.12c1.4,0,2.45,1.18,2.45,2.95,0,2.08-1.27,3.12-2.63,3.12a2,2,0,0,1-1.79-.92h0v3.16h-1Zm1,1.55a2.68,2.68,0,0,0,.05.43,1.64,1.64,0,0,0,1.59,1.24c1.11,0,1.76-.91,1.76-2.24,0-1.17-.61-2.16-1.73-2.16a1.67,1.67,0,0,0-1.59,1.3,1.63,1.63,0,0,0-.08.44Z" transform="translate(-36.61)"/><path d="M886.17,384.3a1.86,1.86,0,0,0,2,2,3.75,3.75,0,0,0,1.6-.3l.18.75a4.63,4.63,0,0,1-1.93.36,2.69,2.69,0,0,1-2.85-2.92c0-1.75,1-3.13,2.72-3.13a2.45,2.45,0,0,1,2.4,2.73,2.63,2.63,0,0,1,0,.49Zm3.09-.75a1.51,1.51,0,0,0-1.46-1.72,1.75,1.75,0,0,0-1.62,1.72Z" transform="translate(-36.61)"/><path d="M892.86,379.54v1.67h1.51v.8h-1.51v3.13c0,.72.21,1.13.79,1.13a2.78,2.78,0,0,0,.62-.07l0,.79a2.63,2.63,0,0,1-.93.14,1.45,1.45,0,0,1-1.14-.44,2.15,2.15,0,0,1-.41-1.51V382h-.9v-.8h.9v-1.39Z" transform="translate(-36.61)"/><circle class="cls-15" cx="840.43" cy="552.16" r="7.53"/><path d="M893.62,550.07h-2.46v-.89h6v.89h-2.47v7.19h-1Z" transform="translate(-36.61)"/><path d="M897.93,548.75H899v3.62h0a1.93,1.93,0,0,1,.75-.75,2.16,2.16,0,0,1,1.08-.3c.78,0,2,.48,2,2.49v3.45h-1.06v-3.33c0-.94-.35-1.73-1.34-1.73a1.52,1.52,0,0,0-1.42,1.06,1.26,1.26,0,0,0-.07.5v3.5h-1.05Z" transform="translate(-36.61)"/><path d="M905.76,549.83a.62.62,0,0,1-.67.64.63.63,0,0,1-.64-.64.64.64,0,0,1,.66-.66A.62.62,0,0,1,905.76,549.83Zm-1.17,7.43v-5.8h1v5.8Z" transform="translate(-36.61)"/><path d="M907.39,553.27c0-.69,0-1.27,0-1.81h.92l0,1.14h0a1.76,1.76,0,0,1,1.61-1.28,1.36,1.36,0,0,1,.3,0v1a1.32,1.32,0,0,0-.36,0,1.49,1.49,0,0,0-1.42,1.36,3.47,3.47,0,0,0,0,.49v3.09h-1.05Z" transform="translate(-36.61)"/><path d="M916.18,555.68c0,.6,0,1.13,0,1.58h-.93l-.06-1h0a2.16,2.16,0,0,1-1.92,1.08c-.91,0-2-.5-2-2.54v-3.39h1.06v3.21c0,1.1.33,1.85,1.29,1.85a1.52,1.52,0,0,0,1.39-1,1.57,1.57,0,0,0,.1-.54v-3.56h1.06Z" transform="translate(-36.61)"/><path d="M918.34,551.46l1.14,3.26a15.54,15.54,0,0,1,.46,1.49h0c.13-.48.3-1,.49-1.49l1.13-3.26h1.1l-2.28,5.8h-1l-2.21-5.8Z" transform="translate(-36.61)"/><path d="M926.87,557.26l-.09-.73h0a2.16,2.16,0,0,1-1.78.86,1.65,1.65,0,0,1-1.77-1.66c0-1.41,1.24-2.17,3.49-2.16v-.12a1.2,1.2,0,0,0-1.32-1.35,2.84,2.84,0,0,0-1.51.44l-.24-.7a3.6,3.6,0,0,1,1.9-.52c1.78,0,2.21,1.22,2.21,2.38v2.17a7.38,7.38,0,0,0,.1,1.39Zm-.16-3c-1.15,0-2.46.18-2.46,1.31a.93.93,0,0,0,1,1,1.45,1.45,0,0,0,1.4-1,1,1,0,0,0,.06-.33Z" transform="translate(-36.61)"/><path d="M929.44,548.75h1v8.51h-1Z" transform="translate(-36.61)"/><path d="M932.27,548.75h1.06v8.51h-1.06Z" transform="translate(-36.61)"/><path d="M936.28,549.83a.66.66,0,0,1-1.31,0,.64.64,0,0,1,.66-.66A.63.63,0,0,1,936.28,549.83Zm-1.18,7.43v-5.8h1.06v5.8Z" transform="translate(-36.61)"/><path d="M939,554.12h0c.14-.2.34-.46.51-.66l1.71-2h1.27l-2.25,2.38,2.56,3.42H941.5l-2-2.78-.54.6v2.18h-1v-8.51h1Z" transform="translate(-36.61)"/><path d="M944.12,554.55a1.87,1.87,0,0,0,2,2,3.91,3.91,0,0,0,1.6-.3l.18.75a4.63,4.63,0,0,1-1.93.36,2.69,2.69,0,0,1-2.85-2.93c0-1.75,1-3.13,2.72-3.13a2.47,2.47,0,0,1,2.4,2.74,4.35,4.35,0,0,1,0,.49Zm3.1-.76a1.5,1.5,0,0,0-1.46-1.71,1.74,1.74,0,0,0-1.62,1.71Z" transform="translate(-36.61)"/><path d="M949.55,553c0-.6,0-1.09,0-1.57h.94l.06,1h0a2.13,2.13,0,0,1,1.92-1.1c.8,0,2,.48,2,2.47v3.47h-1.06v-3.34c0-.94-.34-1.72-1.34-1.72a1.5,1.5,0,0,0-1.41,1.08,1.44,1.44,0,0,0-.08.49v3.49h-1.05Z" transform="translate(-36.61)"/><path d="M957.38,549.83a.65.65,0,0,1-1.3,0,.64.64,0,0,1,.66-.66A.62.62,0,0,1,957.38,549.83Zm-1.17,7.43v-5.8h1v5.8Z" transform="translate(-36.61)"/><circle class="cls-15" cx="665.02" cy="792.04" r="7.53"/><path d="M724.75,794.41c-.06-1.12-.13-2.48-.12-3.49h0c-.28,1-.61,2-1,3.07l-1.43,3.93h-.79l-1.31-3.85c-.38-1.14-.7-2.19-.93-3.15h0c0,1-.08,2.37-.15,3.58l-.22,3.46h-1l.56-8.08h1.33l1.38,3.91c.34,1,.61,1.88.82,2.72h0c.21-.81.49-1.7.85-2.72l1.44-3.91h1.33L726,798h-1Z" transform="translate(-36.61)"/><path d="M730.84,798l-.08-.73h0a2.15,2.15,0,0,1-1.78.86,1.65,1.65,0,0,1-1.77-1.66c0-1.41,1.25-2.17,3.49-2.16v-.12a1.19,1.19,0,0,0-1.32-1.34,2.84,2.84,0,0,0-1.51.43l-.24-.7a3.61,3.61,0,0,1,1.91-.51c1.77,0,2.2,1.21,2.2,2.37v2.17a8.24,8.24,0,0,0,.1,1.39Zm-.16-3c-1.15,0-2.45.18-2.45,1.31a.93.93,0,0,0,1,1,1.42,1.42,0,0,0,1.4-1,.92.92,0,0,0,.06-.33Z" transform="translate(-36.61)"/><path d="M733.41,793.73c0-.6,0-1.09,0-1.57h.94l.06,1h0A2.14,2.14,0,0,1,736.3,792c.8,0,2.05.48,2.05,2.47V798H737.3v-3.34c0-.94-.35-1.72-1.35-1.72a1.5,1.5,0,0,0-1.41,1.08,1.45,1.45,0,0,0-.07.49V798h-1.06Z" transform="translate(-36.61)"/><path d="M745.08,789.45v7c0,.52,0,1.11,0,1.5h-1l0-1h0a2.15,2.15,0,0,1-2,1.13c-1.4,0-2.48-1.18-2.48-3,0-1.93,1.19-3.11,2.6-3.11a1.94,1.94,0,0,1,1.75.88h0v-3.46ZM744,794.52a1.65,1.65,0,0,0,0-.44,1.56,1.56,0,0,0-1.52-1.23c-1.1,0-1.74,1-1.74,2.25s.57,2.14,1.71,2.14a1.67,1.67,0,0,0,1.6-1.71Z" transform="translate(-36.61)"/><path d="M750.05,798l-.08-.73h0a2.14,2.14,0,0,1-1.77.86,1.65,1.65,0,0,1-1.78-1.66c0-1.41,1.25-2.17,3.49-2.16v-.12a1.19,1.19,0,0,0-1.32-1.34,2.84,2.84,0,0,0-1.51.43l-.24-.7a3.63,3.63,0,0,1,1.91-.51c1.77,0,2.21,1.21,2.21,2.37v2.17A8.32,8.32,0,0,0,751,798Zm-.15-3c-1.16,0-2.46.18-2.46,1.31a.93.93,0,0,0,1,1,1.45,1.45,0,0,0,1.41-1,1.2,1.2,0,0,0,.06-.33Z" transform="translate(-36.61)"/><path d="M752.93,792.16l1.14,3.26c.19.53.35,1,.47,1.49h0c.13-.48.3-1,.49-1.49l1.13-3.26h1.1L755,798h-1l-2.2-5.8Z" transform="translate(-36.61)"/><path d="M758.77,795.25a1.86,1.86,0,0,0,2,2,3.75,3.75,0,0,0,1.6-.3l.18.75a4.63,4.63,0,0,1-1.93.36,2.69,2.69,0,0,1-2.85-2.92c0-1.75,1-3.13,2.72-3.13a2.45,2.45,0,0,1,2.4,2.73,4.15,4.15,0,0,1,0,.49Zm3.09-.75a1.51,1.51,0,0,0-1.46-1.72,1.75,1.75,0,0,0-1.62,1.72Z" transform="translate(-36.61)"/><path d="M764.19,789.45h1V798h-1Z" transform="translate(-36.61)"/><path d="M768.2,790.53a.63.63,0,0,1-.68.64.62.62,0,0,1-.63-.64.65.65,0,0,1,.66-.66A.63.63,0,0,1,768.2,790.53ZM767,798v-5.8h1.06V798Z" transform="translate(-36.61)"/><circle class="cls-15" cx="553.81" cy="943.2" r="7.53"/><path d="M606,939.35h1v3.9h0c.22-.32.43-.6.64-.87l2.47-3h1.29l-2.92,3.43,3.15,4.65h-1.24l-2.66-4-.77.89v3.08h-1Z" transform="translate(-36.61)"/><path d="M617.76,944.48a2.83,2.83,0,0,1-2.89,3.08,2.76,2.76,0,0,1-2.78-3,2.84,2.84,0,0,1,2.88-3.09A2.76,2.76,0,0,1,617.76,944.48Zm-4.6.06c0,1.27.73,2.23,1.76,2.23s1.76-.95,1.76-2.25c0-1-.49-2.23-1.74-2.23S613.16,943.44,613.16,944.54Z" transform="translate(-36.61)"/><path d="M620.37,940v1.67h1.51v.8h-1.51v3.13c0,.72.2,1.13.79,1.13a2.6,2.6,0,0,0,.61-.07l.05.79a2.69,2.69,0,0,1-.94.14,1.5,1.5,0,0,1-1.14-.44,2.17,2.17,0,0,1-.4-1.51v-3.17h-.9v-.8h.9v-1.39Z" transform="translate(-36.61)"/><path d="M624.34,940v1.67h1.51v.8h-1.51v3.13c0,.72.2,1.13.79,1.13a2.6,2.6,0,0,0,.61-.07l0,.79a2.67,2.67,0,0,1-.93.14,1.47,1.47,0,0,1-1.14-.44,2.17,2.17,0,0,1-.41-1.51v-3.17h-.9v-.8h.9v-1.39Z" transform="translate(-36.61)"/><path d="M631.9,945.85c0,.6,0,1.13.05,1.58H631l-.06-.95h0a2.19,2.19,0,0,1-1.92,1.08c-.91,0-2-.5-2-2.54v-3.39h1.06v3.21c0,1.1.34,1.85,1.3,1.85a1.54,1.54,0,0,0,1.39-1,1.57,1.57,0,0,0,.09-.54v-3.56h1.06Z" transform="translate(-36.61)"/><path d="M633.65,943.44c0-.69,0-1.27,0-1.81h.93l0,1.14h.05a1.76,1.76,0,0,1,1.61-1.28,1.36,1.36,0,0,1,.3,0v1a1.32,1.32,0,0,0-.36,0,1.49,1.49,0,0,0-1.42,1.35,3.75,3.75,0,0,0,0,.5v3.09h-1.05Z" transform="translate(-36.61)"/><path d="M637.62,943.52c0-.74,0-1.34,0-1.89h.94l.05,1h0a2.27,2.27,0,0,1,2.06-1.13c1.4,0,2.46,1.19,2.46,3,0,2.09-1.27,3.12-2.64,3.12a2,2,0,0,1-1.79-.91h0v3.16h-1Zm1,1.55a2,2,0,0,0,.05.43,1.63,1.63,0,0,0,1.58,1.24c1.11,0,1.76-.92,1.76-2.25,0-1.16-.61-2.16-1.73-2.16a1.69,1.69,0,0,0-1.59,1.31,1.55,1.55,0,0,0-.07.43Z" transform="translate(-36.61)"/><path d="M649.31,945.85c0,.6,0,1.13.05,1.58h-.94l-.06-.95h0a2.19,2.19,0,0,1-1.92,1.08c-.91,0-2-.5-2-2.54v-3.39h1.05v3.21c0,1.1.34,1.85,1.3,1.85a1.53,1.53,0,0,0,1.39-1,1.57,1.57,0,0,0,.09-.54v-3.56h1.06Z" transform="translate(-36.61)"/><path d="M651.06,943.44c0-.69,0-1.27,0-1.81h.92l0,1.14h0a1.76,1.76,0,0,1,1.61-1.28,1.36,1.36,0,0,1,.3,0v1a1.32,1.32,0,0,0-.36,0,1.47,1.47,0,0,0-1.41,1.35,2.57,2.57,0,0,0,0,.5v3.09h-1.05Z" transform="translate(-36.61)"/><path d="M658.14,947.43l-.08-.73h0a2.13,2.13,0,0,1-1.77.86,1.65,1.65,0,0,1-1.78-1.66c0-1.41,1.25-2.18,3.49-2.16v-.12a1.2,1.2,0,0,0-1.32-1.35,2.84,2.84,0,0,0-1.51.44l-.24-.7a3.64,3.64,0,0,1,1.91-.52c1.77,0,2.21,1.22,2.21,2.38V946a8.39,8.39,0,0,0,.09,1.39Zm-.15-3c-1.15,0-2.46.18-2.46,1.31a.93.93,0,0,0,1,1,1.45,1.45,0,0,0,1.41-1,1.36,1.36,0,0,0,.06-.33Z" transform="translate(-36.61)"/><path d="M660.71,943.2c0-.6,0-1.09-.05-1.57h.93l0,.93h0a2,2,0,0,1,1.83-1.07,1.71,1.71,0,0,1,1.64,1.17h0a2.35,2.35,0,0,1,.65-.76,2,2,0,0,1,1.28-.41c.77,0,1.91.51,1.91,2.52v3.42h-1v-3.29c0-1.11-.41-1.78-1.26-1.78a1.36,1.36,0,0,0-1.25,1,1.62,1.62,0,0,0-.08.52v3.59h-1V944c0-.92-.41-1.59-1.21-1.59a1.45,1.45,0,0,0-1.31,1,1.5,1.5,0,0,0-.09.52v3.5h-1Z" transform="translate(-36.61)"/><circle class="cls-15" cx="565.84" cy="1098.95" r="7.53"/><path d="M619.11,1095.09v8.09h-1v-8.09Z" transform="translate(-36.61)"/><path d="M621,1098.94c0-.6,0-1.09,0-1.57h.94l.06,1h0a2.14,2.14,0,0,1,1.92-1.09c.81,0,2.05.48,2.05,2.47v3.47h-1.05v-3.35c0-.94-.35-1.72-1.35-1.72a1.51,1.51,0,0,0-1.41,1.08,1.55,1.55,0,0,0-.07.5v3.49H621Z" transform="translate(-36.61)"/><path d="M632.69,1094.66v7c0,.51,0,1.1,0,1.5h-.94l0-1h0a2.14,2.14,0,0,1-2,1.14c-1.4,0-2.48-1.19-2.48-3,0-1.93,1.19-3.12,2.6-3.12a2,2,0,0,1,1.76.89h0v-3.47Zm-1.05,5.07a1.65,1.65,0,0,0,0-.44,1.54,1.54,0,0,0-1.52-1.22c-1.09,0-1.74,1-1.74,2.24s.57,2.15,1.71,2.15a1.59,1.59,0,0,0,1.55-1.26,1.71,1.71,0,0,0,0-.46Z" transform="translate(-36.61)"/><path d="M635.62,1095.74a.62.62,0,0,1-.67.65.63.63,0,0,1-.63-.65.64.64,0,0,1,.66-.66A.62.62,0,0,1,635.62,1095.74Zm-1.17,7.44v-5.81h1.06v5.81Z" transform="translate(-36.61)"/><path d="M637.26,1099.18c0-.68,0-1.27,0-1.81h.92l0,1.14h.05a1.74,1.74,0,0,1,1.6-1.27,1.32,1.32,0,0,1,.3,0v1a1.71,1.71,0,0,0-.36,0,1.48,1.48,0,0,0-1.41,1.36,2.38,2.38,0,0,0-.05.49v3.1h-1Z" transform="translate(-36.61)"/><path d="M644.34,1103.18l-.09-.74h0a2.17,2.17,0,0,1-1.78.87,1.65,1.65,0,0,1-1.77-1.67c0-1.4,1.24-2.17,3.49-2.16v-.12a1.2,1.2,0,0,0-1.32-1.34,2.9,2.9,0,0,0-1.51.43l-.24-.7a3.6,3.6,0,0,1,1.9-.51c1.78,0,2.21,1.21,2.21,2.37v2.17a7.49,7.49,0,0,0,.1,1.4Zm-.16-3c-1.15,0-2.46.18-2.46,1.31a.94.94,0,0,0,1,1,1.45,1.45,0,0,0,1.4-1,1,1,0,0,0,.06-.34Z" transform="translate(-36.61)"/><path d="M649.49,1103.18v-8.09h1.13l2.6,4.09a25.61,25.61,0,0,1,1.45,2.63h0c-.1-1.08-.12-2.07-.12-3.33v-3.38h1v8.09h-1l-2.57-4.11a27.32,27.32,0,0,1-1.51-2.69h0c.06,1,.09,2,.09,3.33v3.46Z" transform="translate(-36.61)"/><path d="M660.56,1103.18l-.08-.74h0a2.16,2.16,0,0,1-1.78.87,1.65,1.65,0,0,1-1.77-1.67c0-1.4,1.25-2.17,3.49-2.16v-.12a1.19,1.19,0,0,0-1.32-1.34,2.93,2.93,0,0,0-1.51.43l-.24-.7a3.61,3.61,0,0,1,1.91-.51c1.77,0,2.2,1.21,2.2,2.37v2.17a8.44,8.44,0,0,0,.1,1.4Zm-.16-3c-1.15,0-2.46.18-2.46,1.31a.94.94,0,0,0,1,1,1.43,1.43,0,0,0,1.4-1,1,1,0,0,0,.06-.34Z" transform="translate(-36.61)"/><path d="M668.13,1097.37c0,.42,0,.89,0,1.6v3.37a3.32,3.32,0,0,1-.83,2.65,3.09,3.09,0,0,1-2.11.69,3.78,3.78,0,0,1-1.93-.48l.27-.8a3.25,3.25,0,0,0,1.7.45c1.08,0,1.87-.56,1.87-2v-.65h0a2.08,2.08,0,0,1-1.85,1,2.59,2.59,0,0,1-2.47-2.83,2.78,2.78,0,0,1,2.61-3.08,1.92,1.92,0,0,1,1.81,1h0l.05-.88Zm-1.09,2.29a1.47,1.47,0,0,0-.06-.48,1.52,1.52,0,0,0-1.48-1.11c-1,0-1.72.85-1.72,2.19,0,1.14.57,2.09,1.71,2.09a1.55,1.55,0,0,0,1.47-1.08,2.23,2.23,0,0,0,.08-.56Z" transform="translate(-36.61)"/><path d="M673.05,1103.18l-.08-.74h0a2.15,2.15,0,0,1-1.77.87,1.66,1.66,0,0,1-1.78-1.67c0-1.4,1.25-2.17,3.49-2.16v-.12a1.19,1.19,0,0,0-1.32-1.34,2.93,2.93,0,0,0-1.51.43l-.24-.7a3.63,3.63,0,0,1,1.91-.51c1.77,0,2.2,1.21,2.2,2.37v2.17a8.44,8.44,0,0,0,.1,1.4Zm-.15-3c-1.16,0-2.46.18-2.46,1.31a.93.93,0,0,0,1,1,1.45,1.45,0,0,0,1.41-1,1.35,1.35,0,0,0,.06-.34Z" transform="translate(-36.61)"/><path d="M675.62,1099.18c0-.68,0-1.27,0-1.81h.93l0,1.14h.05a1.74,1.74,0,0,1,1.61-1.27,1.39,1.39,0,0,1,.3,0v1a1.88,1.88,0,0,0-.36,0,1.49,1.49,0,0,0-1.42,1.36,3.37,3.37,0,0,0-.05.49v3.1h-1Z" transform="translate(-36.61)"/><circle class="cls-17" cx="220.28" cy="1304.63" r="7.53"/><path d="M164.11,1313.09a12.57,12.57,0,0,1,2-.15,3.34,3.34,0,0,1,2.27.67,2.17,2.17,0,0,1,.7,1.69,2.38,2.38,0,0,1-.62,1.73,3.34,3.34,0,0,1-2.47.89,3.58,3.58,0,0,1-.84-.08v3.24h-1Zm1,3.9a3.49,3.49,0,0,0,.86.09c1.26,0,2-.62,2-1.73s-.76-1.58-1.91-1.58a4.32,4.32,0,0,0-1,.08Z" transform="translate(-36.61)"/><path d="M175.13,1319.5c0,.6,0,1.13.05,1.58h-.94l-.06-.95h0a2.19,2.19,0,0,1-1.92,1.08c-.91,0-2-.5-2-2.54v-3.39h1v3.21c0,1.1.34,1.85,1.3,1.85a1.52,1.52,0,0,0,1.39-1,1.57,1.57,0,0,0,.1-.54v-3.56h1Z" transform="translate(-36.61)"/><path d="M176.23,1320.47l2.62-3.42c.25-.31.49-.59.76-.9v0h-3.14v-.85h4.42v.66l-2.59,3.37c-.24.32-.48.61-.75.91v0h3.4v.84h-4.71Z" transform="translate(-36.61)"/><path d="M182,1312.57h1.06v3.62h0a1.87,1.87,0,0,1,.76-.74,2.16,2.16,0,0,1,1.08-.3c.77,0,2,.47,2,2.48v3.45h-1.05v-3.33c0-.94-.35-1.73-1.35-1.73a1.51,1.51,0,0,0-1.41,1.06,1.26,1.26,0,0,0-.07.5v3.5H182Z" transform="translate(-36.61)"/><path d="M193.54,1319.5c0,.6,0,1.13.05,1.58h-.94l-.06-.95h0a2.19,2.19,0,0,1-1.92,1.08c-.91,0-2-.5-2-2.54v-3.39h1v3.21c0,1.1.34,1.85,1.3,1.85a1.53,1.53,0,0,0,1.39-1,1.57,1.57,0,0,0,.09-.54v-3.56h1.06Z" transform="translate(-36.61)"/><path d="M196.56,1313.61v1.67h1.52v.8h-1.52v3.13c0,.72.21,1.13.8,1.13a2.68,2.68,0,0,0,.61-.07l.05.79a2.73,2.73,0,0,1-.94.14,1.45,1.45,0,0,1-1.14-.44,2.15,2.15,0,0,1-.41-1.51v-3.17h-.9v-.8h.9v-1.39Z" transform="translate(-36.61)"/><path d="M199.27,1312.57h1v3.62h0a1.93,1.93,0,0,1,.76-.74,2.16,2.16,0,0,1,1.08-.3c.78,0,2,.47,2,2.48v3.45h-1.06v-3.33c0-.94-.35-1.73-1.34-1.73a1.51,1.51,0,0,0-1.42,1.06,1.26,1.26,0,0,0-.07.5v3.5h-1Z" transform="translate(-36.61)"/><path d="M207.1,1313.65a.62.62,0,0,1-.67.64.63.63,0,0,1-.64-.64.64.64,0,0,1,.66-.66A.62.62,0,0,1,207.1,1313.65Zm-1.18,7.43v-5.8H207v5.8Z" transform="translate(-36.61)"/><path d="M209.14,1315.28l1.14,3.26c.19.53.35,1,.47,1.49h0c.14-.48.3-1,.5-1.49l1.12-3.26h1.11l-2.28,5.8h-1l-2.21-5.8Z" transform="translate(-36.61)"/><path d="M217.67,1321.08l-.08-.73h0a2.14,2.14,0,0,1-1.77.86,1.65,1.65,0,0,1-1.78-1.66c0-1.41,1.25-2.17,3.49-2.16v-.12a1.2,1.2,0,0,0-1.32-1.35,2.84,2.84,0,0,0-1.51.44l-.24-.7a3.63,3.63,0,0,1,1.91-.51c1.77,0,2.2,1.21,2.2,2.37v2.17a8.32,8.32,0,0,0,.1,1.39Zm-.15-3c-1.16,0-2.46.18-2.46,1.31a.93.93,0,0,0,1,1,1.44,1.44,0,0,0,1.41-1,1.2,1.2,0,0,0,.06-.33Z" transform="translate(-36.61)"/><path d="M221.28,1317.94h0c.14-.2.35-.46.51-.66l1.71-2h1.27l-2.24,2.38,2.55,3.42h-1.28l-2-2.78-.54.6v2.18h-1v-8.51h1Z" transform="translate(-36.61)"/><path d="M227.12,1317.94h0c.14-.2.35-.46.52-.66l1.7-2h1.27l-2.24,2.38,2.55,3.42h-1.28l-2-2.78-.54.6v2.18h-1.05v-8.51h1.05Z" transform="translate(-36.61)"/><path d="M235.13,1321.08l-.08-.73h0a2.14,2.14,0,0,1-1.77.86,1.65,1.65,0,0,1-1.78-1.66c0-1.41,1.25-2.17,3.49-2.16v-.12a1.2,1.2,0,0,0-1.32-1.35,2.84,2.84,0,0,0-1.51.44l-.24-.7a3.63,3.63,0,0,1,1.91-.51c1.77,0,2.2,1.21,2.2,2.37v2.17a8.32,8.32,0,0,0,.1,1.39Zm-.15-3c-1.16,0-2.46.18-2.46,1.31a.93.93,0,0,0,1,1,1.44,1.44,0,0,0,1.41-1,1.2,1.2,0,0,0,.06-.33Z" transform="translate(-36.61)"/><path d="M237.7,1316.85c0-.6,0-1.09,0-1.57h.93l0,.93h0a2,2,0,0,1,1.82-1.06,1.72,1.72,0,0,1,1.65,1.16h0a2.46,2.46,0,0,1,.65-.76,2,2,0,0,1,1.28-.4c.77,0,1.91.5,1.91,2.51v3.42h-1v-3.28c0-1.12-.41-1.79-1.26-1.79a1.36,1.36,0,0,0-1.25,1,1.64,1.64,0,0,0-.08.53v3.58h-1v-3.48c0-.92-.4-1.59-1.21-1.59a1.43,1.43,0,0,0-1.3,1,1.5,1.5,0,0,0-.09.52v3.5h-1Z" transform="translate(-36.61)"/><circle class="cls-17" cx="107.34" cy="1235.42" r="7.53"/><path d="M161.5,1225.35l-.83,2.54h-1.08l2.74-8.08h1.26l2.76,8.08h-1.12l-.86-2.54Zm2.65-.81-.79-2.33c-.18-.53-.3-1-.42-1.48h0c-.12.48-.25,1-.41,1.47l-.79,2.34Z" transform="translate(-36.61)"/><path d="M172.37,1219.38v7c0,.52,0,1.11,0,1.5h-.94l0-1h0a2.15,2.15,0,0,1-2,1.13c-1.4,0-2.48-1.18-2.48-3,0-1.93,1.19-3.11,2.6-3.11a2,2,0,0,1,1.76.88h0v-3.46Zm-1.05,5.07a1.65,1.65,0,0,0,0-.44,1.54,1.54,0,0,0-1.52-1.23c-1.09,0-1.74,1-1.74,2.25s.57,2.14,1.71,2.14a1.67,1.67,0,0,0,1.6-1.71Z" transform="translate(-36.61)"/><path d="M177.34,1227.89l-.08-.73h0a2.13,2.13,0,0,1-1.77.86,1.65,1.65,0,0,1-1.78-1.66c0-1.41,1.25-2.17,3.49-2.16v-.12a1.19,1.19,0,0,0-1.32-1.34,2.84,2.84,0,0,0-1.51.43l-.24-.7A3.63,3.63,0,0,1,176,1222c1.77,0,2.21,1.21,2.21,2.37v2.17a8.39,8.39,0,0,0,.09,1.39Zm-.15-3c-1.15,0-2.46.18-2.46,1.31a.93.93,0,0,0,1,1,1.45,1.45,0,0,0,1.41-1,1.2,1.2,0,0,0,.06-.33Z" transform="translate(-36.61)"/><path d="M179.91,1223.66c0-.6,0-1.09,0-1.57h.92l.05.93h0a2,2,0,0,1,1.83-1.06,1.71,1.71,0,0,1,1.64,1.16h0a2.46,2.46,0,0,1,.65-.76,2,2,0,0,1,1.28-.4c.77,0,1.91.5,1.91,2.51v3.42h-1v-3.28c0-1.12-.41-1.79-1.26-1.79a1.36,1.36,0,0,0-1.25,1,1.69,1.69,0,0,0-.08.53v3.58h-1v-3.47c0-.93-.41-1.6-1.21-1.6a1.45,1.45,0,0,0-1.31,1.06,1.4,1.4,0,0,0-.09.51v3.5h-1Z" transform="translate(-36.61)"/><path d="M189.87,1227.89c0-.39,0-1,0-1.5v-7h1V1223h0a2.17,2.17,0,0,1,2-1.06c1.44,0,2.46,1.2,2.44,3,0,2.07-1.3,3.1-2.6,3.1a2.06,2.06,0,0,1-1.94-1.09h0l-.05,1Zm1.09-2.32a2.32,2.32,0,0,0,0,.38,1.65,1.65,0,0,0,1.59,1.24c1.1,0,1.76-.9,1.76-2.24,0-1.16-.6-2.15-1.73-2.15a1.69,1.69,0,0,0-1.61,1.29,2.34,2.34,0,0,0-.06.43Z" transform="translate(-36.61)"/><path d="M200,1227.89l-.08-.73h0a2.13,2.13,0,0,1-1.77.86,1.65,1.65,0,0,1-1.78-1.66c0-1.41,1.25-2.17,3.49-2.16v-.12a1.19,1.19,0,0,0-1.32-1.34,2.84,2.84,0,0,0-1.51.43l-.24-.7a3.63,3.63,0,0,1,1.91-.51c1.78,0,2.21,1.21,2.21,2.37v2.17a8.39,8.39,0,0,0,.09,1.39Zm-.15-3c-1.15,0-2.46.18-2.46,1.31a.93.93,0,0,0,1,1,1.45,1.45,0,0,0,1.41-1,1.2,1.2,0,0,0,.06-.33Z" transform="translate(-36.61)"/><path d="M203.58,1224.75h0c.14-.2.35-.46.52-.66l1.7-2h1.27l-2.24,2.38,2.55,3.42h-1.28l-2-2.78-.54.6v2.18h-1.05v-8.51h1.05Z" transform="translate(-36.61)"/><path d="M209.41,1224.75h0c.15-.2.35-.46.52-.66l1.7-2h1.27l-2.24,2.38,2.55,3.42H212l-2-2.78-.54.6v2.18h-1v-8.51h1Z" transform="translate(-36.61)"/><path d="M217.42,1227.89l-.08-.73h0a2.13,2.13,0,0,1-1.77.86,1.65,1.65,0,0,1-1.78-1.66c0-1.41,1.25-2.17,3.49-2.16v-.12a1.19,1.19,0,0,0-1.32-1.34,2.84,2.84,0,0,0-1.51.43l-.24-.7a3.63,3.63,0,0,1,1.91-.51c1.77,0,2.21,1.21,2.21,2.37v2.17a8.39,8.39,0,0,0,.09,1.39Zm-.15-3c-1.15,0-2.46.18-2.46,1.31a.93.93,0,0,0,1,1,1.45,1.45,0,0,0,1.41-1,1.2,1.2,0,0,0,.06-.33Z" transform="translate(-36.61)"/><path d="M220,1223.66c0-.6,0-1.09-.05-1.57h.93l0,.93h0a2,2,0,0,1,1.83-1.06,1.71,1.71,0,0,1,1.64,1.16h0a2.46,2.46,0,0,1,.65-.76,2,2,0,0,1,1.28-.4c.77,0,1.91.5,1.91,2.51v3.42h-1v-3.28c0-1.12-.41-1.79-1.26-1.79a1.36,1.36,0,0,0-1.25,1,1.69,1.69,0,0,0-.08.53v3.58h-1v-3.47c0-.93-.41-1.6-1.21-1.6a1.45,1.45,0,0,0-1.31,1.06,1.4,1.4,0,0,0-.09.51v3.5h-1Z" transform="translate(-36.61)"/><path d="M167.35,1105.26a3.68,3.68,0,0,0,1.87.53c1.07,0,1.69-.56,1.69-1.38s-.43-1.19-1.52-1.61c-1.32-.46-2.14-1.15-2.14-2.29a2.33,2.33,0,0,1,2.62-2.19,3.73,3.73,0,0,1,1.79.39l-.29.86a3.19,3.19,0,0,0-1.54-.39c-1.1,0-1.52.66-1.52,1.21,0,.76.49,1.13,1.61,1.56,1.36.53,2.06,1.19,2.06,2.38s-.92,2.32-2.83,2.32a4.14,4.14,0,0,1-2.06-.51Z" transform="translate(-36.61)"/><path d="M174.61,1099.06v1.67h1.51v.8h-1.51v3.13c0,.72.2,1.13.79,1.13a2.6,2.6,0,0,0,.61-.07l.05.79a2.69,2.69,0,0,1-.94.14,1.43,1.43,0,0,1-1.13-.44,2.15,2.15,0,0,1-.41-1.51v-3.17h-.9v-.8h.9v-1.39Z" transform="translate(-36.61)"/><path d="M177,1105.91a.72.72,0,0,1,.72-.76.76.76,0,1,1-.72.76Z" transform="translate(-36.61)"/><path d="M183.38,1099.34h-2.46v-.89h6v.89h-2.47v7.19h-1.06Z" transform="translate(-36.61)"/><path d="M187.69,1098h1.06v3.62h0a2,2,0,0,1,.75-.74,2.22,2.22,0,0,1,1.08-.3c.78,0,2,.48,2,2.48v3.45h-1v-3.33c0-.94-.35-1.73-1.35-1.73a1.51,1.51,0,0,0-1.41,1.06,1.26,1.26,0,0,0-.07.5v3.5h-1.06Z" transform="translate(-36.61)"/><path d="M199.6,1103.58a2.84,2.84,0,0,1-2.89,3.09,2.76,2.76,0,0,1-2.78-3,2.83,2.83,0,0,1,2.88-3.08A2.74,2.74,0,0,1,199.6,1103.58Zm-4.6.06c0,1.28.73,2.23,1.76,2.23s1.76-.94,1.76-2.25c0-1-.49-2.23-1.74-2.23S195,1102.54,195,1103.64Z" transform="translate(-36.61)"/><path d="M200.94,1102.3c0-.6,0-1.09-.05-1.57h.92l.05.94h0a2,2,0,0,1,1.82-1.07,1.71,1.71,0,0,1,1.64,1.16h0a2.46,2.46,0,0,1,.65-.76,2,2,0,0,1,1.28-.4c.77,0,1.91.5,1.91,2.52v3.41h-1v-3.28c0-1.12-.4-1.79-1.26-1.79a1.35,1.35,0,0,0-1.24,1,1.68,1.68,0,0,0-.09.53v3.58h-1v-3.47c0-.93-.41-1.6-1.21-1.6a1.45,1.45,0,0,0-1.31,1.06,1.4,1.4,0,0,0-.08.51v3.5h-1Z" transform="translate(-36.61)"/><path d="M214.16,1106.53l-.08-.73h0a2.15,2.15,0,0,1-1.77.87,1.66,1.66,0,0,1-1.78-1.67c0-1.4,1.25-2.17,3.49-2.16v-.12a1.19,1.19,0,0,0-1.32-1.34,2.84,2.84,0,0,0-1.51.43l-.24-.7a3.63,3.63,0,0,1,1.91-.51c1.77,0,2.2,1.21,2.2,2.37v2.17a8.24,8.24,0,0,0,.1,1.39Zm-.16-3c-1.15,0-2.45.18-2.45,1.31a.93.93,0,0,0,1,1,1.43,1.43,0,0,0,1.4-1,1,1,0,0,0,.06-.34Z" transform="translate(-36.61)"/><path d="M216.59,1105.45a2.69,2.69,0,0,0,1.39.42c.77,0,1.12-.38,1.12-.86s-.3-.78-1.07-1.07c-1.05-.37-1.54-.94-1.54-1.64a1.79,1.79,0,0,1,2-1.7,2.81,2.81,0,0,1,1.43.36l-.26.76a2.32,2.32,0,0,0-1.19-.33c-.62,0-1,.36-1,.79s.35.7,1.1,1c1,.39,1.52.89,1.52,1.76s-.79,1.73-2.17,1.73a3.33,3.33,0,0,1-1.63-.39Z" transform="translate(-36.61)"/><path d="M230.87,1103c-.06-1.12-.13-2.48-.12-3.49h0c-.28,1-.61,2-1,3.07l-1.43,3.93h-.79l-1.31-3.85c-.38-1.14-.7-2.19-.93-3.15h0c0,1-.08,2.37-.15,3.58l-.22,3.46h-1l.56-8.08h1.33l1.38,3.91c.34,1,.61,1.88.82,2.72h0c.21-.81.49-1.7.85-2.72l1.44-3.91h1.33l.51,8.08h-1Z" transform="translate(-36.61)"/><path d="M239,1103.58a2.84,2.84,0,0,1-2.89,3.09,2.76,2.76,0,0,1-2.78-3,2.83,2.83,0,0,1,2.87-3.08A2.75,2.75,0,0,1,239,1103.58Zm-4.61.06c0,1.28.73,2.23,1.77,2.23s1.76-.94,1.76-2.25c0-1-.49-2.23-1.74-2.23S234.39,1102.54,234.39,1103.64Z" transform="translate(-36.61)"/><path d="M245.19,1105c0,.6,0,1.13.05,1.58h-.94l-.06-.94h0a2.21,2.21,0,0,1-1.92,1.08c-.91,0-2-.51-2-2.55v-3.39h1v3.21c0,1.11.34,1.85,1.3,1.85a1.52,1.52,0,0,0,1.39-1,1.57,1.57,0,0,0,.1-.54v-3.56h1.05Z" transform="translate(-36.61)"/><path d="M247,1102.3c0-.6,0-1.09,0-1.57h.93l.06,1h0a2.13,2.13,0,0,1,1.92-1.09c.8,0,2,.48,2,2.47v3.46h-1.06v-3.34c0-.94-.35-1.72-1.34-1.72a1.5,1.5,0,0,0-1.42,1.08,1.45,1.45,0,0,0-.07.49v3.49H247Z" transform="translate(-36.61)"/><path d="M254.83,1099.06v1.67h1.51v.8h-1.51v3.13c0,.72.2,1.13.79,1.13a2.6,2.6,0,0,0,.61-.07l0,.79a2.69,2.69,0,0,1-.94.14,1.47,1.47,0,0,1-1.14-.44,2.15,2.15,0,0,1-.4-1.51v-3.17h-.9v-.8h.9v-1.39Z" transform="translate(-36.61)"/><circle class="cls-15" cx="478.81" cy="1258.61" r="7.53"/><path d="M311.65,1386.94l-2.64-8.08h1.13l1.26,4c.35,1.09.65,2.07.86,3h0c.22-.94.56-1.95.92-3l1.37-4h1.11l-2.89,8.08Z" transform="translate(-36.61)"/><path d="M316.73,1384.23a1.85,1.85,0,0,0,2,2,3.83,3.83,0,0,0,1.61-.3l.18.76a4.72,4.72,0,0,1-1.94.36,2.7,2.7,0,0,1-2.85-2.93c0-1.75,1-3.13,2.72-3.13a2.46,2.46,0,0,1,2.4,2.74,4.88,4.88,0,0,1,0,.49Zm3.09-.76a1.5,1.5,0,0,0-1.46-1.71,1.74,1.74,0,0,0-1.62,1.71Z" transform="translate(-36.61)"/><path d="M322.15,1378.42h1.06v8.52h-1.06Z" transform="translate(-36.61)"/><path d="M328.2,1386.94l-.09-.73h0a2.19,2.19,0,0,1-1.78.86,1.65,1.65,0,0,1-1.77-1.67c0-1.4,1.25-2.17,3.49-2.15v-.13a1.2,1.2,0,0,0-1.32-1.34,2.93,2.93,0,0,0-1.51.43l-.24-.69a3.6,3.6,0,0,1,1.9-.52c1.78,0,2.21,1.21,2.21,2.38v2.17a8.4,8.4,0,0,0,.1,1.39Zm-.16-3c-1.15,0-2.46.18-2.46,1.3a.94.94,0,0,0,1,1,1.45,1.45,0,0,0,1.4-1,1,1,0,0,0,.06-.34Z" transform="translate(-36.61)"/><path d="M334.91,1386.72a3.81,3.81,0,0,1-1.67.34,2.76,2.76,0,0,1-2.89-3,3,3,0,0,1,3.12-3.09,3.6,3.6,0,0,1,1.46.3l-.24.82a2.48,2.48,0,0,0-1.22-.28,2.19,2.19,0,0,0,0,4.37,3,3,0,0,0,1.3-.29Z" transform="translate(-36.61)"/><path d="M336.14,1378.42h1.06v3.63h0a2,2,0,0,1,.76-.75,2.16,2.16,0,0,1,1.08-.3c.78,0,2,.48,2,2.49v3.45H340v-3.33c0-.94-.35-1.73-1.34-1.73a1.52,1.52,0,0,0-1.42,1,1.31,1.31,0,0,0-.07.51v3.5h-1.06Z" transform="translate(-36.61)"/><path d="M343.39,1384.23a1.86,1.86,0,0,0,2,2,3.8,3.8,0,0,0,1.61-.3l.18.76a4.67,4.67,0,0,1-1.93.36,2.7,2.7,0,0,1-2.86-2.93c0-1.75,1-3.13,2.73-3.13a2.47,2.47,0,0,1,2.4,2.74,4.35,4.35,0,0,1,0,.49Zm3.1-.76a1.5,1.5,0,0,0-1.47-1.71,1.76,1.76,0,0,0-1.62,1.71Z" transform="translate(-36.61)"/><path d="M348.82,1383c0-.69,0-1.28-.05-1.82h.92l0,1.14h0a1.75,1.75,0,0,1,1.61-1.27.91.91,0,0,1,.3,0v1a1.86,1.86,0,0,0-.36,0,1.47,1.47,0,0,0-1.41,1.35,2.57,2.57,0,0,0-.05.5v3.09h-1Z" transform="translate(-36.61)"/><path d="M353.42,1381.13l1.27,3.43c.14.39.28.84.38,1.19h0c.11-.35.23-.79.37-1.21l1.15-3.41h1.12l-1.58,4.14c-.76,2-1.28,3-2,3.64a2.9,2.9,0,0,1-1.29.68l-.26-.89a2.77,2.77,0,0,0,.92-.51,3.22,3.22,0,0,0,.89-1.18,1,1,0,0,0,.08-.25.91.91,0,0,0-.07-.28l-2.15-5.35Z" transform="translate(-36.61)"/></g></svg>