<?xml version="1.0" encoding="UTF-8" standalone="no"?>
<!-- Created with Inkscape (http://www.inkscape.org/) -->

<svg
   id="Layer_1"
   stroke-linejoin="round"
   stroke-linecap="round"
   viewBox="0 0 900 1300"
   height="100%"
   width="100%"
   version="1.2"
   sodipodi:docname="chhattisgarh.svg"
   inkscape:version="1.1 (c68e22c387, 2021-05-23)"
   inkscape:export-filename="C:\Users\ACER-LSC\Desktop\mp\chhattisgarh.png"
   inkscape:export-xdpi="300"
   inkscape:export-ydpi="300"
   xmlns:inkscape="http://www.inkscape.org/namespaces/inkscape"
   xmlns:sodipodi="http://sodipodi.sourceforge.net/DTD/sodipodi-0.dtd"
   xmlns="http://www.w3.org/2000/svg"
   xmlns:svg="http://www.w3.org/2000/svg">
  <defs
     id="defs96" />
  <sodipodi:namedview
     id="namedview94"
     pagecolor="#ffffff"
     bordercolor="#666666"
     borderopacity="1.0"
     inkscape:pageshadow="2"
     inkscape:pageopacity="0.0"
     inkscape:pagecheckerboard="0"
     showgrid="false"
     inkscape:zoom="0.63384615"
     inkscape:cx="450.42476"
     inkscape:cy="524.57525"
     inkscape:window-width="1920"
     inkscape:window-height="1009"
     inkscape:window-x="-8"
     inkscape:window-y="-8"
     inkscape:window-maximized="1"
     inkscape:current-layer="Layer_1" />
  <g
     id="Chhattisgarh"
     transform="translate(50,36)">
    <path
       data-id="ch-7"
       id="7"
       d="m 594.0517,1 11.2529,0.3492 3.3461,3.5772 5.0867,-0.9421 3.7527,8.3033 12.3572,3.3167 -0.1051,8.6857 6.2366,8.4411 1.2263,7.735 3.0012,5.1794 18.7207,5.1785 10.6083,10.6529 2.9101,5.0491 0.961,10.7036 -3.8015,3.6447 7.3541,6.5807 2.7299,5.7378 -1.5082,4.9828 4.3397,3.6475 -1.3233,6.6776 -10.0392,-1.5912 0.9812,8.974 -4.6796,3.1689 -11.0693,-2.6107 -4.9567,8.1426 -16.5177,7.169 -8.3818,-1.889 -10.2595,-5.7553 -3.9232,7.026 -4.8583,-4.0999 4.0789,-8.6966 4.7905,-0.5321 0.4144,-9.2363 -8.4903,5.5256 -28.3911,0.2561 -0.5831,-5.6129 7.6029,-4.2439 7.713,0.2963 1.6678,-2.8862 9.8323,-1.3959 -1.78,-8.6832 6.8356,-6.6581 0.6931,-8.6558 -12.0698,-9.4072 2.1331,-6.8008 -6.2794,-2.3633 -0.1118,-6.4097 3.258,-7.4155 -6.952,-4.5664 -14.3727,5.1243 -6.1492,0.18 2.3033,-21.7643 2.9554,-3.732 7.7407,-2.3553 3.0645,-10.3565 z"
       style="fill:#ffffff"
       stroke="#bbbbbb"
       ac-name="Ramanujganj (ST)" />
    <path
       data-id="ch-6"
       id="6"
       d="m 599.8788,113.7953 2.2922,16.6446 -7.2759,2.9359 -4.5485,9.4932 -13.7719,-6.8462 -4.8685,16.3856 2.0479,5.7488 -3.3826,1.2064 -3.1655,7.929 -4.1467,-7.9089 -10.5296,-5.3637 -1.0997,5.1407 -5.7356,3.288 -8.6717,-0.4335 -0.041,-5.2153 6.2572,0.5496 1.2781,-5.696 -7.4565,-6.2157 -2.4272,-13.7734 6.7323,-4.0825 -4.533,-6.0104 -7.0633,-16.5591 10.6366,-1.9866 -7.759,-16.0357 -26.263,-6.56 -6.9491,-9.0082 4.0275,-4.9769 -5.7742,-7.493 -8.9367,-5.0465 -2.9272,-11.0099 -11.137,-2.0214 -2.2222,-4.9304 9.7128,-0.1278 9.981,-7.8878 5.2741,-0.2464 10.9379,10.2967 8.5742,3.4403 4.4975,3.9133 19.4657,-1.699 4.2357,1.7981 12.7295,-2.829 3.5056,-4.3622 5.9195,-1.8955 4.0347,8.509 6.1492,-0.18 14.3727,-5.1243 6.952,4.5664 -3.258,7.4155 0.1118,6.4097 6.2794,2.3633 -2.1331,6.8008 12.0698,9.4072 -0.6931,8.6558 -6.8356,6.6581 1.78,8.6832 -9.8323,1.3959 -1.6678,2.8862 -7.713,-0.2963 -7.6029,4.2439 0.5831,5.6129 z"
       style="fill:#ffffff"
       stroke="#bbbbbb"
       ac-name="Pratappur (ST)" />
    <path
       data-id="ch-1"
       id="1"
       d="m 433.7748,61.6523 0.8767,4.8223 7.2132,-0.1287 11.1171,13.2656 1.423,5.9021 -5.5476,6.7872 0.3657,7.9481 2.5943,10.0404 10.0098,6.2147 2.5139,10.8673 -0.6975,7.0591 -4.3152,0.0319 -6.8948,7.8098 -15.2503,0.3205 -9.6585,5.6634 -4.7206,-1.372 -8.688,7.9889 1.0664,4.126 -6.1753,3.2627 -7.8634,3.0536 -12.405,1.2638 -4.7061,4.1417 4.3724,4.4074 -5.3695,2.8614 -7.2057,-5.047 -5.792,1.5995 -3.0463,-4.1255 4.924,-9.306 3.5731,-1.625 1.2291,-7.0684 -6.8933,-4.0177 -3.2668,-5.0156 -6.9657,-0.4239 -1.138,-6.7031 -9.3948,4.0433 -6.4988,-2.0925 2.128,-4.2973 -8.7045,-0.7939 -1.3843,-6.4463 -4.8099,-3.7422 0.5382,-6.4988 -7.8232,-6.6004 -7.8684,4.2867 -10.7632,-0.5149 -2.204,-6.5129 -16.0096,-1.4619 -4.8889,6.739 -6.0003,-2.0771 -2.8021,6.6797 -5.2159,1.3722 -2.9563,-3.9726 -0.3109,-8.4777 -5.0866,0.3289 -1.2856,-6.0182 6.73,-1.8955 1.6116,-10.7336 6.6879,-2.2648 5.6044,-5.4046 2.2612,-5.7992 -2.779,-6.2537 -7.0502,-3.0798 1.2844,-5.6795 -3.1438,-6.8692 -6.0268,-4.6982 1.2565,-8.5922 9.2014,-2.3594 5.7131,2.0357 0.544,4.1133 7.8333,5.2408 1.1071,3.4245 9.7542,5.5108 5.2087,0.8097 10.0516,-5.3144 6.0576,-1.2796 4.361,-5.81 7.0091,3.6032 9.7435,-1.7278 6.83,3.6961 1.7598,4.4526 17.0727,0.5427 12.3321,-2.2535 4.8805,4.2785 5.5196,-3.0391 14.2331,3.5933 8.1337,-1.6326 3.1736,2.1413 16.45,-1.1636 z"
       style="fill:#ffffff"
       stroke="#bbbbbb"
       ac-name="Bharatpur-Sonhat (ST)" />
    <path
       data-id="ch-5"
       id="5"
       d="m 472.465,35.9438 2.2222,4.9304 11.137,2.0214 2.9272,11.0099 8.9367,5.0465 5.7742,7.493 -4.0275,4.9769 6.9491,9.0082 26.263,6.56 7.759,16.0357 -10.6366,1.9866 7.0633,16.5591 4.533,6.0104 -6.7323,4.0825 2.4272,13.7734 7.4565,6.2157 -1.2781,5.696 -6.2572,-0.5496 0.041,5.2153 8.6717,0.4335 5.7356,-3.288 1.0997,-5.1407 10.5296,5.3637 4.1467,7.9089 3.1655,-7.929 3.3826,-1.2064 -3.6038,6.9296 2.1024,4.3064 6.9988,2.587 -10.6641,4.6444 -8.5789,-5.3497 -1.9436,13.171 5.3605,10.8004 -6.0712,0.9722 -1.1205,-4.8034 -17.9171,-0.1896 -3.0313,-7.0998 -7.3233,2.0196 -4.9524,-1.4897 1.5793,-13.2756 -1.828,-6.9147 -7.4508,-4.2276 -2.621,-7.4575 -14.7606,1.5662 -2.5688,4.8007 -9.5593,4.4035 -4.2765,-2.8851 2.4071,-6.1019 -1.566,-9.9254 -13.9898,-3.0951 -4.7318,-7.1127 0.6975,-7.0591 -2.5139,-10.8673 -10.0098,-6.2147 -2.5943,-10.0404 -0.3657,-7.9481 5.5476,-6.7872 -1.423,-5.9021 -11.1171,-13.2656 -7.2132,0.1287 -0.8767,-4.8223 5.4714,0.4094 5.7264,-8.1614 7.0287,0.7904 8.622,-2.9804 6.3296,-6.5585 -1.3477,-6.9072 z"
       style="fill:#ffffff"
       stroke="#bbbbbb"
       ac-name="Bhatgaon" />
    <path
       data-id="ch-8"
       id="8"
       d="m 730.1379,179.9139 -3.6536,-3.3881 -8.8506,0.7383 -5.5533,3.623 -11.2559,-4.3526 -11.2556,-10.5827 -6.7012,-1.4005 -2.2772,4.8262 -6.0365,-3.5114 -4.9196,5.7076 -9.7667,-3.4056 -10.2549,2.753 -3.3101,5.2214 -5.0999,-0.7616 -3.9663,3.6987 -8.4318,-12.6145 -14.4398,-1.0767 -5.3233,-2.6193 -7.4455,1.3403 0.1108,11.3177 -6.2297,3.0565 -14.9063,-2.9263 -1.3194,-3.5771 -6.9988,-2.587 -2.1024,-4.3064 3.6038,-6.9296 -2.0479,-5.7488 4.8685,-16.3856 13.7719,6.8462 4.5485,-9.4932 7.2759,-2.9359 -2.2922,-16.6446 8.4077,0.3004 8.4903,-5.5256 -0.4144,9.2363 -4.7905,0.5321 -4.0789,8.6966 4.8583,4.0999 3.9232,-7.026 10.2595,5.7553 8.3818,1.889 16.5177,-7.169 4.9567,-8.1426 11.0693,2.6107 4.6796,-3.1689 -0.9812,-8.974 10.0392,1.5912 1.3233,-6.6776 6.9382,-2.5799 21.4321,4.1494 -1.1773,-9.8343 14.6436,-0.512 4.2664,4.3141 -0.3804,10.4535 -2.5884,8.1447 -7.7322,8.3001 2.2275,6.6415 -3.5938,7.3056 2.5462,4.4151 5.8307,1.996 2.3933,-4.5019 5.2637,0.5615 4.6452,7.9132 -4.0316,16.824 1.8226,7.7715 z"
       style="fill:#ffffff"
       stroke="#bbbbbb"
       ac-name="Samri (ST)" />
    <path
       data-id="ch-3"
       id="3"
       d="m 485.8004,163.5506 -13.5023,2.1806 -6.1842,7.2738 -2.8975,9.5417 -13.8751,5.6154 1.8972,5.6319 -0.2655,9.3033 3.9466,5.4259 -5.9851,10.8581 -2.5831,-2.1486 -20.3962,1.84 -7.6801,-1.4821 -1.2571,-2.8818 2.5393,-2.071 -3.1773,-18.5917 5.5097,-3.8253 -4.3363,-6.0238 4.4202,-4.6305 0.1065,-7.0691 -12.5932,-0.5381 -0.4798,-9.6977 6.1753,-3.2627 -1.0664,-4.126 8.688,-7.9889 4.7206,1.372 9.6585,-5.6634 15.2503,-0.3205 6.8948,-7.8098 4.3152,-0.0319 4.7318,7.1127 13.9898,3.0951 1.566,9.9254 -2.4071,6.1019 z"
       style="fill:#ffffff"
       stroke="#bbbbbb"
       ac-name="Baikunthpur" />
    <path
       data-id="ch-4"
       id="4"
       d="m 485.8004,163.5506 9.5593,-4.4035 2.5688,-4.8007 14.7606,-1.5662 2.621,7.4575 7.4508,4.2276 1.828,6.9147 -1.5793,13.2756 4.9524,1.4897 7.3233,-2.0196 3.0313,7.0998 -0.2532,5.7761 -6.6864,5.6449 -5.9601,0.6539 -3.0611,-6.3224 -6.5753,-5.6799 -10.0542,1.2954 -4.3183,8.4775 11.5042,-0.2267 4.1071,5.1308 -8.2756,3.5098 -8.6682,1.3155 4.1546,4.6345 -6.5089,9.7089 -5.7956,0.5921 0.5083,11.283 -4.7516,0.6099 -2.5574,5.4097 0.9087,10.0732 -10.5554,-8.3916 -11.7324,4.7177 -18.4278,-7.2828 6.4041,-11.6393 -3.0552,-1.0303 0.2676,-10.1041 5.9851,-10.8581 -3.9466,-5.4259 0.2655,-9.3033 -1.8972,-5.6319 13.8751,-5.6154 2.8975,-9.5417 6.1842,-7.2738 z"
       style="fill:#ffffff"
       stroke="#bbbbbb"
       ac-name="Premnagar" />
    <path
       data-id="ch-9"
       id="9"
       d="m 630.1387,194.6912 -3.7256,-1.9362 -5.4383,9.428 -9.1872,8.0245 -10.2968,-0.3386 -16.6217,8.7016 -8.4615,2.0283 -5.8397,4.9069 -9.4527,0.1221 2.7117,6.9481 -4.9169,5.8557 -2.4654,6.7171 4.6621,5.0427 -0.2439,7.0058 0.0241,4.2255 -7.6676,6.2736 -3.8897,0.8327 -5.4137,-6.0474 3.6479,-4.8157 -7.9938,-2.6199 -1.209,-11.5222 -4.7664,-3.9097 -1.1445,-6.7954 1.648,-13.317 7.9008,7.652 7.5429,-10.0271 -2.8368,-4.5962 3.3522,-4.594 13.9141,-3.518 4.4185,-3.4301 15.4414,-4.9286 -9.9648,-12.2341 -4.041,2.6618 -11.7605,-2.0415 1.9436,-13.171 8.5789,5.3497 10.6641,-4.6444 1.3194,3.5771 14.9063,2.9263 6.2297,-3.0565 -0.1108,-11.3177 7.4455,-1.3403 5.3233,2.6193 14.4398,1.0767 8.4318,12.6145 0.321,9.5849 z"
       style="fill:#ffffff"
       stroke="#bbbbbb"
       ac-name="Lundra (ST)" />
    <path
       data-id="ch-2"
       id="2"
       d="m 409.0071,162.2616 0.4798,9.6977 12.5932,0.5381 -0.1065,7.0691 -4.4202,4.6305 4.3363,6.0238 -5.5097,3.8253 3.1773,18.5917 -2.5393,2.071 -9.0528,-1.7061 -6.7433,6.0602 -8.2976,1.3834 -4.6732,4.1586 -8.3443,-1.2975 -7.4299,-4.8397 1.5086,-8.56 -1.8861,-5.8307 -10.1349,-11.3306 3.3861,-5.4097 1.6409,-16.9202 3.0463,4.1255 5.792,-1.5995 7.2057,5.047 5.3695,-2.8614 -4.3724,-4.4074 4.7061,-4.1417 12.405,-1.2638 z"
       style="fill:#ffffff"
       stroke="#bbbbbb"
       ac-name="Manendragarh" />
    <path
       data-id="ch-12"
       id="12"
       d="m 730.1379,179.9139 -0.1158,5.8113 6.7777,6.0334 4.0458,-0.6736 7.6897,5.6824 -1.5307,9.0034 4.0623,8.633 5.7111,2.7739 0.8072,-9.4279 7.4463,9.0444 10.4741,-0.9757 1.8321,3.8222 8.7491,-3.6228 8.5963,0.6634 4.3169,7.7268 -4.6003,14.2628 -6.9733,0.5457 -3.8115,11.7494 -4.7117,3.6312 -15.3246,-9.4351 -13.9325,0.2764 3.1921,8.1729 -2.37,2.2641 -8.4627,-7.7149 -6.4867,-2.6581 -0.1392,-7.3133 -8.5616,-6.6369 -8.3957,-2.6274 -4.2701,0.7219 -10.6327,-5.8529 -0.809,4.4063 -8.8596,0.5308 1.1488,6.5208 -2.2168,6.1462 -9.9736,3.0877 -10.4793,-8.8422 -14.5691,-0.4207 -5.644,2.7551 -1.7567,5.0974 -5.301,-1.3544 -4.931,-7.942 -6.9454,-4.6658 -5.695,-7.4494 1.6328,-6.0215 7.2618,-9.3265 -4.8326,-4.8833 -1.4111,-6.7412 7.4188,-6.0267 -0.321,-9.5849 3.9663,-3.6987 5.0999,0.7616 3.3101,-5.2214 10.2549,-2.753 9.7667,3.4056 4.9196,-5.7076 6.0365,3.5114 2.2772,-4.8262 6.7012,1.4005 11.2556,10.5827 11.2559,4.3526 5.5533,-3.623 8.8506,-0.7383 z"
       style="fill:#ffffff"
       stroke="#bbbbbb"
       ac-name="Jashpur (ST)" />
    <path
       data-id="ch-10"
       id="10"
       d="m 553.2193,267.6963 -0.3778,8.2201 -9.6888,0.4734 -9.7897,5.8563 -4.5934,-5.1806 -9.4943,-2.5324 -2.2117,-3.5113 -12.6055,-10.5135 -5.9148,1.3656 -11.5197,-5.3868 -0.99,-3.3754 -0.9087,-10.0732 2.5574,-5.4097 4.7516,-0.6099 -0.5083,-11.283 5.7956,-0.5921 6.5089,-9.7089 -4.1546,-4.6345 8.6682,-1.3155 8.2756,-3.5098 -4.1071,-5.1308 -11.5042,0.2267 4.3183,-8.4775 10.0542,-1.2954 6.5753,5.6799 3.0611,6.3224 5.9601,-0.6539 6.6864,-5.6449 0.2532,-5.7761 17.9171,0.1896 1.1205,4.8034 6.0712,-0.9722 -5.3605,-10.8004 11.7605,2.0415 4.041,-2.6618 9.9648,12.2341 -15.4414,4.9286 -4.4185,3.4301 -13.9141,3.518 -3.3522,4.594 2.8368,4.5962 -7.5429,10.0271 -7.9008,-7.652 -1.648,13.317 1.1445,6.7954 4.7664,3.9097 1.209,11.5222 7.9938,2.6199 -3.6479,4.8157 5.4137,6.0474 z"
       style="fill:#ffffff"
       stroke="#bbbbbb"
       ac-name="Ambikapur" />
    <path
       data-id="ch-24"
       id="24"
       d="m 361.9645,192.7464 10.1349,11.3306 1.8861,5.8307 -1.5086,8.56 7.4299,4.8397 -12.1287,15.4869 1.1964,9.5215 -1.9533,14.1128 3.3699,3.264 1.333,11.1939 12.7402,2.3335 -1.19,12.062 -4.9463,-0.9004 -5.0938,6.8925 -4.7416,3.0653 -1.4536,-8.4154 -3.2379,-4.8256 -9.3612,-1.5047 -3.1448,6.8418 -13.5826,-2.0309 2.0789,-6.6996 -5.1599,-5.0203 1.7615,-5.068 -5.1074,-1.7597 0.6411,-5.7544 -5.8216,-9.6049 -4.7063,-3.3679 -4.1871,7.569 -23.1587,1.6531 4.8429,-4.7467 -2.3696,-8.4731 -3.9174,-3.7484 2.7188,-8.4812 16.4993,-2.8596 11.1605,-11.106 5.1344,-1.9063 0.7743,-5.0088 -5.3394,-11.3954 4.5073,-6.2469 8.7164,-2.1789 8.5158,0.9932 6.8925,-7.1802 z"
       style="fill:#ffffff"
       stroke="#bbbbbb"
       ac-name="Marwahi (ST)" />
    <path
       data-id="ch-11"
       id="11"
       d="m 650.3602,243.0753 4.4396,2.9899 2.4516,9.5971 -4.0708,14.9051 8.4154,3.4876 1.0997,7.046 -5.6086,2.7205 -2.8755,-5.3592 -17.4118,-7.3518 -8.886,7.1301 -13.774,-3.0182 -4.3582,6.9839 -5.1899,-2.8008 1.7393,-15.7037 -8.0415,0.9968 -3.597,-5.6681 -14.2585,-1.6676 -7.8537,-2.5047 -11.7175,2.339 0.2439,-7.0058 -4.6621,-5.0427 2.4654,-6.7171 4.9169,-5.8557 -2.7117,-6.9481 9.4527,-0.1221 5.8397,-4.9069 8.4615,-2.0283 16.6217,-8.7016 10.2968,0.3386 9.1872,-8.0245 5.4383,-9.428 3.7256,1.9362 1.4111,6.7412 4.8326,4.8833 -7.2618,9.3265 -1.6328,6.0215 5.695,7.4494 6.9454,4.6658 4.931,7.942 z"
       style="fill:#ffffff"
       stroke="#bbbbbb"
       ac-name="Sitapur (ST)" />
    <path
       data-id="ch-23"
       id="23"
       d="m 417.018,214.7088 1.2571,2.8818 7.6801,1.4821 20.3962,-1.84 2.5831,2.1486 -0.2676,10.1041 3.0552,1.0303 -6.4041,11.6393 18.4278,7.2828 11.7324,-4.7177 10.5554,8.3916 0.99,3.3754 11.5197,5.3868 -0.614,3.3833 -6.9267,1.9613 -2.1398,3.3839 -9.1311,-1.3278 -9.1234,2.5833 0.4744,8.9134 -7.1809,-0.0242 -1.9666,14.7443 -6.1062,-0.1729 -2.8172,5.3132 -10.064,4.4105 -5.1207,10.5727 -9.0522,11.6255 10.712,11.6512 -0.0319,5.5747 -14.9953,0.7164 -6.4285,-4.2848 -0.8006,8.5017 -5.8999,-2.2229 -5.2864,-5.2221 -5.0465,0.7511 -2.8448,4.4791 -4.3001,2.6282 -4.9263,-2.2081 1.0651,-7.0372 -10.1471,-0.8293 -3.0734,4.2938 -9.3703,-2.4661 0.6068,-9.1485 5.4308,-6.279 -2.9142,-6.238 -5.5691,-2.3066 4.4135,-9.0615 -0.8761,-8.1931 4.7416,-3.0653 5.0938,-6.8925 4.9463,0.9004 1.19,-12.062 -12.7402,-2.3335 -1.333,-11.1939 -3.3699,-3.264 1.9533,-14.1128 -1.1964,-9.5215 12.1287,-15.4869 8.3443,1.2975 4.6732,-4.1586 8.2976,-1.3834 6.7433,-6.0602 z"
       style="fill:#ffffff"
       stroke="#bbbbbb"
       ac-name="Pali-Tanakhar (ST)" />
    <path
       data-id="ch-13"
       id="13"
       d="m 778.9032,254.5972 -11.518,8.01 0.3739,7.9841 -2.0234,5.8239 -4.6119,0.5732 -8.7893,5.5447 -13.2708,-0.2626 -5.7918,7.7581 -5.6807,1.2158 -8.5226,17.1458 12.9365,6.2394 -0.0176,5.9958 -6.5237,7.765 -1.5878,4.5992 -6.6272,2.9567 -12.3339,1.4704 -16.1074,7.2915 -3.9177,4.5319 -7.8522,-6.7829 -4.6013,-10.0072 6.3576,-5.8323 -1.6749,-2.7291 1.2258,-10.9477 4.8319,-10.0387 5.7629,-0.9663 7.4981,-7.6594 13.2657,-0.5182 0.6699,-9.7214 4.019,-4.9868 -9.785,-6.3733 -8.344,0.8461 -2.452,-8.1582 0.2112,-6.1172 -7.3294,1.1901 -3.9483,-3.3235 -1.3208,-6.7748 1.3853,-5.8536 9.9736,-3.0877 2.2168,-6.1462 -1.1488,-6.5208 8.8596,-0.5308 0.809,-4.4063 10.6327,5.8529 4.2701,-0.7219 8.3957,2.6274 8.5616,6.6369 0.1392,7.3133 6.4867,2.6581 8.4627,7.7149 2.37,-2.2641 -3.1921,-8.1729 13.9325,-0.2764 z"
       style="fill:#ffffff"
       stroke="#bbbbbb"
       ac-name="Kunkuri (ST)" />
    <path
       data-id="ch-14"
       id="14"
       d="m 682.8093,244.4857 -1.3853,5.8536 1.3208,6.7748 3.9483,3.3235 7.3294,-1.1901 -0.2112,6.1172 2.452,8.1582 8.344,-0.8461 9.785,6.3733 -4.019,4.9868 -0.6699,9.7214 -13.2657,0.5182 -7.4981,7.6594 -5.7629,0.9663 -4.8319,10.0387 -1.2258,10.9477 1.6749,2.7291 -6.3576,5.8323 -9.0676,0.3 -8.1328,-3.0371 -0.7317,-2.9976 -13.2525,-10.175 3.8035,-14.181 -5.1667,-1.6755 -4.8685,4.9955 -9.6969,4.6657 -6.1095,-3.831 -12.3308,-8.8083 2.5311,-4.1189 0.3677,-11.3805 4.3582,-6.9839 13.774,3.0182 8.886,-7.1301 17.4118,7.3518 2.8755,5.3592 5.6086,-2.7205 -1.0997,-7.046 -8.4154,-3.4876 4.0708,-14.9051 -2.4516,-9.5971 -4.4396,-2.9899 1.7567,-5.0974 5.644,-2.7551 14.5691,0.4207 z"
       style="fill:#ffffff"
       stroke="#bbbbbb"
       ac-name="Pathalgaon (ST)" />
    <path
       data-id="ch-25"
       id="25"
       d="m 368.4926,300.3394 0.8761,8.1931 -4.4135,9.0615 5.5691,2.3066 2.9142,6.238 -5.4308,6.279 -0.6068,9.1485 1.7099,3.8029 9.1378,7.1557 -10.5352,1.7873 -6.5067,-2.6097 -4.8858,4.8837 -6.6666,-1.9392 -13.5033,-1.4375 -2.873,8.4063 -5.1642,-6.6584 -6.2673,1.6478 -6.0007,-1.9655 -3.0741,7.2892 -6.2494,-0.0592 0.4193,-9.3757 -0.0547,-6.6775 4.2192,-4.2996 12.3904,2.5639 6.8016,-10.3609 -2.7808,-4.9346 -8.1408,-7.7572 -3.1851,-10.9624 -11.2153,-5.8723 -2.8373,-13.7078 -11.964,-2.9908 -5.9911,-7.8974 10.5228,-3.0986 -3.6885,-10.6699 3.035,-3.4768 23.1587,-1.6531 4.1871,-7.569 4.7063,3.3679 5.8216,9.6049 -0.6411,5.7544 5.1074,1.7597 -1.7615,5.068 5.1599,5.0203 -2.0789,6.6996 13.5826,2.0309 3.1448,-6.8418 9.3612,1.5047 3.2379,4.8256 z"
       style="fill:#ffffff"
       stroke="#bbbbbb"
       ac-name="Kota" />
    <path
       data-id="ch-20"
       id="20"
       d="m 498.5433,261.8739 5.9148,-1.3656 12.6055,10.5135 2.2117,3.5113 9.4943,2.5324 4.5934,5.1806 9.7897,-5.8563 9.6888,-0.4734 1.3634,4.6892 -5.4387,3.0792 -0.3457,10.5126 2.8668,11.0667 -3.4028,5.1657 -0.0881,10.1835 3.478,2.1573 0.4594,11.8286 -4.393,3.3386 -1.2446,7.3773 -5.8603,5.5974 2.2213,3.7021 -6.1258,4.3242 3.6507,7.0557 -3.501,6.4906 -11.5786,0.719 -4.9564,3.4816 -1.3659,4.7847 -6.898,-3.2115 -1.8067,-4.5845 -5.7407,-1.8116 -12.3249,7.8272 -6.3545,1.6659 -6.6339,6.7497 -15.9017,-2.5032 -2.8108,-4.7563 5.4776,-12.0341 -5.6928,-11.0461 0.9391,-2.3996 11.2449,-4.2919 1.5486,-6.2281 5.7069,-1.037 4.5878,-6.2062 -3.0441,-6.3518 -8.7235,-1.3239 -4.9144,-16.2026 -14.2273,-13.0931 2.8172,-5.3132 6.1062,0.1729 1.9666,-14.7443 7.1809,0.0242 -0.4744,-8.9134 9.1234,-2.5833 9.1311,1.3278 2.1398,-3.3839 6.9267,-1.9613 z"
       style="fill:#ffffff"
       stroke="#bbbbbb"
       ac-name="Rampur (ST)" />
    <path
       data-id="ch-26"
       id="26"
       d="m 238.2943,310.4376 8.3272,-9.1125 4.5955,2.2042 4.49,-4.4433 10.2078,2.3226 5.5231,-8.1206 -0.5482,-6.6204 6.9156,-6.2379 6.3784,-0.8325 5.9911,7.8974 11.964,2.9908 2.8373,13.7078 11.2153,5.8723 3.1851,10.9624 8.1408,7.7572 2.7808,4.9346 -6.8016,10.3609 -12.3904,-2.5639 -4.2192,4.2996 0.0547,6.6775 -8.1196,-4.9475 -8.1571,-0.577 -4.5659,5.0849 6.6795,6.817 5.5994,1.5198 4.2008,9.1244 -3.0816,4.7388 -6.6313,-3.2338 -12.182,3.9942 -9.2483,-0.6737 -3.118,3.9215 -5.2165,-2.2005 -8.9899,1.7199 -4.4499,-1.7213 2.2036,-18.7399 -4.5155,-9.6889 3.2057,-7.8626 -9.7604,-14.1758 -2.5716,-7.3041 z"
       style="fill:#ffffff"
       stroke="#bbbbbb"
       ac-name="Lormi" />
    <path
       data-id="ch-15"
       id="15"
       d="m 672.4363,332.45 4.6013,10.0072 7.8522,6.7829 -8.6344,9.5241 -10.2822,-1.2484 -7.3394,2.6893 -7.4025,5.566 -3.4654,8.9439 -9.1183,11.2621 8.588,6.133 -10.7353,2.5958 -2.6319,4.9884 3.3424,3.7811 -3.1648,7.3445 3.6463,6.3786 -1.4895,7.295 -21.8554,2.9664 2.0767,-6.112 -7.307,-1.6407 -3.4189,-6.9554 -10.2983,-8.3907 -4.7105,2.9473 -10.79,-14.584 3.8843,-1.4959 6.7283,2.5901 2.6976,-5.3819 5.8057,-1.2469 -3.109,-6.8582 3.1228,-6.8341 7.2274,-1.1289 2.0335,-8.9346 8.3195,-1.3608 -0.9632,-4.5798 3.7439,-6.4234 -3.4578,-7.5177 3.639,-5.6561 3.1195,-11.4506 -7.155,-15.6604 3.6777,-4.2712 6.1095,3.831 9.6969,-4.6657 4.8685,-4.9955 5.1667,1.6755 -3.8035,14.181 13.2525,10.175 0.7317,2.9976 8.1328,3.0371 z"
       style="fill:#ffffff"
       stroke="#bbbbbb"
       ac-name="Lailunga (ST)" />
    <path
       data-id="ch-22"
       id="22"
       d="m 472.1535,329.9274 -4.989,0.4625 -1.8391,8.1426 8.301,6.3138 -1.5486,6.2281 -11.2449,4.2919 -0.9391,2.3996 -7.6363,-0.9647 -8.8564,8.6766 -4.7109,-8.4765 -6.0081,0.6728 -6.2408,6.293 -5.8658,-6.3602 -5.8382,-2.6591 2.4933,-5.5482 0.8006,-8.5017 6.4285,4.2848 14.9953,-0.7164 0.0319,-5.5747 -10.712,-11.6512 9.0522,-11.6255 5.1207,-10.5727 10.064,-4.4105 14.2273,13.0931 z"
       style="fill:#ffffff"
       stroke="#bbbbbb"
       ac-name="Katghora" />
    <path
       data-id="ch-72"
       id="72"
       d="m 184.5276,315.9767 0.4438,6.7855 6.0822,10.2704 4.5061,-1.1233 9.6816,2.3577 -1.9196,6.8805 4.6975,17.8114 7.1999,-0.0805 -2.6613,5.8731 -4.3771,-1.6228 -4.641,6.6304 7.9169,2.8907 1.2098,10.5481 8.6208,8.9365 1.899,5.4488 -11.0308,10.7987 1.4304,3.4011 -9.822,6.0806 -6.3891,1.6949 -1.6781,8.2953 -5.1101,-1.3279 -1.8314,-4.9766 -7.6733,2.4395 -3.3736,5.5913 5.6922,6.6764 -11.6629,17.6535 3.4326,6.4958 -9.1839,-4.4033 -14.5725,-1.366 -6.5445,2.2496 -7.8227,-6.9062 -0.0614,-4.2882 -5.0377,-7.6285 -9.0737,0.4558 -6.9259,-1.6055 0.1285,-9.292 -2.1411,-4.9488 8.3977,-19.8545 0.003,-5.2841 4.0404,-4.9613 2.1381,-8.6941 7.6202,-1.671 8.9986,13.2679 3.2665,-8.8872 -6.3897,-4.7342 8.4561,-2.3949 1.7996,-12.97 -2.3012,-4.0924 5.2622,-4.0595 8.6251,-1.3338 5.1134,-7.9259 0.5331,-10.0065 -3.3866,-7.6911 1.4013,-10.4739 8.4662,-3.2965 3.3216,-6.408 z"
       style="fill:#ffffff"
       stroke="#bbbbbb"
       ac-name="Kawardha" />
    <path
       data-id="ch-21"
       id="21"
       d="m 473.6264,344.8463 -8.301,-6.3138 1.8391,-8.1426 4.989,-0.4625 8.7235,1.3239 3.0441,6.3518 -4.5878,6.2062 z"
       style="fill:#ffffff"
       stroke="#bbbbbb"
       ac-name="Korba" />
    <path
       data-id="ch-31"
       id="31"
       d="m 367.4009,341.5661 9.3703,2.4661 3.0734,-4.2938 10.1471,0.8293 -1.0651,7.0372 4.9263,2.2081 4.3001,-2.6282 1.1166,7.835 4.343,4.7815 -0.604,3.8156 -8.2645,2.8287 -9.0199,5.3833 -0.5796,8.064 4.607,9.6717 -5.4647,3.4369 -6.4992,-1.4277 -4.9455,-1.8151 -1.2325,-5.8247 -7.7452,4.162 -3.2963,-3.6619 0.7271,-12.8486 -6.3963,-6.0335 2.804,-3.5971 -1.3821,-5.3689 4.8858,-4.8837 6.5067,2.6097 10.5352,-1.7873 -9.1378,-7.1557 z"
       style="fill:#ffffff"
       stroke="#bbbbbb"
       ac-name="Beltara" />
    <path
       data-id="ch-32"
       id="32"
       d="m 398.153,347.1848 2.8448,-4.4791 5.0465,-0.7511 5.2864,5.2221 5.8999,2.2229 -2.4933,5.5482 5.8382,2.6591 5.8658,6.3602 2.7314,4.8264 -7.8033,5.1707 -1.1475,4.1879 -6.1713,2.1049 -4.7801,-1.92 -6.7153,6.4161 -2.5313,19.5282 0.7959,7.3308 -2.72,7.8811 1.0479,9.0429 7.1403,4.2766 5.7854,18.1405 5.3603,-0.2862 5.1893,4.2747 -8.7079,5.2308 -12.7457,-0.3151 -4.4552,-1.8377 -2.5166,-5.445 -8.1905,-0.3565 -5.1979,-0.6179 -5.8195,-2.7793 -0.6294,-10.6186 3.425,-1.8321 1.2666,-8.718 5.7596,-8.488 -1.2523,-9.613 -4.7935,-2.7832 -4.1559,-11.982 3.1779,-3.2123 6.4992,1.4277 5.4647,-3.4369 -4.607,-9.6717 0.5796,-8.064 9.0199,-5.3833 8.2645,-2.8287 0.604,-3.8156 -4.343,-4.7815 z"
       style="fill:#ffffff"
       stroke="#bbbbbb"
       ac-name="Masturi (SC)" />
    <path
       data-id="ch-28"
       id="28"
       d="m 306.9416,352.4938 -0.4193,9.3757 6.2494,0.0592 3.0741,-7.2892 6.0007,1.9655 6.2673,-1.6478 5.1642,6.6584 2.873,-8.4063 13.5033,1.4375 6.6666,1.9392 1.3821,5.3689 -2.804,3.5971 6.3963,6.0335 -0.7271,12.8486 3.2963,3.6619 -3.6977,2.1797 -5.2143,6.4368 -0.0617,6.5048 -5.2595,5.8355 -6.7352,4.1147 -6.5374,-8.1181 -5.7486,-1.5224 -3.2146,-8.8265 -8.2567,-5.9073 -2.9239,-5.0249 -8.2233,-7.3235 -5.4129,-6.9294 -4.2008,-9.1244 -5.5994,-1.5198 -6.6795,-6.817 4.5659,-5.0849 8.1571,0.577 z"
       style="fill:#ffffff"
       stroke="#bbbbbb"
       ac-name="Takhatpur" />
    <path
       data-id="ch-33"
       id="33"
       d="m 426.4413,363.9671 6.2408,-6.293 6.0081,-0.6728 4.7109,8.4765 8.8564,-8.6766 7.6363,0.9647 5.6928,11.0461 -5.4776,12.0341 2.8108,4.7563 -4.261,6.7485 -5.4219,-2.5287 -16.5949,4.8729 1.6575,18.2264 -1.2072,8.4078 -13.087,-5.8139 -0.3743,7.442 -10.9003,-1.4413 -2.0544,-2.8237 -12.5765,0.8008 2.72,-7.8811 -0.7959,-7.3308 2.5313,-19.5282 6.7153,-6.4161 4.7801,1.92 6.1713,-2.1049 1.1475,-4.1879 7.8033,-5.1707 z"
       style="fill:#ffffff"
       stroke="#bbbbbb"
       ac-name="Akaltara" />
    <path
       data-id="ch-19"
       id="19"
       d="m 609.7816,282.2063 -0.3677,11.3805 -2.5311,4.1189 12.3308,8.8083 -3.6777,4.2712 7.155,15.6604 -3.1195,11.4506 -3.639,5.6561 3.4578,7.5177 -3.7439,6.4234 0.9632,4.5798 -8.3195,1.3608 -2.0335,8.9346 -7.2274,1.1289 -3.1228,6.8341 3.109,6.8582 -5.8057,1.2469 -2.6976,5.3819 -6.7283,-2.5901 -3.8843,1.4959 -0.6064,-3.9891 -7.8375,2.3635 -10.2307,-1.9422 -4.3092,3.4957 -4.6644,-4.6132 0.7354,-5.7668 -5.0322,-8.2739 -7.9723,-8.0039 -3.6507,-7.0557 6.1258,-4.3242 -2.2213,-3.7021 5.8603,-5.5974 1.2446,-7.3773 4.393,-3.3386 -0.4594,-11.8286 -3.478,-2.1573 0.0881,-10.1835 3.4028,-5.1657 -2.8668,-11.0667 0.3457,-10.5126 5.4387,-3.0792 -1.3634,-4.6892 0.3778,-8.2201 7.6676,-6.2736 -0.0241,-4.2255 11.7175,-2.339 7.8537,2.5047 14.2585,1.6676 3.597,5.6681 8.0415,-0.9968 -1.7393,15.7037 z"
       style="fill:#ffffff"
       stroke="#bbbbbb"
       ac-name="Dharamjaigarh (ST)" />
    <path
       data-id="ch-18"
       id="18"
       d="m 539.9821,365.9945 7.9723,8.0039 5.0322,8.2739 -0.7354,5.7668 4.6644,4.6132 4.3092,-3.4957 10.2307,1.9422 7.8375,-2.3635 0.6064,3.9891 10.79,14.584 4.7105,-2.9473 10.2983,8.3907 3.4189,6.9554 -5.8063,1.8831 -7.5379,-2.169 0.4137,12.5113 -2.7646,5.3645 1.3364,11.1238 -5.0051,4.0696 3.5989,9.1539 -2.4093,1.3461 -9.4553,-3.2069 -5.2588,-14.4734 -5.9004,-4.1409 1.3536,-5.6898 -5.5828,-3.7466 5.9272,-4.3896 -0.0497,-4.418 -6.4535,-3.8761 -6.6384,2.0964 -5.6495,-3.029 -4.9308,-8.3592 -16.6596,1.9763 -1.821,-3.6875 4.7661,-2.0756 0.667,-9.2059 -1.8218,-6.6566 -14.855,-8.6377 1.3659,-4.7847 4.9564,-3.4816 11.5786,-0.719 z"
       style="fill:#ffffff"
       stroke="#bbbbbb"
       ac-name="Kharsia" />
    <path
       data-id="ch-27"
       id="27"
       d="m 302.5787,369.5154 5.4129,6.9294 8.2233,7.3235 2.9239,5.0249 8.2567,5.9073 3.2146,8.8265 -18.7244,-2.251 -5.727,-3.3608 -4.9924,3.0524 -9.3252,0.3781 1.0991,8.6752 2.9698,4.2844 -9.8386,1.4661 -4.2238,-3.0875 -7.2719,-0.5656 -3.8519,-5.7178 -11.1399,0.8651 -9.5915,-3.8388 -7.0844,-0.6252 1.6038,-6.7082 4.2364,-6.0733 -2.8138,-11.4268 3.7268,-2.5328 4.4499,1.7213 8.9899,-1.7199 5.2165,2.2005 3.118,-3.9215 9.2483,0.6737 12.182,-3.9942 6.6313,3.2338 z"
       style="fill:#ffffff"
       stroke="#bbbbbb"
       ac-name="Mungeli (SC)" />
    <path
       data-id="ch-35"
       id="35"
       d="m 518.5802,381.4704 14.855,8.6377 1.8218,6.6566 -0.667,9.2059 -4.7661,2.0756 -7.2977,-2.1687 -6.1225,2.846 -12.9246,-0.1536 -8.5655,2.9278 -4.6415,6.9476 -9.5828,-11.3738 -3.8381,8.1317 -4.3162,2.9589 -7.6771,-13.325 3.1933,-6.5656 -8.2889,-1.5225 -1.1035,-4.3981 4.261,-6.7485 15.9017,2.5032 6.6339,-6.7497 6.3545,-1.6659 12.3249,-7.8272 5.7407,1.8116 1.8067,4.5845 z"
       style="fill:#ffffff"
       stroke="#bbbbbb"
       ac-name="Sakti" />
    <path
       data-id="ch-30"
       id="30"
       d="m 363.8645,388.096 7.7452,-4.162 1.2325,5.8247 4.9455,1.8151 -3.1779,3.2123 -14.443,-4.5104 z"
       style="fill:#ffffff"
       stroke="#bbbbbb"
       ac-name="Bilaspur" />
    <path
       data-id="ch-34"
       id="34"
       d="m 458.6588,392.3509 1.1035,4.3981 8.2889,1.5225 -3.1933,6.5656 7.6771,13.325 3.108,7.1869 1.9273,13.9249 -8.1643,6.4909 -8.7366,-0.3676 -9.2431,-7.3651 -0.2629,-6.3066 -6.8811,-1.6333 -7.19,-8.7629 1.2072,-8.4078 -1.6575,-18.2264 16.5949,-4.8729 z"
       style="fill:#ffffff"
       stroke="#bbbbbb"
       ac-name="Janjgir-Champa" />
    <path
       data-id="ch-29"
       id="29"
       d="m 360.1668,390.2757 14.443,4.5104 4.1559,11.982 4.7935,2.7832 1.2523,9.613 -5.7596,8.488 -1.2666,8.718 -3.425,1.8321 -5.1328,-3.8858 -7.182,2.9771 -4.5976,-4.579 -9.2111,-5.0452 -5.7644,4.6806 -14.5347,1.5653 -3.3571,5.9854 -8.2234,-5.0402 1.2382,-8.3368 -12.0353,-1.7315 -9.6501,-10.487 -2.9698,-4.2844 -1.0991,-8.6752 9.3252,-0.3781 4.9924,-3.0524 5.727,3.3608 18.7244,2.251 5.7486,1.5224 6.5374,8.1181 6.7352,-4.1147 5.2595,-5.8355 0.0617,-6.5048 z"
       style="fill:#ffffff"
       stroke="#bbbbbb"
       ac-name="Bilha" />
    <path
       data-id="ch-70"
       id="70"
       d="m 295.91,414.3053 9.6501,10.487 12.0353,1.7315 -1.2382,8.3368 8.2234,5.0402 -7.8816,6.6217 -9.8499,4.1362 -7.7684,-2.8008 -18.2038,2.959 4.9993,10.2152 -0.6661,3.9989 -10.0391,4.9255 -7.2376,-1.1216 -0.3329,-8.0955 -11.2642,-4.6946 -8.8253,0.1507 1.3168,-5.1767 -4.7821,-2.3016 -5.4537,-10.6226 -7.6525,-2.0523 0.0228,-5.6586 -6.3352,-4.0983 9.0153,-4.7908 -0.7072,-7.0265 3.2173,-5.4766 6.7555,-6.1899 7.0844,0.6252 9.5915,3.8388 11.1399,-0.8651 3.8519,5.7178 7.2719,0.5656 4.2238,3.0875 z"
       style="fill:#ffffff"
       stroke="#bbbbbb"
       ac-name="Navagarh (SC)" />
    <path
       data-id="ch-71"
       id="71"
       d="m 238.2943,310.4376 -0.0713,7.8516 2.5716,7.3041 9.7604,14.1758 -3.2057,7.8626 4.5155,9.6889 -2.2036,18.7399 -3.7268,2.5328 2.8138,11.4268 -4.2364,6.0733 -1.6038,6.7082 -6.7555,6.1899 -3.2173,5.4766 0.7072,7.0265 -9.0153,4.7908 -2.8153,0.8977 1.1275,10.3346 -6.7777,-0.2185 -6.0429,-3.3589 -2.3866,3.4749 3.2934,11.1044 -8.4688,0.8691 -7.4038,4.3366 -5.9579,-1.8996 -1.1499,9.8323 -8.8736,0.009 -4.0014,-1.2612 -3.4326,-6.4958 11.6629,-17.6535 -5.6922,-6.6764 3.3736,-5.5913 7.6733,-2.4395 1.8314,4.9766 5.1101,1.3279 1.6781,-8.2953 6.3891,-1.6949 9.822,-6.0806 -1.4304,-3.4011 11.0308,-10.7987 -1.899,-5.4488 -8.6208,-8.9365 -1.2098,-10.5481 -7.9169,-2.8907 4.641,-6.6304 4.3771,1.6228 2.6613,-5.8731 -7.1999,0.0805 -4.6975,-17.8114 1.9196,-6.8805 -9.6816,-2.3577 -4.5061,1.1233 -6.0822,-10.2704 -0.4438,-6.7855 6.3128,2.0888 5.7886,-3.8931 3.6791,-5.9167 4.99,4.0768 4.6047,-8.3969 9.7863,3.0161 2.812,13.4307 4.9902,-5.8286 z"
       style="fill:#ffffff"
       stroke="#bbbbbb"
       ac-name="Pandariya" />
    <path
       data-id="ch-37"
       id="37"
       d="m 516.4037,408.7235 2.1758,9.0174 6.0128,5.0544 -2.5421,6.5529 8.1739,6.2887 -1.8573,4.1845 6.3804,7.5303 -3.9213,8.6185 -9.9855,1.9869 -10.3628,5.4215 -4.5576,0.5359 -14.4552,-5.7101 -10.5835,-0.2441 -3.311,-18.6864 -1.9273,-13.9249 -3.108,-7.1869 4.3162,-2.9589 3.8381,-8.1317 9.5828,11.3738 4.6415,-6.9476 8.5655,-2.9278 z"
       style="fill:#ffffff"
       stroke="#bbbbbb"
       ac-name="Jaijaipur" />
    <path
       data-id="ch-36"
       id="36"
       d="m 590.9429,462.9905 -1.9947,3.1933 -13.0317,-3.9156 -12.1784,-3.1322 -17.5326,0.4561 -9.039,-5.1913 -6.3406,1.5694 3.9213,-8.6185 -6.3804,-7.5303 1.8573,-4.1845 -8.1739,-6.2887 2.5421,-6.5529 -6.0128,-5.0544 -2.1758,-9.0174 6.1225,-2.846 7.2977,2.1687 1.821,3.6875 16.6596,-1.9763 4.9308,8.3592 5.6495,3.029 6.6384,-2.0964 6.4535,3.8761 0.0497,4.418 -5.9272,4.3896 5.5828,3.7466 -1.3536,5.6898 5.9004,4.1409 5.2588,14.4734 z"
       style="fill:#ffffff"
       stroke="#bbbbbb"
       ac-name="Chandrapur" />
    <path
       data-id="ch-38"
       id="38"
       d="m 437.0923,421.3293 7.19,8.7629 6.8811,1.6333 0.2629,6.3066 9.2431,7.3651 8.7366,0.3676 8.1643,-6.4909 3.311,18.6864 -9.46,-0.5588 -6.057,3.3364 -5.4064,-3.5985 -7.2829,2.8448 -10.771,-4.5605 -12.6964,2.0026 -6.5846,-2.4846 -5.1893,-4.2747 -5.3603,0.2862 -5.7854,-18.1405 -7.1403,-4.2766 -1.0479,-9.0429 12.5765,-0.8008 2.0544,2.8237 10.9003,1.4413 0.3743,-7.442 z"
       style="fill:#ffffff"
       stroke="#bbbbbb"
       ac-name="Pamgarh (SC)" />
    <path
       data-id="ch-16"
       id="16"
       d="m 601.3541,484.052 -9.7368,-0.6347 -9.9727,-2.4515 0.5548,-6.7803 -7.481,-3.2848 1.1981,-8.6325 13.0317,3.9156 1.9947,-3.1933 2.4093,-1.3461 -3.5989,-9.1539 5.0051,-4.0696 -1.3364,-11.1238 2.7646,-5.3645 -0.4137,-12.5113 7.5379,2.169 5.8063,-1.8831 7.307,1.6407 -2.0767,6.112 21.8554,-2.9664 1.4895,-7.295 9.4504,4.227 -6.0924,7.5898 3.2012,4.5446 -7.5565,2.0034 -5.6025,7.9319 -7.5317,1.0397 -0.3744,12.0485 -5.789,6.9065 -6.2381,2.8531 5.4547,4.3447 7.5775,2.6514 -5.049,6.9754 -3.1454,-3.1147 -0.2907,-6.0214 -11.4548,6.7693 z"
       style="fill:#ffffff"
       stroke="#bbbbbb"
       ac-name="Raigarh" />
    <path
       data-id="ch-68"
       id="68"
       d="m 224.6271,426.2854 6.3352,4.0983 -0.0228,5.6586 7.6525,2.0523 5.4537,10.6226 -6.0069,5.399 1.1158,3.4906 -6.6153,12.792 -4.1525,-3.3285 -5.5796,7.9052 -5.864,1.6392 -4.2765,8.2655 3.4625,4.1484 -0.5276,6.3276 3.6289,6.7735 -2.9659,5.7179 3.0857,9.2938 -6.5546,3.2643 -7.3685,10.4691 2.0214,5.5985 -6.7212,4.9217 -10.0328,-0.7587 -0.2597,5.9542 -2.9961,1.8876 -9.3728,-2.0983 -0.94,-3.6532 4.6963,-7.0697 0.5659,-7.7727 0.7811,-5.3043 -4.0593,-8.8211 4.6001,-16.2138 -6.137,-1.5842 -4.7347,-5.3346 3.5771,-6.8464 3.7907,-1.4561 1.0496,-13.4178 -2.0843,-7.2389 8.8736,-0.009 1.1499,-9.8323 5.9579,1.8996 7.4038,-4.3366 8.4688,-0.8691 -3.2934,-11.1044 2.3866,-3.4749 6.0429,3.3589 6.7777,0.2185 -1.1275,-10.3346 z"
       style="fill:#ffffff"
       stroke="#bbbbbb"
       ac-name="Saja" />
    <path
       data-id="ch-46"
       id="46"
       d="m 374.3603,438.2024 0.6294,10.6186 5.8195,2.7793 -3.1901,2.2269 -7.6775,-1.2699 -15.4825,3.4797 1.9133,8.7476 -8.9815,1.7354 2.7358,6.42 -1.1144,9.8349 -4.1131,-0.7592 -5.1673,-12.5891 -4.044,-3.7384 -11.0279,-1.9109 -2.7293,5.4966 -5.2148,-2.4126 -7.5387,8.6817 -11.7902,1.4066 -2.5452,3.257 -8.7596,-1.8955 -5.6864,1.3562 -7.5553,-7.7437 2.3305,-1.9671 10.0391,-4.9255 0.6661,-3.9989 -4.9993,-10.2152 18.2038,-2.959 7.7684,2.8008 9.8499,-4.1362 7.8816,-6.6217 3.3571,-5.9854 14.5347,-1.5653 5.7644,-4.6806 9.2111,5.0452 4.5976,4.579 7.182,-2.9771 z"
       style="fill:#ffffff"
       stroke="#bbbbbb"
       ac-name="Bhatapara" />
    <path
       data-id="ch-73"
       id="73"
       d="m 115.9478,436.9135 6.9259,1.6055 9.0737,-0.4558 5.0377,7.6285 0.0614,4.2882 7.8227,6.9062 6.5445,-2.2496 14.5725,1.366 9.1839,4.4033 4.0014,1.2612 2.0843,7.2389 -1.0496,13.4178 -3.7907,1.4561 -3.5771,6.8464 4.7347,5.3346 6.137,1.5842 -4.6001,16.2138 4.0593,8.8211 -0.7811,5.3043 -16.3096,3.6843 -5.2411,-4.3619 -7.2472,2.4431 -6.5792,-2.9526 -4.1323,-5.7947 -4.5059,1.0311 -4.8216,-9.1447 4.0225,-5.5215 -4.1793,-4.343 -6.2377,-1.7359 -16.6835,2.5002 -6.5283,-1.7902 -8.9257,2.323 1.2762,-10.7395 -4.4798,-12.1269 2.6997,-2.7482 -2.7065,-10.5568 3.287,-4.3507 -0.1233,-6.4441 2.8814,-5.4388 7.1866,1.4362 5.9873,-2.4891 z"
       style="fill:#ffffff"
       stroke="#bbbbbb"
       ac-name="Khairagarh" />
    <path
       data-id="ch-69"
       id="69"
       d="m 244.0457,448.7172 4.7821,2.3016 -1.3168,5.1767 8.8253,-0.1507 11.2642,4.6946 0.3329,8.0955 7.2376,1.1216 -2.3305,1.9671 7.5553,7.7437 -5.8497,12.1082 -4.6792,0.4985 -2.9011,7.2366 -0.0463,6.9735 2.1089,12.7799 -8.6979,10.3482 -7.2827,3.1743 -4.9392,-3.5348 -7.3817,-1.0004 -4.4609,-11.7376 -16.9157,0.6277 -3.0857,-9.2938 2.9659,-5.7179 -3.6289,-6.7735 0.5276,-6.3276 -3.4625,-4.1484 4.2765,-8.2655 5.864,-1.6392 5.5796,-7.9052 4.1525,3.3285 6.6153,-12.792 -1.1158,-3.4906 z"
       style="fill:#ffffff"
       stroke="#bbbbbb"
       ac-name="Bemetara" />
    <path
       data-id="ch-45"
       id="45"
       d="m 386.0071,452.2182 1.7552,12.9923 -7.9574,14.3262 -6.2556,7.9969 -8.9483,0.294 -10.8572,7.0981 -6.7315,-5.3281 -11.5927,2.3494 -5.6147,11.7171 -11.7198,-0.3292 -0.0273,-4.906 -11.1838,5.2495 -3.8826,3.3778 -6.2167,-1.9273 -8.309,8.8716 -11.8375,-2.3919 -3.2315,-7.0281 -6.4772,1.9036 0.0463,-6.9735 2.9011,-7.2366 4.6792,-0.4985 5.8497,-12.1082 5.6864,-1.3562 8.7596,1.8955 2.5452,-3.257 11.7902,-1.4066 7.5387,-8.6817 5.2148,2.4126 2.7293,-5.4966 11.0279,1.9109 4.044,3.7384 5.1673,12.5891 4.1131,0.7592 1.1144,-9.8349 -2.7358,-6.42 8.9815,-1.7354 -1.9133,-8.7476 15.4825,-3.4797 7.6775,1.2699 3.1901,-2.2269 z"
       style="fill:#ffffff"
       stroke="#bbbbbb"
       ac-name="Balodabazar" />
    <path
       data-id="ch-44"
       id="44"
       d="m 422.623,454.9417 6.5846,2.4846 12.6964,-2.0026 -4.5805,5.965 0.004,4.2379 -5.6802,4.9736 -4.6064,13.7813 5.029,8.9995 -6.3981,3.6718 -1.7751,5.1635 3.3227,3.5004 11.592,6.4481 -10.1307,6.1421 -16.0055,2.1687 -9.021,2.9852 -16.1677,8.91 -2.2857,-5.3568 5.5203,-7.8271 -7.3798,-5.4231 -6.9832,9.7909 -5.7207,0.0439 -8.7397,3.0127 -2.0373,-8.2157 -7.0329,-4.1097 -13.1376,-4.0996 -9.8853,-6.5222 5.6147,-11.7171 11.5927,-2.3494 6.7315,5.3281 10.8572,-7.0981 8.9483,-0.294 6.2556,-7.9969 7.9574,-14.3262 -1.7552,-12.9923 8.1905,0.3565 2.5166,5.445 4.4552,1.8377 12.7457,0.3151 z"
       style="fill:#ffffff"
       stroke="#bbbbbb"
       ac-name="Kasdol" />
    <path
       data-id="ch-17"
       id="17"
       d="m 530.8259,455.9702 6.3406,-1.5694 9.039,5.1913 17.5326,-0.4561 12.1784,3.1322 -1.1981,8.6325 7.481,3.2848 -0.5548,6.7803 9.9727,2.4515 9.7368,0.6347 1.0778,5.7482 -6.7279,11.4375 3.0444,9.7745 8.5974,8.2566 1.578,10.2408 -2.9915,1.8122 -23.6055,-6.893 -9.0058,-0.9027 -3.9544,-3.1813 -11.1948,7.0372 -3.9314,-11.4677 -12.202,-2.6019 -2.5417,-8.9113 -5.8329,-1.4564 -5.5367,4.6429 -6.2112,-5.8412 -3.864,0.1133 -1.669,-12.1962 3.6775,-2.9216 7.8638,-14.2432 -2.745,-8.1102 -4.3388,-6.4314 z"
       style="fill:#ffffff"
       stroke="#bbbbbb"
       ac-name="Sarangarh (SC)" />
    <path
       data-id="ch-43"
       id="43"
       d="m 441.904,455.4237 10.771,4.5605 7.2829,-2.8448 5.4064,3.5985 6.057,-3.3364 9.46,0.5588 10.5835,0.2441 14.4552,5.7101 4.5576,-0.5359 10.3628,-5.4215 4.3388,6.4314 2.745,8.1102 -7.8638,14.2432 -3.6775,2.9216 1.669,12.1962 -11.2591,-11.6666 -7.7453,2.9553 -1.9956,7.0401 -5.2672,-1.08 -5.1836,-2.6804 -6.432,5.5691 -8.8865,1.936 2.2989,21.4188 -1.3943,8.3636 -8.5155,-2.9737 -10.5842,1.1354 -6.1754,4.574 -7.1885,-1.6161 -6.7002,1.5811 -3.8281,-2.2948 -3.2415,9.5767 -6.9757,-6.2291 -4.4827,2.7881 -0.7761,5.5356 -9.1712,-1.0248 -5.7233,-3.8159 -11.9416,-4.9128 0.6036,-3.6685 16.1677,-8.91 9.021,-2.9852 16.0055,-2.1687 10.1307,-6.1421 -11.592,-6.4481 -3.3227,-3.5004 1.7751,-5.1635 6.3981,-3.6718 -5.029,-8.9995 4.6064,-13.7813 5.6802,-4.9736 -0.004,-4.2379 z"
       style="fill:#ffffff"
       stroke="#bbbbbb"
       ac-name="Bilaigarh (SC)" />
    <path
       data-id="ch-39"
       id="39"
       d="m 518.0519,501.8597 3.864,-0.1133 6.2112,5.8412 5.5367,-4.6429 5.8329,1.4564 2.5417,8.9113 12.202,2.6019 3.9314,11.4677 11.1948,-7.0372 3.9544,3.1813 9.0058,0.9027 1.0809,2.8556 -3.3038,8.3062 3.6455,3.5059 -11.3134,9.1096 -3.7026,20.9811 -6.0366,1.3864 -6.7422,6.2571 -10.3289,-1.1928 -10.4825,-4.7323 -6.3089,-0.5865 -4.8899,-10.3021 -3.2886,6.0058 -9.7436,-0.0147 -0.2609,-12.2231 7.1688,-6.8572 3.7521,-0.1984 -0.0673,-8.1956 -5.3241,-5.4379 -6.9727,-1.5906 -4.9541,-8.1324 2.3621,-4.7015 -5.6567,-2.7868 -6.2969,-8.6658 -2.8778,-8.1103 5.2672,1.08 1.9956,-7.0401 7.7453,-2.9553 z"
       style="fill:#ffffff"
       stroke="#bbbbbb"
       ac-name="Saraipali (SC)" />
    <path
       data-id="ch-40"
       id="40"
       d="m 491.7847,499.1085 2.8778,8.1103 6.2969,8.6658 5.6567,2.7868 -2.3621,4.7015 4.9541,8.1324 6.9727,1.5906 5.3241,5.4379 0.0673,8.1956 -3.7521,0.1984 -7.1688,6.8572 0.2609,12.2231 -13.2156,-0.6599 -5.3979,1.8308 -7.0823,-1.5595 -13.5697,-0.3137 -9.9854,2.0898 -15.2842,5.644 -4.5208,-3.5976 5.3181,-5.4284 -0.8433,-5.3768 -5.0141,-0.6226 -6.1594,-4.5585 -1.1753,-4.4546 -6.6016,-0.8872 -7.1811,2.4982 -6.4803,-4.8193 0.7761,-5.5356 4.4827,-2.7881 6.9757,6.2291 3.2415,-9.5767 3.8281,2.2948 6.7002,-1.5811 7.1885,1.6161 6.1754,-4.574 10.5842,-1.1354 8.5155,2.9737 1.3943,-8.3636 -2.2989,-21.4188 8.8865,-1.936 6.432,-5.5691 z"
       style="fill:#ffffff"
       stroke="#bbbbbb"
       ac-name="Basna" />
    <path
       data-id="ch-47"
       id="47"
       d="m 329.8049,503.6641 9.8853,6.5222 -4.0164,5.5666 -0.6145,6.8988 -3.2798,6.6965 0.9713,5.1047 -6.8376,3.1607 -6.3444,-4.1848 -7.6979,-0.6638 -7.3092,2.6961 -6.8441,5.7305 -4.4064,10.819 -6.1145,-2.5162 -2.7584,-7.3758 -7.5949,-2.0452 -10.0354,-10.6389 -6.4775,0.1777 8.6979,-10.3482 -2.1089,-12.7799 6.4772,-1.9036 3.2315,7.0281 11.8375,2.3919 8.309,-8.8716 6.2167,1.9273 3.8826,-3.3778 11.1838,-5.2495 0.0273,4.906 z"
       style="fill:#ffffff"
       stroke="#bbbbbb"
       ac-name="Dharsiwa" />
    <path
       data-id="ch-74"
       id="74"
       d="m 182.3882,527.8842 -0.5659,7.7727 -4.6963,7.0697 0.94,3.6532 -3.2709,10.0848 9.593,-1.9315 1.6477,8.6749 -11.9478,-1.8732 -7.6808,6.7414 -10.96,-1.7608 -3.4969,4.6121 -6.0735,-5.1811 -4.0472,3.051 -4.1918,-2.4921 6.3749,-6.9525 1.1746,-5.1214 -6.9128,-2.4196 -5.9896,5.5509 -8.5454,-0.7269 -0.1589,3.7144 -14.9617,2.9866 -17.4583,-0.6312 -3.9112,-3.7059 1.9305,-4.7792 -3.3027,-7.9506 -5.4558,-3.226 4.0333,-3.1072 -1.4059,-7.8559 4.4826,-8.0214 2.3065,-10.1312 5.3991,-5.1134 -0.2177,-4.5934 8.9257,-2.323 6.5283,1.7902 16.6835,-2.5002 6.2377,1.7359 4.1793,4.343 -4.0225,5.5215 4.8216,9.1447 4.5059,-1.0311 4.1323,5.7947 6.5792,2.9526 7.2472,-2.4431 5.2411,4.3619 z"
       style="fill:#ffffff"
       stroke="#bbbbbb"
       ac-name="Dongargarh" />
    <path
       data-id="ch-52"
       id="52"
       d="m 376.3584,523.5547 -6.2736,9.7244 -8.9104,8.4848 -10.2325,4.0387 -5.5092,4.6863 -3.786,6.3184 0.0557,6.7991 -8.9633,0.4368 -7.7625,-3.4017 -6.2457,10.9567 -11.162,3.4185 -4.5766,-5.3009 -7.3185,-0.4764 -2.3626,-17.2288 4.4064,-10.819 6.8441,-5.7305 7.3092,-2.6961 7.6979,0.6638 6.3444,4.1848 6.8376,-3.1607 -0.9713,-5.1047 3.2798,-6.6965 0.6145,-6.8988 4.0164,-5.5666 13.1376,4.0996 7.0329,4.1097 2.0373,8.2157 8.7397,-3.0127 z"
       style="fill:#ffffff"
       stroke="#bbbbbb"
       ac-name="Arang (SC)" />
    <path
       data-id="ch-42"
       id="42"
       d="m 387.4868,532.3708 -0.6036,3.6685 11.9416,4.9128 5.7233,3.8159 9.1712,1.0248 6.4803,4.8193 7.1811,-2.4982 2.698,8.1921 -7.6344,-1.8673 -2.9765,3.052 -2.4609,13.554 -8.9156,-0.0644 -6.4232,-2.8986 -23.38,0.9103 -5.4465,8.3692 4.4248,10.5358 3.7672,2.2002 -9.6912,8.1891 -2.0125,-4.3362 -12.7024,-1.642 -6.6387,-7.0877 -5.6403,1.1734 -8.2574,-5.3842 0.6448,-4.097 4.9665,-13.3062 -0.0557,-6.7991 3.786,-6.3184 5.5092,-4.6863 10.2325,-4.0387 8.9104,-8.4848 6.2736,-9.7244 6.9832,-9.7909 7.3798,5.4231 -5.5203,7.8271 z"
       style="fill:#ffffff"
       stroke="#bbbbbb"
       ac-name="Mahasamund" />
    <path
       data-id="ch-67"
       id="67"
       d="m 219.3503,517.1414 16.9157,-0.6277 4.4609,11.7376 7.3817,1.0004 4.9392,3.5348 -3.5051,9.0454 -11.4505,11.855 -6.3734,-2.2714 -10.3316,0.7171 -4.1257,-3.0688 -5.8427,1.1474 -6.6059,5.0977 -3.1461,-3.212 -11.2319,-5.5064 0.2597,-5.9542 10.0328,0.7587 6.7212,-4.9217 -2.0214,-5.5985 7.3685,-10.4691 z"
       style="fill:#ffffff"
       stroke="#bbbbbb"
       ac-name="Ahiwara (SC)" />
    <path
       data-id="ch-48"
       id="48"
       d="m 293.3112,552.0106 2.3626,17.2288 7.3185,0.4764 4.5766,5.3009 -14.6903,3.0334 -20.3472,2.4475 -5.4957,-4.9141 -4.8732,1.2367 -4.1504,-3.4283 4.0528,-6.7201 4.3523,-0.5232 -4.5532,-8.8268 -11.367,-7.7325 -0.9543,-7.7574 3.5051,-9.0454 7.2827,-3.1743 6.4775,-0.1777 10.0354,10.6389 7.5949,2.0452 2.7584,7.3758 z m -27.5616,-5.0902 -1.6952,4.8622 3.7693,2.9949 4.8551,-5.2911 z"
       style="fill:#ffffff"
       stroke="#bbbbbb"
       ac-name="Raipur City Gramin" />
    <path
       data-id="ch-62"
       id="62"
       d="m 249.5427,541.8319 0.9543,7.7574 11.367,7.7325 4.5532,8.8268 -4.3523,0.5232 -4.0528,6.7201 -0.833,9.5451 1.6427,5.4393 4.8127,3.5697 2.0982,7.0377 -6.283,9.6092 -9.3656,2.0531 -3.149,6.2978 -4.8832,0.5283 -4.6837,5.5377 -4.7084,4.2401 -9.1665,-1.1938 -1.3595,-4.7679 2.8627,-3.9652 -0.1817,-14.5828 2.4034,-6.1868 -4.3671,-2.1883 -1.5138,-7.9275 0.2937,-8.9611 2.5896,-3.8086 -1.7548,-7.0368 1.9856,-4.0308 -2.4373,-6.6771 -0.6269,-3.7906 10.3316,-0.7171 6.3734,2.2714 z"
       style="fill:#ffffff"
       stroke="#bbbbbb"
       ac-name="Patan" />
    <path
       data-id="ch-76"
       id="76"
       d="m 80.4214,543.0439 5.4558,3.226 3.3027,7.9506 -1.9305,4.7792 3.9112,3.7059 17.4583,0.6312 14.9617,-2.9866 0.1589,-3.7144 8.5454,0.7269 5.9896,-5.5509 6.9128,2.4196 -1.1746,5.1214 -6.3749,6.9525 -4.9635,10.6959 4.2128,4.7043 4.2514,-0.3358 9.7605,6.1773 1.7707,10.4695 -8.8544,-2.331 -6.4199,0.8358 -2.3547,10.9361 -5.3883,3.9848 -7.3292,-0.8884 -12.7138,-4.8869 -2.9185,-5.5339 -9.9397,0.7293 -5.1644,-6.3898 3.194,-4.5706 -0.4538,-5.9013 -6.2365,-3.857 -6.5054,2.8974 -23.8864,-3.8484 -17.7945,2.7325 -1.5017,-3.3322 4.7765,-15.0833 9.6519,-1.3851 2.8456,-4.4253 5.4182,0.8149 11.2547,-5.1788 5.1046,-4.1128 z"
       style="fill:#ffffff"
       stroke="#bbbbbb"
       ac-name="Dongargaon" />
    <path
       data-id="ch-50"
       id="50"
       d="m 272.6788,549.4864 -4.4089,0.4751 -2.5203,-3.0411 z"
       style="fill:#ffffff"
       stroke="#bbbbbb"
       ac-name="Raipur City North" />
    <path
       data-id="ch-63"
       id="63"
       d="m 178.066,546.3798 9.3728,2.0983 2.9961,-1.8876 11.2319,5.5064 -1.7491,3.3797 -7.7646,4.8391 0.9076,6.2414 10.1294,3.3718 0.4818,-4.5627 5.8143,0.2877 9.155,7.6596 3.8246,-6.6824 1.7548,7.0368 -2.5896,3.8086 -0.2937,8.9611 -5.6155,4.4641 -11.2724,-1.0288 -6.7457,0.9163 -10.2136,-3.0376 -6.4556,2.1579 0.3819,-7.1715 -6.6845,-0.2603 3.3937,-5.1236 7.5678,0.6547 0.3424,-14.8008 -1.6477,-8.6749 -9.593,1.9315 z"
       style="fill:#ffffff"
       stroke="#bbbbbb"
       ac-name="Durg Gramin" />
    <path
       data-id="ch-49"
       id="49"
       d="m 265.7496,546.9204 2.5203,3.0411 -4.2155,1.8211 z"
       style="fill:#ffffff"
       stroke="#bbbbbb"
       ac-name="Raipur City West" />
    <path
       data-id="ch-41"
       id="41"
       d="m 461.6613,567.3956 1.6092,9.2582 -7.4083,6.2534 3.3211,6.8838 -10.6347,12.2678 -2.5573,5.0294 -13.8094,7.7619 -1.2724,10.8982 -5.0716,4.5646 -6.6784,-0.7698 -2.7881,-7.4246 -11.3974,-0.7214 -13.1993,-6.4995 -1.9258,-6.5524 -8.0094,-2.0041 -6.898,0.3521 -3.5991,-8.4069 9.6912,-8.1891 -3.7672,-2.2002 -4.4248,-10.5358 5.4465,-8.3692 23.38,-0.9103 6.4232,2.8986 8.9156,0.0644 2.4609,-13.554 2.9765,-3.052 7.6344,1.8673 -2.698,-8.1921 6.6016,0.8872 1.1753,4.4546 6.1594,4.5585 5.0141,0.6226 0.8433,5.3768 -5.3181,5.4284 4.5208,3.5976 z"
       style="fill:#ffffff"
       stroke="#bbbbbb"
       ac-name="Khallari" />
    <path
       data-id="ch-66"
       id="66"
       d="m 204.8129,555.3089 6.6059,-5.0977 5.8427,-1.1474 4.1257,3.0688 0.6269,3.7906 -4.9945,3.2261 -6.3195,-1.4247 z"
       style="fill:#ffffff"
       stroke="#bbbbbb"
       ac-name="Vaishali Nagar" />
    <path
       data-id="ch-51"
       id="51"
       d="m 264.0544,551.7826 4.2155,-1.8211 4.4089,-0.4751 -4.8551,5.2911 z"
       style="fill:#ffffff"
       stroke="#bbbbbb"
       ac-name="Raipur City South" />
    <path
       data-id="ch-64"
       id="64"
       d="m 201.6668,552.0969 3.1461,3.212 5.8872,2.4157 -1.2139,7.9293 -5.8143,-0.2877 -0.4818,4.5627 -10.1294,-3.3718 -0.9076,-6.2414 7.7646,-4.8391 z"
       style="fill:#ffffff"
       stroke="#bbbbbb"
       ac-name="Durg City" />
    <path
       data-id="ch-65"
       id="65"
       d="m 210.7001,557.7246 6.3195,1.4247 4.9945,-3.2261 2.4373,6.6771 -1.9856,4.0308 -3.8246,6.6824 -9.155,-7.6596 z"
       style="fill:#ffffff"
       stroke="#bbbbbb"
       ac-name="Bhilai Nagar" />
    <path
       data-id="ch-53"
       id="53"
       d="m 341.7024,563.6064 -4.9665,13.3062 -5.1008,8.2958 -8.1818,7.3815 -9.3004,11.3731 -7.6372,4.5934 -5.4784,-4.9214 -4.9458,-0.5333 -5.9596,-8.1418 -17.9341,2.2598 -8.5633,-5.2737 -4.8127,-3.5697 -1.6427,-5.4393 0.833,-9.5451 4.1504,3.4283 4.8732,-1.2367 5.4957,4.9141 20.3472,-2.4475 14.6903,-3.0334 11.162,-3.4185 6.2457,-10.9567 7.7625,3.4017 z"
       style="fill:#ffffff"
       stroke="#bbbbbb"
       ac-name="Abhanpur" />
    <path
       data-id="ch-75"
       id="75"
       d="m 186.0358,563.208 -0.3424,14.8008 -7.5678,-0.6547 -3.3937,5.1236 0.4982,3.728 -5.8055,10.0635 -11.4659,2.306 -5.289,-0.5587 -1.7707,-10.4695 -9.7605,-6.1773 -4.2514,0.3358 -4.2128,-4.7043 4.9635,-10.6959 4.1918,2.4921 4.0472,-3.051 6.0735,5.1811 3.4969,-4.6121 10.96,1.7608 7.6808,-6.7414 z"
       style="fill:#ffffff"
       stroke="#bbbbbb"
       ac-name="Rajnandgaon" />
    <path
       data-id="ch-54"
       id="54"
       d="m 336.7359,576.9126 -0.6448,4.097 8.2574,5.3842 5.6403,-1.1734 6.6387,7.0877 12.7024,1.642 2.0125,4.3362 3.5991,8.4069 6.898,-0.3521 8.0094,2.0041 1.9258,6.5524 13.1993,6.4995 -1.3103,9.2603 1.619,14.3492 -6.0234,3.2195 -5.3232,-1.1486 -4.6898,8.6707 -2.1064,7.9425 -3.9612,1.901 -8.6074,-2.7136 -13.7491,-0.3413 2.8513,8.0329 -4.1046,3.8697 -8.5634,-5.8399 -13.1701,0.1368 2.9493,-8.8698 -5.6066,-5.4012 -0.385,-4.3 -8.6447,-2.8827 -5.1505,-9.1337 2.8619,-5.062 -3.7682,-3.9878 -5.2881,-16.2829 -0.6506,-8.8532 9.3004,-11.3731 8.1818,-7.3815 z"
       style="fill:#ffffff"
       stroke="#bbbbbb"
       ac-name="Rajim" />
    <path
       data-id="ch-77"
       id="77"
       d="m 135.0407,607.4574 4.0479,-0.622 0.5165,8.0188 3.1218,1.7747 2.4628,3.8072 -7.3655,4.4961 2.1131,7.156 -6.0382,7.3383 -5.6057,-2.3847 -7.0628,1.2751 -9.4295,4.908 -5.4473,-3.6486 -8.3306,3.8722 -10.1843,-0.8012 -7.3175,-4.5446 -8.7123,3.1255 -3.2814,-2.9425 -8.4104,1.0156 1.7258,-8.0766 -1.0225,-12.8055 -2.6971,-6.7873 -15.0645,-0.9497 -3.7934,-12.4523 0.6386,-16.3048 17.7945,-2.7325 23.8864,3.8484 6.5054,-2.8974 6.2365,3.857 0.4538,5.9013 -3.194,4.5706 5.1644,6.3898 9.9397,-0.7293 2.9185,5.5339 12.7138,4.8869 7.3292,0.8884 z"
       style="fill:#ffffff"
       stroke="#bbbbbb"
       ac-name="Khujji" />
    <path
       data-id="ch-61"
       id="61"
       d="m 174.7319,582.4777 6.6845,0.2603 -0.3819,7.1715 6.4556,-2.1579 10.2136,3.0376 6.7457,-0.9163 11.2724,1.0288 5.6155,-4.4641 1.5138,7.9275 4.3671,2.1883 -2.4034,6.1868 0.1817,14.5828 -2.8627,3.9652 1.3595,4.7679 -0.8367,7.7228 -3.596,6.5244 -10.0827,-0.7771 -4.5939,1.315 -4.4018,-6.7167 -13.7568,-1.2101 -9.0386,-2.7511 -13.9957,-6.3464 -5.4602,-8.0407 -15.004,0.8527 -3.1218,-1.7747 -0.5165,-8.0188 -4.0479,0.622 2.3547,-10.9361 6.4199,-0.8358 8.8544,2.331 5.289,0.5587 11.4659,-2.306 5.8055,-10.0635 z"
       style="fill:#ffffff"
       stroke="#bbbbbb"
       ac-name="Gunderdehi" />
    <path
       data-id="ch-57"
       id="57"
       d="m 314.1529,603.963 0.6506,8.8532 5.2881,16.2829 -9.7073,0.3299 -2.8717,7.3171 -4.5782,0.7335 -1.0934,5.2444 -6.7885,-2.6236 -4.3709,6.6576 -2.0471,-4.2715 -9.5802,-1.3212 -3.8868,-5.4105 -3.2409,-10.2657 -5.726,4.8131 -7.5444,-4.7698 -1.4344,3.6778 -9.8031,-5.3973 -5.3067,2.7777 -4.7438,-3.5808 4.6837,-5.5377 4.8832,-0.5283 3.149,-6.2978 9.3656,-2.0531 6.283,-9.6092 -2.0982,-7.0377 8.5633,5.2737 17.9341,-2.2598 5.9596,8.1418 4.9458,0.5333 5.4784,4.9214 z"
       style="fill:#ffffff"
       stroke="#bbbbbb"
       ac-name="Kurud" />
    <path
       data-id="ch-60"
       id="60"
       d="m 142.7269,616.6289 15.004,-0.8527 5.4602,8.0407 13.9957,6.3464 0.928,7.533 -1.8149,5.063 -10.3665,6.7469 4.6452,7.0778 3.4877,0.1195 0.1443,10.7292 3.3644,0.6731 4.5593,8.7818 6.0956,0.2805 1.2248,-7.5955 5.5277,0.7991 7.2066,-3.3239 2.9496,2.9272 -2.9591,6.7331 9.0667,2.6877 -0.8281,4.1441 -2.6719,-1.5629 -10.8736,14.786 -2.0662,7.0136 -6.0157,5.2091 -9.2158,2.3951 -4.3803,5.3894 -13.4022,-7.4054 -8.2241,-1.6279 -8.9034,-6.6433 -1.2266,-7.6892 -4.7705,-1.5215 -1.2919,-6.4275 10.112,-6.3832 -0.0125,-4.6863 -10.3547,-8.445 1.4809,-4.3242 -9.8145,-0.1633 -4.8886,1.9688 -12.9481,-6.4057 -2.5809,-6.5655 3.4316,-7.2261 9.4295,-4.908 7.0628,-1.2751 5.6057,2.3847 6.0382,-7.3383 -2.1131,-7.156 7.3655,-4.4961 z"
       style="fill:#ffffff"
       stroke="#bbbbbb"
       ac-name="Dondi Lohara (ST)" />
    <path
       data-id="ch-59"
       id="59"
       d="m 237.3682,623.0098 4.7438,3.5808 3.3571,3.4844 -1.0694,5.9296 -6.186,4.2063 -0.0247,9.4439 7.2489,2.5604 -1.0844,9.7215 -3.4753,1.6348 3.9691,7.7861 -7.5496,4.502 -3.6714,4.5613 -8.5427,2.7469 -4.5497,3.6733 -10.1158,-3.3012 0.8281,-4.1441 -9.0667,-2.6877 2.9591,-6.7331 -2.9496,-2.9272 -7.2066,3.3239 -5.5277,-0.7991 -1.2248,7.5955 -6.0956,-0.2805 -4.5593,-8.7818 -3.3644,-0.6731 -0.1443,-10.7292 -3.4877,-0.1195 -4.6452,-7.0778 10.3665,-6.7469 1.8149,-5.063 -0.928,-7.533 9.0386,2.7511 13.7568,1.2101 4.4018,6.7167 4.5939,-1.315 10.0827,0.7771 3.596,-6.5244 0.8367,-7.7228 9.1665,1.1938 z"
       style="fill:#ffffff"
       stroke="#bbbbbb"
       ac-name="Sanjari Balod" />
    <path
       data-id="ch-58"
       id="58"
       d="m 290.6816,646.758 -15.4932,9.4699 -2.8593,7.6073 -4.1682,-0.5092 -6.6845,5.904 4.0072,11.1691 9.0332,0.513 -5.4664,11.2624 -4.2899,-2.1179 -14.5394,0.3424 -0.595,2.763 -2.7742,1.3953 -7.0333,-3.7963 -14.6431,-2.5279 -0.0919,-5.0653 8.5427,-2.7469 3.6714,-4.5613 7.5496,-4.502 -3.9691,-7.7861 3.4753,-1.6348 1.0844,-9.7215 -7.2489,-2.5604 0.0247,-9.4439 6.186,-4.2063 1.0694,-5.9296 -3.3571,-3.4844 5.3067,-2.7777 9.8031,5.3973 1.4344,-3.6778 7.5444,4.7698 5.726,-4.8131 3.2409,10.2657 3.8868,5.4105 9.5802,1.3212 z"
       style="fill:#ffffff"
       stroke="#bbbbbb"
       ac-name="Dhamtari" />
    <path
       data-id="ch-56"
       id="56"
       d="m 320.0916,629.0991 3.7682,3.9878 -2.8619,5.062 5.1505,9.1337 8.6447,2.8827 0.385,4.3 5.6066,5.4012 -2.9493,8.8698 3.9764,9.7215 0.594,9.3988 6.8292,9.9538 -0.7942,2.5756 6.3919,10.0053 -0.8255,8.6165 5.3384,14.5334 7.1482,0.7326 6.6434,5.6854 -6.1586,7.56 -2.7811,6.5748 0.7065,6.7594 -4.469,2.7146 -4.1714,6.3542 -9.2421,0.9607 -5.2163,9.2231 -4.8296,-1.6895 -8.7017,-9.6198 -9.9714,11.3265 -3.0576,-0.4983 -2.1396,-7.4282 -4.4091,-4.4669 -0.0325,-10.1447 -6.3812,-0.7725 -2.4276,-8.7935 -4.8049,-3.204 2.5177,-11.2115 -4.9627,-3.8058 6.3427,-3.2061 -5.3491,-11.7553 -6.4483,-7.2923 0.1766,-10.8424 -8.3644,0.029 -9.9121,-4.5562 5.4664,-11.2624 -9.0332,-0.513 -4.0072,-11.1691 6.6845,-5.904 4.1682,0.5092 2.8593,-7.6073 15.4932,-9.4699 4.3709,-6.6576 6.7885,2.6236 1.0934,-5.2444 4.5782,-0.7335 2.8717,-7.3171 z"
       style="fill:#ffffff"
       stroke="#bbbbbb"
       ac-name="Sihawa (ST)" />
    <path
       data-id="ch-78"
       id="78"
       d="m 111.8011,643.2249 -3.4316,7.2261 2.5809,6.5655 12.9481,6.4057 4.8886,-1.9688 9.8145,0.1633 -1.4809,4.3242 10.3547,8.445 0.0125,4.6863 -10.112,6.3832 1.2919,6.4275 4.7705,1.5215 1.2266,7.6892 -4.9084,4.3336 -6.7941,-0.0869 -8.4854,9.6478 -5.1392,-0.1258 -2.3933,7.5704 -4.8966,3.2744 0.5522,5.8777 -6.8899,3.5502 -7.6162,-1.7465 -4.0396,4.5128 1.4735,5.4622 -4.4473,9.5703 -4.5537,-0.2256 -4.3955,-6.0197 -10.2821,7.2277 -5.5706,1.3474 -6.1603,11.426 -8.9902,-5.0818 -8.6251,-1.2141 -5.1278,2.9979 -8.7043,-5.7032 6.2613,-5.9999 -5.024,-9.1154 19.7096,-6.0517 4.0784,1.7148 5.9176,-8.2361 11.7209,-1.8523 2.9212,-2.2814 -2.8774,-8.5653 -3.69,-3.4817 4.2743,-8.0139 -0.2386,-5.2936 2.2564,-17.9252 -2.3566,-8.6438 -9.1808,-0.5863 -8.194,4.4616 -7.8017,-7.3192 7.6945,-7.4344 11.316,-2.9961 -2.8654,-7.3424 -2.4754,-13.4248 8.4104,-1.0156 3.2814,2.9425 8.7123,-3.1255 7.3175,4.5446 10.1843,0.8012 8.3306,-3.8722 z"
       style="fill:#ffffff"
       stroke="#bbbbbb"
       ac-name="Mohala-Manpur (ST)" />
    <path
       data-id="ch-55"
       id="55"
       d="m 405.2827,645.0066 0.5091,8.6078 4.4989,7.4845 0.5154,6.7263 -5.6444,5.7413 -2.8645,7.8114 4.885,6.2627 6.1494,2.2396 0.46,7.4935 8.81,8.5149 -7.206,17.8407 5.8421,5.296 0.4043,6.1929 -3.946,2.8394 1.9469,8.8846 -2.0934,7.5604 -4.1482,3.4199 1.4737,7.6739 0.1194,12.6095 15.4312,3.8446 5.68,3.761 8.1404,0.1154 8.6285,5.0369 8.9066,-2.8341 13.5482,1.7568 1.2254,9.0073 -2.126,9.4084 3.2451,4.962 -5.4475,8.6788 -8.5576,-0.3122 -4.7979,7.481 -8.6354,1.9975 -1.1791,-9.7888 5.3699,-6.3457 -18.928,-4.5049 -4.2573,-3.2109 -7.0648,-0.4139 -9.9038,4.1734 -9.7027,9.9243 -8.001,-10.3871 -6.4633,-16.6322 -5.8724,-5.0218 -10.2427,3.6418 -2.5851,-4.2295 -12.3925,-4.1251 -8.109,-5.6883 -8.4138,6.3996 -0.6846,-4.7942 5.2163,-9.2231 9.2421,-0.9607 4.1714,-6.3542 4.469,-2.7146 -0.7065,-6.7594 2.7811,-6.5748 6.1586,-7.56 -6.6434,-5.6854 -7.1482,-0.7326 -5.3384,-14.5334 0.8255,-8.6165 -6.3919,-10.0053 0.7942,-2.5756 -6.8292,-9.9538 -0.594,-9.3988 -3.9764,-9.7215 13.1701,-0.1368 8.5634,5.8399 4.1046,-3.8697 -2.8513,-8.0329 13.7491,0.3413 8.6074,2.7136 3.9612,-1.901 2.1064,-7.9425 4.6898,-8.6707 5.3232,1.1486 z"
       style="fill:#ffffff"
       stroke="#bbbbbb"
       ac-name="Bindranawagarh (ST)" />
    <path
       data-id="ch-80"
       id="80"
       d="m 225.0836,683.1678 0.0919,5.0653 14.6431,2.5279 7.0333,3.7963 2.7742,-1.3953 -1.8299,8.4105 -3.993,4.1725 2.7901,8.8488 -6.8643,4.8555 -8.782,-0.1091 -13.4665,4.038 -6.1265,-2.3991 -9.1294,0.9733 -3.3182,7.3418 2.7538,12.1936 -3.2549,5.2498 -0.1787,5.5334 7.5441,7.3306 -5.9076,5.3158 -12.4849,-1.451 -8.6608,-6.8317 -12.5769,-0.9888 -7.989,1.7059 0.0904,-4.5325 -9.1749,1.077 -8.7917,14.7301 -8.5883,1.851 -12.3786,-2.0695 -1.6343,-4.9385 -7.6111,-6.2707 -4.853,-0.9845 -3.7678,3.6045 -1.4986,7.1449 -12.1535,-0.1834 -2.4955,-5.3566 1.2323,-8.7154 4.5537,0.2256 4.4473,-9.5703 -1.4735,-5.4622 4.0396,-4.5128 7.6162,1.7465 6.8899,-3.5502 -0.5522,-5.8777 4.8966,-3.2744 2.3933,-7.5704 5.1392,0.1258 8.4854,-9.6478 6.7941,0.0869 4.9084,-4.3336 8.9034,6.6433 8.2241,1.6279 13.4022,7.4054 4.3803,-5.3894 9.2158,-2.3951 6.0157,-5.2091 2.0662,-7.0136 10.8736,-14.786 2.6719,1.5629 10.1158,3.3012 z"
       style="fill:#ffffff"
       stroke="#bbbbbb"
       ac-name="Bhanupratappur (ST)" />
    <path
       data-id="ch-81"
       id="81"
       d="m 302.2825,756.8126 -5.5968,2.2009 -6.6347,-1.0159 -5.665,4.5974 -7.6429,1.8085 -12.8216,-5.4151 -5.3735,-7.1739 -6.4886,1.0526 -6.5674,4.3964 -12.7433,3.9688 -5.9628,-2.0634 -6.1094,-2.9769 -9.9067,-0.6396 -4.9991,4.0492 -7.5441,-7.3306 0.1787,-5.5334 3.2549,-5.2498 -2.7538,-12.1936 3.3182,-7.3418 9.1294,-0.9733 6.1265,2.3991 13.4665,-4.038 8.782,0.1091 6.8643,-4.8555 -2.7901,-8.8488 3.993,-4.1725 1.8299,-8.4105 0.595,-2.763 14.5394,-0.3424 4.2899,2.1179 9.9121,4.5562 8.3644,-0.029 -0.1766,10.8424 6.4483,7.2923 5.3491,11.7553 -6.3427,3.2061 4.9627,3.8058 -2.5177,11.2115 4.8049,3.204 z"
       style="fill:#ffffff"
       stroke="#bbbbbb"
       ac-name="Kanker (ST)" />
    <path
       data-id="ch-79"
       id="79"
       d="m 86.5269,752.7082 -1.2323,8.7154 2.4955,5.3566 12.1535,0.1834 1.4986,-7.1449 3.7678,-3.6045 4.853,0.9845 7.6111,6.2707 1.6343,4.9385 12.3786,2.0695 8.5883,-1.851 8.7917,-14.7301 9.1749,-1.077 -0.0904,4.5325 7.989,-1.7059 12.5769,0.9888 8.6608,6.8317 12.4849,1.451 5.9076,-5.3158 4.9991,-4.0492 9.9067,0.6396 6.1094,2.9769 -3.4501,7.8281 0.6331,7.1039 -3.3035,4.6449 -14.8547,6.4442 -1.5586,8.7965 5.4623,2.1537 -0.726,5.0229 4.3032,4.9094 5.1372,1.0966 5.7364,5.1497 -5.4046,5.2216 3.5269,3.2892 -9.8995,0.756 -8.5,6.4424 -11.0532,-1.3661 -8.3686,5.0182 -4.2147,-4.4669 -7.8846,3.2948 -0.7368,3.2619 4.0175,10.0625 -2.7833,4.906 -10.4779,-0.1311 -3.5948,-2.8163 -5.5074,-11.201 -6.4538,-8.5394 -10.955,1.1525 -9.5264,-21.709 -3.9189,-3.7499 -4.7046,0.7555 -3.6366,5.0317 -14.8537,7.7109 -5.3423,5.2594 3.9853,3.6536 5.527,-3.6455 7.1767,1.6102 -5.8921,8.4819 -4.8426,-3.3215 -8.6397,5.3202 -0.5988,7.3091 2.5525,7.3944 -9.7633,1.1224 -6.3206,-6.1938 -10.3997,-3.0888 -8.3858,-7.407 0.7098,-7.3755 -4.9455,-2.6037 -9.9535,0.9905 3.2922,-7.0476 1.0363,-7.4508 -7.8342,1.0764 -6.9822,-2.0834 -0.5464,-5.9858 7.8892,-3.6877 5.2951,4.2907 8.285,0.3143 4.9883,-9.7414 -1.0969,-5.3824 2.5649,-11.2353 -0.8755,-9.1256 6.1603,-11.426 5.5706,-1.3474 10.2821,-7.2277 z"
       style="fill:#ffffff"
       stroke="#bbbbbb"
       ac-name="Antagarh (ST)" />
    <path
       data-id="ch-82"
       id="82"
       d="m 302.2825,756.8126 6.3812,0.7725 0.0325,10.1447 4.4091,4.4669 2.1396,7.4282 -2.5696,4.326 -2.1173,10.8855 -0.2662,10.2533 6.7386,4.9253 -8.0783,6.4415 -16.5353,1.701 -8.6133,-3.5375 -4.4277,14.5758 3.475,2.8344 -7.3618,7.3585 3.7268,14.4703 -7.1084,2.3353 -17.3106,-6.8815 -8.6605,2.6335 -1.869,2.7776 -7.9028,-0.7834 -4.2253,-2.7346 0.2572,-8.6638 -16.0701,-1.8604 -2.5768,-1.5552 -1.2476,-12.549 9.7856,-5.7479 -3.5269,-3.2892 5.4046,-5.2216 -5.7364,-5.1497 -5.1372,-1.0966 -4.3032,-4.9094 0.726,-5.0229 -5.4623,-2.1537 1.5586,-8.7965 14.8547,-6.4442 3.3035,-4.6449 -0.6331,-7.1039 3.4501,-7.8281 5.9628,2.0634 12.7433,-3.9688 6.5674,-4.3964 6.4886,-1.0526 5.3735,7.1739 12.8216,5.4151 7.6429,-1.8085 5.665,-4.5974 6.6347,1.0159 z"
       style="fill:#ffffff"
       stroke="#bbbbbb"
       ac-name="Keshkal (ST)" />
    <path
       data-id="ch-84"
       id="84"
       d="m 222.2875,820.8296 -9.7856,5.7479 1.2476,12.549 2.5768,1.5552 16.0701,1.8604 -0.2572,8.6638 4.2253,2.7346 7.9028,0.7834 -6.6203,1.7537 -5.2314,6.1201 -0.7971,8.8166 6.7214,1.4904 7.1696,5.9118 3.8376,-0.6117 3.2808,-7.6371 15.0783,-0.6038 -1.0951,5.8052 5.4074,8.9443 8.6277,6.7126 -11.7675,4.9441 -0.6316,6.6516 -10.9591,10.677 4.5768,6.4615 8.3526,-8.5467 12.7595,-1.9442 4.386,-2.4583 6.1805,3.817 6.0618,0.0239 2.4262,-7.5836 -2.4632,-8.6871 5.5644,-8.9136 5.7902,3.6528 13.6912,5.9689 1.9878,9.9227 -0.7043,11.2733 -7.6936,5.1843 0.4684,7.98 -9.0199,-0.8642 -8.2494,8.8085 -8.1603,2.9951 -10.2099,0.5541 -8.8482,5.0229 -6.7429,-1.1857 -2.3801,-14.9681 -7.9422,-1.4015 -6.1098,2.7902 -1.6493,5.8842 -9.805,-0.78 -11.2151,-6.9078 -13.5894,-2.0954 3.062,-6.3055 -10.081,-3.7728 -17.1557,2.1395 -1.7143,6.1719 -5.1836,0.2556 -9.2831,5.5898 -9.6677,-3.4731 -5.0145,1.8202 1.6203,6.0721 -4.5506,1.7888 -5.9431,-2.4162 -10.5408,2.4255 0.9765,-4.3869 -2.8887,-12.5436 -12.6812,-1.2586 -0.4537,-3.2273 -11.1828,-2.1188 3.3388,-3.816 -6.3918,-2.9505 -0.9842,-9.2682 13.335,-3.4772 3.2744,-5.7253 -0.6325,-7.492 -7.4662,-0.6676 -4.1747,-8.4087 -11.3344,0.8401 -1.4628,-5.0271 -9.3355,-5.1518 -10.2553,0.7589 1.4183,-15.6506 9.7633,-1.1224 -2.5525,-7.3944 0.5988,-7.3091 8.6397,-5.3202 4.8426,3.3215 5.8921,-8.4819 -7.1767,-1.6102 -5.527,3.6455 -3.9853,-3.6536 5.3423,-5.2594 14.8537,-7.7109 3.6366,-5.0317 4.7046,-0.7555 3.9189,3.7499 9.5264,21.709 10.955,-1.1525 6.4538,8.5394 5.5074,11.201 3.5948,2.8163 10.4779,0.1311 2.7833,-4.906 -4.0175,-10.0625 0.7368,-3.2619 7.8846,-3.2948 4.2147,4.4669 8.3686,-5.0182 11.0532,1.3661 8.5,-6.4424 z"
       style="fill:#ffffff"
       stroke="#bbbbbb"
       ac-name="Narayanpur (ST)" />
    <path
       data-id="ch-83"
       id="83"
       d="m 317.0304,810.015 15.3686,6.3522 -0.5783,4.464 3.9814,6.8652 4.4429,-0.6606 10.6262,2.7263 -3.9045,15.5996 2.8583,15.3796 -3.7427,6.1167 1.5295,12.378 -3.1113,4.7739 -5.2879,2.7494 -1.9595,-6.2878 -10.1923,-2.1779 -5.8795,2.8179 -3.9494,-4.4413 -7.4714,-0.3242 -1.69,5.1701 2.8523,8.0043 -5.7902,-3.6528 -5.5644,8.9136 2.4632,8.6871 -2.4262,7.5836 -6.0618,-0.0239 -6.1805,-3.817 -4.386,2.4583 -12.7595,1.9442 -8.3526,8.5467 -4.5768,-6.4615 10.9591,-10.677 0.6316,-6.6516 11.7675,-4.9441 -8.6277,-6.7126 -5.4074,-8.9443 1.0951,-5.8052 -15.0783,0.6038 -3.2808,7.6371 -3.8376,0.6117 -7.1696,-5.9118 -6.7214,-1.4904 0.7971,-8.8166 5.2314,-6.1201 6.6203,-1.7537 1.869,-2.7776 8.6605,-2.6335 17.3106,6.8815 7.1084,-2.3353 -3.7268,-14.4703 7.3618,-7.3585 -3.475,-2.8344 4.4277,-14.5758 8.6133,3.5375 16.5353,-1.701 z"
       style="fill:#ffffff"
       stroke="#bbbbbb"
       ac-name="Kondagaon (ST)" />
    <path
       data-id="ch-85"
       id="85"
       d="m 344.5005,884.0099 13.1353,-1.7382 0.5478,9.7212 4.4565,7.0926 10.0048,-1.4214 2.2378,1.8843 -2.1364,9.2434 -0.3708,15.2649 -3.465,6.1634 -0.0791,7.7069 3.5572,2.5074 1.795,9.1887 -3.7449,5.9043 5.7819,2.7157 4.308,5.0694 -2.5645,6.7302 -3.8742,4.173 -7.3159,0.753 -8.3282,-2.1635 0.1457,-10.2861 -11.7444,-4.2294 -2.9164,-7.9235 -6.4593,-1.3422 -0.6909,4.6748 -8.0989,6.5066 -4.7163,-4.0489 -5.2606,-0.5304 -7.3096,-6.2692 -8.6242,1.9634 -8.7683,-6.0461 -0.7599,-4.4852 8.1603,-2.9951 8.2494,-8.8085 9.0199,0.8642 -0.4684,-7.98 7.6936,-5.1843 0.7043,-11.2733 -1.9878,-9.9227 -13.6912,-5.9689 -2.8523,-8.0043 1.69,-5.1701 7.4714,0.3242 3.9494,4.4413 5.8795,-2.8179 10.1923,2.1779 1.9595,6.2878 z"
       style="fill:#ffffff"
       stroke="#bbbbbb"
       ac-name="Bastar (ST)" />
    <path
       data-id="ch-89"
       id="89"
       d="m 114.0688,914.4625 11.1828,2.1188 0.4537,3.2273 12.6812,1.2586 2.8887,12.5436 -0.9765,4.3869 10.5408,-2.4255 5.9431,2.4162 4.5506,-1.7888 -1.6203,-6.0721 5.0145,-1.8202 9.6677,3.4731 9.2831,-5.5898 5.1836,-0.2556 1.7143,-6.1719 17.1557,-2.1395 10.081,3.7728 -3.062,6.3055 1.9183,4.6004 -2.7996,5.0003 9.5051,7.5357 9.0701,0.5999 5.2929,-4.8501 4.9218,1.8144 -0.9495,11.5205 -21.2898,-7.6537 -6.6567,6.5229 -5.1386,-1.0006 -5.3743,-6.2121 -15.8547,2.0474 -4.3328,6.409 0.5196,17.5767 -2.4791,6.743 1.089,7.4956 4.6794,3.415 -1.2514,18.5775 -3.3131,8.9905 2.3214,11.9728 -6.0609,9.4621 3.1159,7.7256 -2.1169,3.2083 -2.2111,11.7151 8.7396,-4.4616 -1.5729,9.6489 -5.5242,0.9106 -14.0585,-2.5594 -10.019,3.5096 -0.4781,5.903 -4.5895,3.9267 -4.6337,9.5587 -11.2939,8.1876 3.4075,3.4937 9.0219,3.1263 11.6198,1.6465 3.6169,7.2555 -1.7736,5.354 6.6228,9.2097 0.7308,3.9866 -11.4814,8.1969 -5.0324,-1.0903 -8.5851,7.4328 0.1083,-4.0412 -12.4677,6.5824 -9.1316,0.8165 -1.5615,-9.5212 1.4225,-8.3952 -8.1405,-1.1432 0.0913,8.6574 -4.7973,4.3956 -11.9325,-1.6477 0.0205,-8.7027 10.6712,-5.2736 -8.4377,-11.4368 -3.3113,-8.8045 0.0824,-8.8853 -6.343,-3.9244 -2.4626,-7.0754 -5.9329,-3.3938 -10.6669,-14.8329 -12.5506,-6.7873 -3.8008,-5.9604 -11.2649,-1.9252 -11.5868,4.6963 -9.8419,1.4859 -4.9924,-8.6399 -3.2451,-9.2539 L 1,1028.4933 l 6.2516,-2.034 4.3218,-5.2788 9.7304,-3.9869 -0.1808,-6.286 -4.2835,-6.2175 -10.9005,-11.5152 0.6204,-10.2461 6.0473,-6.4262 -1.5848,-4.1627 6.3041,-4.2284 1.9156,-5.7683 -2.3278,-6.6937 4.0091,-4.8939 7.3915,-3.7201 1.0117,-12.1017 7.3929,-2.2073 4.6598,-3.9736 6.0715,-12.7069 6.4718,-1.217 4.6718,-6.9994 6.985,-2.7759 1.8063,8.934 4.3,8.098 3.6106,0.5079 9.4783,-4.438 4.1522,9.2492 10.3571,-1.3787 3.7158,-4.8904 z"
       style="fill:#ffffff"
       stroke="#bbbbbb"
       ac-name="Bijapur (ST)" />
    <path
       data-id="ch-87"
       id="87"
       d="m 276.8259,1045.6793 8.0352,-4.4745 8.4831,1.8046 6.5364,5.8937 7.9939,-5.22 0.3428,-3.5879 9.1245,-4.2888 3.4733,3.8784 -3.2046,7.5157 -10.7168,3.2604 -5.4375,5.2162 -11.2223,1.3585 -6.9071,-2.197 -10.8454,-0.4091 0.5058,-6.8117 z m 16.4168,-104.8903 0.7599,4.4852 8.7683,6.0461 8.6242,-1.9634 7.3096,6.2692 5.2606,0.5304 4.7163,4.0489 -4.0824,9.8266 0.2942,6.3933 -6.8588,5.6114 -1.1465,6.472 -5.3754,6.767 -1.5295,8.8816 0.9122,5.7669 -10.5721,-0.2468 -1.4787,2.5118 6.4622,6.6197 -5.2803,12.1354 -5.2212,-2.7848 -3.014,-9.7952 -6.9809,-3.7207 -6.5057,0.9059 -3.6936,3.8255 -12.5479,-9.7238 -10.9989,-7.031 1.7649,-4.1351 -17.0318,-6.8368 2.9616,-5.0917 -2.4734,-5.1107 7.8353,-1.6617 -3.6418,-14.486 1.2308,-11.3752 0.9495,-11.5205 -4.9218,-1.8144 -5.2929,4.8501 -9.0701,-0.5999 -9.5051,-7.5357 2.7996,-5.0003 -1.9183,-4.6004 13.5894,2.0954 11.2151,6.9078 9.805,0.78 1.6493,-5.8842 6.1098,-2.7902 7.9422,1.4015 2.3801,14.9681 6.7429,1.1857 8.8482,-5.0229 z"
       style="fill:#ffffff"
       stroke="#bbbbbb"
       ac-name="Chitrakot (ST)" />
    <path
       data-id="ch-88"
       id="88"
       d="m 294.8053,1028.1595 -3.807,3.0919 -2.8096,7.0475 5.1555,4.7105 -8.4831,-1.8046 -8.0352,4.4745 -2.2442,-6.4405 -6.924,-3.0438 0.4512,-3.9627 -10.3748,-1.3127 -6.2064,10.23 2.1475,3.5184 -1.5578,9.8546 -9.6703,-3.2034 -6.3736,0.684 -3.5645,5.5086 -4.4182,1.6359 2.6785,6.3443 -2.8481,4.7525 2.2034,7.1317 -6.7693,-0.6138 -3.5831,8.4377 0.4107,5.3656 -8.088,-0.8631 -5.4112,-3.5654 -7.0565,-8.4174 -3.9687,-8.1147 -5.9108,-0.049 -5.2252,-3.4507 1.5729,-9.6489 -8.7396,4.4616 2.2111,-11.7151 2.1169,-3.2083 -3.1159,-7.7256 6.0609,-9.4621 -2.3214,-11.9728 3.3131,-8.9905 1.2514,-18.5775 -4.6794,-3.415 -1.089,-7.4956 2.4791,-6.743 -0.5196,-17.5767 4.3328,-6.409 15.8547,-2.0474 5.3743,6.2121 5.1386,1.0006 6.6567,-6.5229 21.2898,7.6537 -1.2308,11.3752 3.6418,14.486 -7.8353,1.6617 2.4734,5.1107 -2.9616,5.0917 17.0318,6.8368 -1.7649,4.1351 10.9989,7.031 12.5479,9.7238 3.6936,-3.8255 6.5057,-0.9059 6.9809,3.7207 z"
       style="fill:#ffffff"
       stroke="#bbbbbb"
       ac-name="Dantewara (ST)" />
    <path
       data-id="ch-86"
       id="86"
       d="m 377.9641,970.0427 5.1734,8.0899 2.5767,19.0136 -5.2936,-0.6657 -8.1148,3.8463 -3.1175,7.9345 1.7332,4.8163 -1.5836,9.043 -13.313,4.5462 -1.3332,8.6509 -9.1945,-1.3032 -13.2643,5.9534 -4.8728,-4.5121 2.8062,-6.5278 -6.9969,-4.0361 -13.7926,7.4011 -9.3503,-1.3487 5.2803,-12.1354 -6.4622,-6.6197 1.4787,-2.5118 10.5721,0.2468 -0.9122,-5.7669 1.5295,-8.8816 5.3754,-6.767 1.1465,-6.472 6.8588,-5.6114 -0.2942,-6.3933 4.0824,-9.8266 8.0989,-6.5066 0.6909,-4.6748 6.4593,1.3422 2.9164,7.9235 11.7444,4.2294 -0.1457,10.2861 8.3282,2.1635 7.3159,-0.753 z"
       style="fill:#ffffff"
       stroke="#bbbbbb"
       ac-name="Jagdalpur" />
    <path
       data-id="ch-90"
       id="90"
       d="m 332.2329,1039.9679 0.2074,4.3795 -3.8624,5.7781 -10.5402,0.3445 9.1325,7.6744 1.5612,5.723 -8.4399,1.5378 0.6087,4.9939 -7.8259,2.5422 -2.078,6.1885 -16.948,14.3289 -3.6143,12.6032 -17.488,1.1767 -1.6878,4.8199 -10.1014,2.3719 -6.4318,6.5276 -5.5123,1.2552 -5.5496,15.7505 3.3815,4.2762 -2.2287,5.1681 0.0822,7.2003 -6.3758,9.5925 0.5602,14.0241 -6.5971,8.8231 0.7627,4.6686 -3.4811,5.0203 -5.2188,-2.9216 -2.5352,5.0156 -0.3922,14.5751 -7.3536,-3.4819 -16.9002,0.5369 -12.8431,-7.2076 -6.3765,-2.0508 -13.1623,8.6944 -4.6895,4.9827 -5.6951,0.7126 -6.7873,-2.9474 -2.2843,-9.6697 0.3768,-13.2723 -2.0611,-5.1394 -3.582,-19.6571 -3.8048,-7.0033 1.2024,-8.8803 4.4126,-4.8689 8.5851,-7.4328 5.0324,1.0903 11.4814,-8.1969 -0.7308,-3.9866 -6.6228,-9.2097 1.7736,-5.354 -3.6169,-7.2555 -11.6198,-1.6465 -9.0219,-3.1263 -3.4075,-3.4937 11.2939,-8.1876 4.6337,-9.5587 4.5895,-3.9267 0.4781,-5.903 10.019,-3.5096 14.0585,2.5594 5.5242,-0.9106 5.2252,3.4507 5.9108,0.049 3.9687,8.1147 7.0565,8.4174 5.4112,3.5654 8.088,0.8631 -0.4107,-5.3656 3.5831,-8.4377 6.7693,0.6138 -2.2034,-7.1317 2.8481,-4.7525 -2.6785,-6.3443 4.4182,-1.6359 3.5645,-5.5086 6.3736,-0.684 9.6703,3.2034 1.5578,-9.8546 -2.1475,-3.5184 6.2064,-10.23 10.3748,1.3127 -0.4512,3.9627 6.924,3.0438 2.2442,6.4405 -3.8387,1.9385 -0.5058,6.8117 10.8454,0.4091 6.9071,2.197 11.2223,-1.3585 5.4375,-5.2162 10.7168,-3.2604 3.2046,-7.5157 -3.4733,-3.8784 -9.1245,4.2888 -0.3428,3.5879 -7.9939,5.22 -6.5364,-5.8937 -5.1555,-4.7105 2.8096,-7.0475 3.807,-3.0919 5.2212,2.7848 9.3503,1.3487 13.7926,-7.4011 6.9969,4.0361 -2.8062,6.5278 z"
       style="fill:#ffffff"
       stroke="#bbbbbb"
       ac-name="Konta (ST)" />
  </g>
  <text
     xml:space="preserve"
     style="font-style:normal;font-weight:normal;font-size:26.6667px;line-height:1.25;font-family:sans-serif;fill:#000000;fill-opacity:1;stroke:none"
     x="69.951454"
     y="77.019394"
     id="text2102"><tspan
       sodipodi:role="line"
       id="tspan2100"
       x="69.951454"
       y="77.019394"
       style="font-size:26.6667px">Chhattisgarh</tspan></text>
</svg>
