<?xml version="1.0" encoding="UTF-8" standalone="no"?>
<!-- Created with Inkscape (http://www.inkscape.org/) -->
<svg
   xmlns:dc="http://purl.org/dc/elements/1.1/"
   xmlns:cc="http://creativecommons.org/ns#"
   xmlns:rdf="http://www.w3.org/1999/02/22-rdf-syntax-ns#"
   xmlns:svg="http://www.w3.org/2000/svg"
   xmlns="http://www.w3.org/2000/svg"
   xmlns:sodipodi="http://sodipodi.sourceforge.net/DTD/sodipodi-0.dtd"
   xmlns:inkscape="http://www.inkscape.org/namespaces/inkscape"
   version="1.0"
   width="376.99997"
   height="535.50006"
   id="svg2"
   sodipodi:version="0.32"
   inkscape:version="0.46"
   sodipodi:docname="Kohima-Imphal.svg"
   inkscape:output_extension="org.inkscape.output.svg.inkscape">
  <metadata
     id="metadata10">
    <rdf:RDF>
      <cc:Work
         rdf:about="">
        <dc:format>image/svg+xml</dc:format>
        <dc:type
           rdf:resource="http://purl.org/dc/dcmitype/StillImage" />
      </cc:Work>
    </rdf:RDF>
  </metadata>
  <sodipodi:namedview
     inkscape:window-height="850"
     inkscape:window-width="1436"
     inkscape:pageshadow="2"
     inkscape:pageopacity="0.0"
     guidetolerance="10.0"
     gridtolerance="10.0"
     objecttolerance="10.0"
     borderopacity="1.0"
     bordercolor="#666666"
     pagecolor="#ffffff"
     id="base"
     showgrid="false"
     showguides="true"
     inkscape:guide-bbox="true"
     inkscape:zoom="1.2007468"
     inkscape:cx="188.49998"
     inkscape:cy="267.75002"
     inkscape:window-x="0"
     inkscape:window-y="14"
     inkscape:current-layer="svg2" />
  <defs
     id="defs4">
    <inkscape:perspective
       sodipodi:type="inkscape:persp3d"
       inkscape:vp_x="0 : 267.75003 : 1"
       inkscape:vp_y="0 : 1000 : 0"
       inkscape:vp_z="376.99997 : 267.75003 : 1"
       inkscape:persp3d-origin="188.49998 : 178.50002 : 1"
       id="perspective12" />
    <inkscape:perspective
       id="perspective3007"
       inkscape:persp3d-origin="450 : 200 : 1"
       inkscape:vp_z="900 : 300 : 1"
       inkscape:vp_y="0 : 1000 : 0"
       inkscape:vp_x="0 : 300 : 1"
       sodipodi:type="inkscape:persp3d" />
  </defs>
  <path
     d="M 2e-05,267.75003 L 2e-05,0.24419 L 188.50002,0.24419 L 376.99995,0.24419 L 376.99995,267.72542 L 376.99995,535.20665 L 188.50002,535.23125 L 2e-05,535.25585 L 2e-05,267.75003 z M 148.77612,258.31204 C 150.02802,257.67061 153.50152,253.38822 156.49492,248.79561 L 161.93752,240.44542 L 169.03452,237.66102 L 176.13152,234.87663 L 178.61902,231.92039 C 179.98712,230.29446 180.92112,228.46466 180.69442,227.85417 C 180.46782,227.24368 178.56842,218.86919 176.47342,209.24419 C 174.37842,199.61919 172.51492,191.55669 172.33222,191.32752 C 171.57082,190.37264 171.10562,192.18553 170.04342,200.24584 L 168.92352,208.74419 L 165.80292,216.60936 L 162.68232,224.47453 L 160.86342,222.10936 C 159.86292,220.80852 159.03442,219.41397 159.02222,219.01037 C 159.01002,218.60677 157.47302,219.00471 155.60672,219.89469 L 152.21342,221.51283 L 151.48222,236.61071 L 150.75102,251.70858 L 148.05842,248.4833 L 145.36582,245.25802 L 142.98702,248.47557 C 140.38672,251.99272 140.24692,253.79577 142.12652,259.57317 L 143.37222,263.40215 L 144.93612,261.44021 C 145.79622,260.36114 147.52422,258.95347 148.77612,258.31204 z M 375.99995,131.24419 L 375.99995,1.24419 L 188.50002,1.24419 L 1.00002,1.24419 L 1.00002,22.69887 L 1.00002,44.15356 L 4.25002,44.71148 C 6.03752,45.01834 12.14442,45.94396 17.82082,46.76842 L 28.14162,48.26743 L 40.32082,46.23448 C 47.01942,45.11637 53.71122,43.95616 55.19152,43.65626 L 57.88302,43.11098 L 59.55722,48.42758 C 60.47802,51.35171 61.51692,56.78913 61.86572,60.51072 L 62.50002,67.27725 L 65.65912,65.02638 L 68.81832,62.77552 L 73.07902,54.08292 L 77.33972,45.39032 L 83.41992,44.3895 C 86.76392,43.83905 91.36212,43.10013 93.63802,42.74746 L 97.77592,42.10624 L 104.86672,45.67707 L 111.95742,49.2479 L 113.99902,45.24604 C 115.12192,43.04502 116.23152,41.24419 116.46492,41.24419 C 116.69822,41.24419 120.36872,42.82986 124.62152,44.76791 L 132.35382,48.29164 L 142.92692,44.72931 L 153.50002,41.16697 L 159.21092,35.78532 L 164.92192,30.40368 L 162.46572,16.65246 C 161.11482,9.08929 160.18962,2.72122 160.40962,2.50121 C 160.87082,2.03999 161.31922,4.15361 163.53742,17.24419 C 164.42272,22.46919 165.35342,27.38101 165.60552,28.15934 L 166.06392,29.5745 L 169.28192,26.5281 C 171.05192,24.85258 177.19582,20.75573 182.93522,17.42398 L 193.37042,11.36627 L 201.06772,18.30523 L 208.76492,25.24419 L 220.59032,25.24419 L 232.41562,25.24419 L 236.06332,21.68229 L 239.71112,18.12039 L 246.28112,21.36024 L 252.85122,24.60008 L 249.43172,28.59495 C 247.55102,30.79213 246.18582,32.76341 246.39802,32.97558 C 246.61022,33.18775 248.46242,32.65999 250.51402,31.80277 C 252.56562,30.94555 254.37292,30.24419 254.53032,30.24419 C 255.27132,30.24419 258.93839,42.76665 258.26689,43.00415 C 255.12152,44.11664 252.58662,46.07837 251.91362,47.92094 L 251.11862,50.0977 L 257.75509,50.80841 L 264.39159,51.51912 L 271.35648,54.39121 L 278.32136,57.26329 L 279.91065,55.88224 C 280.78477,55.12266 282.56379,53.95005 283.86404,53.27644 L 286.22812,52.0517 L 290.61404,56.35615 L 294.99995,60.6606 L 294.99995,66.2653 L 294.99995,71.87 L 297.89822,74.64672 L 300.79649,77.42344 L 302.9569,76.26722 L 305.11731,75.11101 L 310.14838,78.33943 L 315.17944,81.56786 L 314.60472,84.65602 C 314.28863,86.35451 313.77555,94.04419 313.46456,101.74419 L 312.89912,115.74419 L 308.76945,124.44191 L 304.63978,133.13963 L 303.71614,132.56878 C 303.20814,132.25482 303.57747,133.19596 304.53688,134.66021 L 306.28127,137.32248 L 306.39061,143.23731 L 306.49995,149.15214 L 308.49995,148.72097 C 309.59995,148.48383 313.42495,147.81477 316.99995,147.23418 C 320.57495,146.65359 324.84995,145.91576 326.49995,145.59456 C 328.14995,145.27336 329.22237,145.3032 328.88311,145.66088 C 328.42344,146.1455 307.40138,150.19654 305.13332,150.23756 C 304.93167,150.24121 305.01188,149.30657 305.31156,148.16059 L 305.85643,146.07699 L 302.67819,149.47643 C 300.93016,151.34612 300.13219,152.05874 300.90494,151.06003 C 303.0349,148.30722 301.67231,148.88881 298.92426,151.90544 C 297.59089,153.36913 297.06245,154.24257 297.74995,153.84642 L 298.99995,153.12616 L 298.99995,154.12616 C 298.99995,154.67616 298.48874,155.4421 297.86392,155.82826 L 296.72789,156.53037 L 299.11392,158.33016 C 300.42624,159.32004 301.49995,160.60565 301.49995,161.18707 C 301.49995,161.76848 301.94995,162.28857 302.49995,162.3428 C 303.04995,162.39704 304.24328,162.83923 305.15179,163.32545 L 306.80364,164.20949 L 306.28516,162.22684 C 306,161.13638 306.15667,160.25294 306.63332,160.26363 C 309.97082,160.33851 327.28842,163.20586 327.82865,163.77304 C 328.19787,164.16067 327.14995,164.2173 325.49995,163.89888 C 323.84995,163.58046 320.24995,163.04895 317.49995,162.71773 C 314.74995,162.38651 311.37495,161.90961 309.99995,161.65795 L 307.49995,161.20039 L 307.2058,170.22229 L 306.91165,179.24419 L 312.7058,179.28174 L 318.49995,179.31928 L 314.70064,182.57301 L 310.90133,185.82674 L 314.60601,187.59337 L 318.31069,189.36001 L 313.65045,194.09139 L 308.99021,198.82278 L 314.4041,201.478 L 319.81799,204.13322 L 323.50274,203.11581 C 325.52935,202.55623 327.3796,202.29051 327.6144,202.5253 C 327.84919,202.7601 327.55757,207.29032 326.96635,212.59246 L 325.89139,222.23271 L 322.51674,229.63791 L 319.14208,237.04312 L 327.96804,237.74166 L 336.79399,238.44021 L 337.48345,243.95844 L 338.17291,249.47666 L 340.07518,249.97411 C 341.12143,250.24772 341.77113,250.8054 341.51896,251.21342 C 341.2668,251.62144 342.23874,251.73004 343.67884,251.45474 L 346.2972,250.95421 L 345.64719,252.00594 L 344.99719,253.05767 L 347.15494,252.49341 L 349.31269,251.92914 L 348.65494,252.99341 L 347.99719,254.05767 L 350.15494,253.49341 L 352.31269,252.92914 L 351.59917,254.08364 L 350.88565,255.23814 L 353.52672,254.23401 C 354.9793,253.68174 356.64955,253.52763 357.23837,253.89154 L 358.30897,254.55321 L 357.6602,253.50348 L 357.01144,252.45376 L 358.59594,251.84573 C 359.46741,251.51131 360.65935,251.53369 361.2447,251.89545 L 362.30897,252.55321 L 361.6602,251.50348 L 361.01144,250.45376 L 362.59594,249.84573 C 363.46741,249.51131 364.65935,249.53369 365.2447,249.89545 L 366.30897,250.55321 L 365.6602,249.50348 L 365.01144,248.45376 L 366.64882,247.82544 C 367.54938,247.47986 368.35593,247.32021 368.44115,247.47065 C 368.52636,247.6211 370.10428,250.78169 371.94763,254.49419 C 373.79098,258.20669 375.45685,261.24419 375.64956,261.24419 C 375.84228,261.24419 375.99995,202.74419 375.99995,131.24419 z M 372.95411,258.15854 C 372.3402,257.01144 371.58524,256.32556 371.27643,256.63438 C 370.96761,256.94319 371.28417,257.88173 371.97989,258.72002 C 373.77771,260.88626 374.26396,260.60601 372.95411,258.15854 z M 369.99995,253.24419 C 369.41125,252.14419 368.70458,251.24419 368.42958,251.24419 C 368.15458,251.24419 368.41125,252.14419 368.99995,253.24419 C 369.58865,254.34419 370.29532,255.24419 370.57032,255.24419 C 370.84532,255.24419 370.58865,254.34419 369.99995,253.24419 z M 147.72152,246.83653 L 149.79132,249.67793 L 150.52622,235.41477 L 151.26112,221.15162 L 154.97812,219.25532 L 158.69522,217.35902 L 160.63082,219.95152 L 162.56632,222.54402 L 165.23512,215.64411 C 166.70292,211.84915 168.40102,205.00199 169.00862,200.42818 C 170.22072,191.30432 170.84062,189.02765 171.92942,189.70057 C 172.77382,190.22245 169.88812,178.60043 167.67952,172.5846 C 166.83972,170.29682 166.41822,168.15932 166.74292,167.8346 C 167.06762,167.50987 169.07272,167.24419 171.19872,167.24419 C 175.39592,167.24419 181.96632,164.89611 183.19962,162.9554 C 183.62292,162.28924 183.97622,159.78192 183.98462,157.38359 L 184.00002,153.02299 L 179.75002,146.88359 L 175.50002,140.74419 L 175.79802,135.61681 L 176.09602,130.48942 L 181.03612,130.01474 L 185.97622,129.54005 L 190.90172,124.93286 C 193.61072,122.3989 196.89572,120.05747 198.20182,119.72967 L 200.57642,119.13369 L 205.37112,121.18894 C 208.00812,122.31933 211.26762,123.24419 212.61422,123.24419 L 215.06272,123.24419 L 215.67032,121.49419 C 216.00452,120.53169 218.49402,114.51165 221.20252,108.11633 L 226.12712,96.48847 L 236.31352,91.76598 C 241.91612,89.1686 246.98232,86.84625 247.57182,86.6052 C 248.16142,86.36414 249.16422,87.3093 249.80042,88.70555 L 250.95712,91.24419 L 255.87439,91.24419 L 260.79179,91.24419 L 261.49029,83.35282 L 262.18889,75.46146 L 269.59441,74.7675 C 273.66746,74.38583 276.99995,73.89782 276.99995,73.68304 C 276.99995,73.46825 276.12582,71.85513 275.05744,70.09832 L 273.11493,66.90412 L 275.65779,62.56506 L 278.20066,58.22599 L 274.8503,56.83955 C 273.00761,56.077 269.884,54.78395 267.90894,53.9661 C 265.93389,53.14825 261.09639,52.15558 257.15889,51.76015 C 253.22152,51.36473 250.00002,50.92902 250.00002,50.79192 C 250.00002,50.65481 250.48262,49.15812 251.07252,47.46595 L 252.14502,44.38926 L 255.04932,43.37682 L 257.95359,42.36437 L 256.46009,38.05428 C 255.63869,35.68373 254.76312,33.1812 254.51432,32.4931 L 254.06192,31.24201 L 248.40652,33.7431 C 245.29602,35.1187 242.54732,36.24419 242.29822,36.24419 C 242.04912,36.24419 243.96912,33.75822 246.56492,30.71981 C 249.16072,27.68141 251.10802,25.03554 250.89232,24.84011 C 250.67652,24.64468 248.08102,23.26946 245.12452,21.78406 L 239.74902,19.08333 L 236.08232,22.66376 L 232.41562,26.24419 L 220.59032,26.24419 L 208.76492,26.24419 L 201.06772,19.30523 L 193.37042,12.36627 L 182.93522,18.45385 L 172.50002,24.54143 L 162.81382,33.44395 L 153.12762,42.34648 L 142.74782,45.8223 L 132.36802,49.29812 L 124.62862,45.77115 C 120.37192,43.83132 116.75742,42.24419 116.59642,42.24419 C 116.43542,42.24419 115.49202,44.04419 114.50002,46.24419 C 113.50792,48.44419 112.52832,50.24419 112.32312,50.24419 C 112.11792,50.24419 108.77292,48.64421 104.88972,46.68867 L 97.82942,43.13316 L 90.16472,44.26429 C 85.94912,44.88641 81.46462,45.64091 80.19912,45.94096 L 77.89832,46.48651 L 73.50502,55.11535 L 69.11172,63.74419 L 65.05592,66.55904 L 61.00002,69.37389 L 61.00002,63.21295 C 61.00002,57.5751 58.67782,46.67126 57.13932,45.0851 C 56.78772,44.7226 50.20002,45.50997 42.50002,46.83482 L 28.50002,49.24364 L 17.50002,47.70727 C 11.45002,46.86226 5.26252,45.92663 3.75002,45.62809 L 1.00002,45.08527 L 1.00002,137.55451 L 1.00002,230.02374 L 7.66822,228.3409 L 14.33642,226.65805 L 15.17282,225.20112 C 15.63282,224.39981 16.87532,221.71919 17.93392,219.24419 L 19.85872,214.74419 L 19.97452,218.24419 L 20.09022,221.74419 L 21.41032,218.74419 L 22.73032,215.74419 L 23.44382,220.74419 C 23.83622,223.49419 24.25892,226.15509 24.38302,226.6573 C 24.50722,227.1595 25.20732,224.9095 25.93882,221.6573 L 27.26882,215.74419 L 28.60512,218.74419 C 29.34012,220.39419 30.60662,223.43169 31.41972,225.49419 L 32.89792,229.24419 L 35.01642,229.24419 L 37.13482,229.24419 L 36.65472,227.49419 C 35.67582,223.92583 34.92632,218.24419 35.43442,218.24419 C 35.72322,218.24419 37.71762,218.94764 39.86642,219.80741 L 43.77332,221.37063 L 47.13662,226.37595 L 50.50002,231.38126 L 61.50002,230.76425 C 73.01462,230.11837 96.40192,228.22282 96.59192,227.92005 C 96.65262,227.82333 98.58112,224.54798 100.87762,220.64149 L 105.05292,213.5388 L 104.00072,204.25056 C 103.42202,199.14203 103.07262,194.84157 103.22422,194.69399 C 103.37592,194.54641 107.70532,197.53483 112.84522,201.33493 C 117.98512,205.13502 122.64032,208.24419 123.19002,208.24419 C 123.73972,208.24419 127.33472,209.19952 131.17882,210.36714 L 138.16822,212.49009 L 137.48922,221.61714 L 136.81032,230.74419 L 137.91772,237.24419 C 138.52672,240.81919 139.28422,245.31 139.60092,247.22377 L 140.17672,250.70336 L 142.91422,247.34924 L 145.65172,243.99512 L 147.72152,246.83653 z M 336.4263,243.50898 L 335.78632,239.50677 L 329.72836,238.87359 C 326.39648,238.52534 323.53122,238.37959 323.36111,238.5497 C 323.191,238.7198 325.96515,240.56321 329.52589,242.64615 C 333.08662,244.72909 335.99995,246.91576 335.99995,247.50542 C 335.99995,248.09508 336.23987,248.3376 336.53312,248.04436 C 336.82636,247.75112 336.77829,245.7102 336.4263,243.50898 z M 321.93705,228.72263 L 324.89407,222.20108 L 325.9183,213.02726 C 326.48163,207.98165 326.81314,203.72405 326.65501,203.56591 C 326.49687,203.40778 324.88692,203.70301 323.07735,204.22199 L 319.78721,205.16559 L 313.76118,202.12366 L 307.73515,199.08173 L 312.38795,194.3579 L 317.04075,189.63407 L 313.27035,187.83334 L 309.49995,186.0326 L 312.96218,183.1384 L 316.4244,180.24419 L 311.55882,180.24419 L 306.69324,180.24419 L 307.34009,196.49419 L 307.98694,212.74419 L 313.24344,223.94276 C 316.13452,230.10198 318.60797,235.16448 318.73999,235.19276 C 318.87202,235.22105 320.3107,232.30949 321.93705,228.72263 z M 19.60422,222.51502 C 19.27192,222.18273 19.03552,222.77336 19.07892,223.82752 L 19.15792,225.74419 L 19.68312,224.43169 C 19.97202,223.70981 19.93652,222.84732 19.60422,222.51502 z M 128.89062,219.58483 L 130.10232,216.92547 L 128.80112,216.10014 C 126.50282,214.64235 125.23292,215.17986 124.55042,217.89933 L 123.88402,220.55448 L 125.19202,221.38402 C 127.18752,222.64964 127.58152,222.45799 128.89062,219.58483 z M 308.24727,123.49419 L 311.89504,115.74419 L 312.46252,101.74419 C 312.77464,94.04419 313.27417,86.39419 313.57261,84.74419 L 314.11521,81.74419 L 309.60608,78.93305 L 305.09695,76.1219 L 302.94144,77.2755 L 300.78594,78.42909 L 297.39294,75.14047 L 293.99995,71.85185 L 293.99995,66.25097 L 293.99995,60.65008 L 290.11392,56.85548 L 286.2279,53.06088 L 283.50902,54.48544 L 280.79014,55.91001 L 277.44766,61.3271 L 274.10517,66.74419 L 276.52067,70.86784 L 278.93617,74.9915 L 271.03127,75.68105 L 263.12639,76.37061 L 262.43399,84.3074 L 261.74169,92.24419 L 256.03129,92.24419 L 250.32102,92.24419 L 249.20002,89.78384 L 248.07902,87.3235 L 238.28952,91.84915 C 232.90522,94.33825 227.96182,96.9079 227.30402,97.55949 C 225.99102,98.86011 217.00002,119.47137 217.00002,121.18067 C 217.00002,123.28245 220.68202,122.18549 223.50002,119.24419 L 226.37412,116.24419 L 234.93702,116.16519 C 243.06962,116.09017 256.22169,114.35579 257.37059,113.20685 C 257.66469,112.91278 257.00289,109.14958 255.89999,104.84419 C 254.79702,100.5388 254.08812,96.82274 254.32452,96.58629 C 254.56102,96.34983 255.75319,100.19862 256.97399,105.13914 L 259.19359,114.12191 L 258.44219,115.33756 L 257.69089,116.55321 L 258.99039,115.75007 L 260.28989,114.94694 L 259.78939,117.5653 L 259.28889,120.18367 L 260.14439,119.65491 C 260.61499,119.3641 260.99999,119.60271 260.99999,120.18517 C 260.99999,120.76763 260.46249,121.24419 259.80569,121.24419 C 259.14879,121.24419 260.04279,122.30023 261.79219,123.59095 C 263.54169,124.88167 264.86659,126.11917 264.73649,126.34095 C 264.60639,126.56273 264.67159,126.64752 264.88139,126.52937 C 265.09125,126.41122 266.10375,126.76456 267.13143,127.31456 L 268.99995,128.31456 L 268.99995,127.22036 L 268.99995,126.12616 L 270.24995,126.8455 L 271.49995,127.56484 L 270.78513,126.77303 C 269.81077,125.69372 271.8651,122.04282 273.03867,122.76812 L 273.97704,123.34807 L 273.31856,121.63208 L 272.66007,119.9161 L 273.62243,120.51087 L 274.58478,121.10563 L 274.72177,119.28699 L 274.85877,117.46835 L 272.87582,117.9869 L 270.89287,118.50545 L 271.56128,110.62482 C 271.92891,106.29047 272.61155,101.16919 273.07827,99.24419 L 273.92686,95.74419 L 273.50707,100.74419 C 273.27619,103.49419 272.80498,108.37397 272.45992,111.58814 L 271.83256,117.43209 L 273.84267,116.79411 L 275.85277,116.15613 L 289.17636,122.81786 C 296.50433,126.48182 302.64995,129.87663 302.83328,130.36189 C 303.59044,132.36599 304.78431,130.85154 308.24727,123.49419 z"
     id="path4440"
     style="fill:#efcc5c"
     sodipodi:nodetypes="cccccccccccccccssscccccsccccccccccccccccccccccccccccccccccccscccccccssccccccccccccccssssccccccccccccccccccccccccccccccsssscccssccccccsscccsssscccccccccccccccscccccccccsccccccccccccccccccccccccccccsssccssccsssccccccccccssssssccccccccccccccccccscccccccscccccsssccccccccssscccccccccccccccsssccccccccccscccccccccccccccccsccccccccscccccscccssscccccccccccccssssccccscccccccccccccccscccccccccccccccccccccccccccccccccccccccccccsscccssscccccccccsssssccccccccccccccccccccccccccsc" />
  <path
     sodipodi:nodetypes="cccccccccccccccssscccccscccccscccccsccccccccccccccccccccccscccscccccccccccccccccccccsccccccccccccccccccccccccccccccccsccccccccccssscccscccccscccccccccsccccccccccccccccccccccccscccscccccccccccscccccccccccccccccscccccsssscccssssscccccccccccsccccccccccccccccccssscccscccccccccccsccccscccccccccccccccccccsscccssssssscccccccccccccccccccccccccccccccccccccccccccscccccccssccccccccccccccsssscccccccccccccccccccccccccscccccccccccccccccccccscccccccccccsssccccccccccsssscccccssssscccsccccccccccscccccscccccccsscccscccccccscccccsssccccccccssscccccccccccccccsssccccccccccscccccccccccccccccsccccccccscccccscccssscccccccccccccccccccccc"
     style="fill:#3165fb"
     id="path3542"
     d="M 3e-05,267.75001 L 3e-05,0.23006 L 188.50002,0.23006 L 376.99996,0.23006 L 376.99996,267.66095 L 376.99996,535.09184 L 188.50002,535.18084 L 3e-05,535.26994 L 3e-05,267.75001 z M 307.45661,512.33644 L 306.73389,491.44284 L 308.61693,490.36994 C 309.65259,489.77984 311.06344,488.91724 311.75214,488.45314 L 313.00433,487.60934 L 311.47682,476.72764 C 310.63669,470.74274 309.84821,465.76294 309.72464,465.66134 C 309.60106,465.55974 306.91246,464.02814 303.74996,462.25784 C 300.58746,460.48754 297.99996,458.89304 297.99996,458.71454 C 297.99996,458.53604 296.87229,453.17434 295.49404,446.79964 L 292.98811,435.20924 L 296.95665,427.31614 L 300.92518,419.42314 L 301.93069,413.17954 C 302.96841,406.73594 302.73572,405.24104 300.69094,405.21474 C 300.0359,405.20634 298.90403,404.82154 298.17568,404.35984 L 296.8514,403.52014 L 293.55272,390.62514 L 290.25404,377.73004 L 280.627,357.85504 C 275.33213,346.92374 270.99996,337.81124 270.99996,337.60504 C 270.99996,337.39874 272.49161,337.23004 274.31475,337.23004 L 277.62954,337.23004 L 279.45672,333.48004 L 281.2839,329.73004 L 281.45757,318.49774 C 281.55308,312.31994 281.83083,307.06584 282.07478,306.82194 C 282.31874,306.57794 288.1392,305.86644 295.00915,305.24074 L 307.49996,304.10314 L 311.15575,300.55564 L 314.81154,297.00814 L 321.65575,297.68284 L 328.49996,298.35744 L 333.46237,293.29374 L 338.42478,288.23004 L 343.96237,288.19864 L 349.49996,288.16724 L 351.08987,285.94864 C 355.97315,279.13445 365.12408,264.99425 367.73385,260.23006 L 370.74668,254.73006 L 369.36668,251.47083 L 367.98669,248.2116 L 360.96912,251.74559 L 353.95155,255.27958 L 345.58768,252.72845 L 337.22382,250.17731 L 336.54869,244.77381 L 335.87357,239.37032 L 326.93677,238.6712 C 322.02152,238.28669 317.99996,237.83006 317.99996,237.65648 C 317.99996,237.48289 319.55028,233.93891 321.44511,229.78097 L 324.89027,222.22108 L 325.9164,213.03019 C 326.48078,207.9752 326.81315,203.70992 326.65502,203.55178 C 326.49688,203.39365 324.88693,203.68888 323.07736,204.20786 L 319.78722,205.15146 L 313.76119,202.10953 L 307.73516,199.0676 L 312.38796,194.34377 L 317.04076,189.61994 L 313.27036,187.81921 L 309.49996,186.01847 L 312.99996,183.03935 L 316.49996,180.06022 L 301.49996,180.7394 L 286.49996,181.41858 L 283.49996,184.81847 L 280.49996,188.21836 L 278.13638,186.38423 L 275.77279,184.55011 L 280.37948,180.77527 L 284.98616,177.00044 L 281.99027,173.21782 L 278.99437,169.4352 L 280.497,161.58263 C 281.32344,157.26372 281.99969,153.67119 281.99979,153.59924 C 281.99988,153.52728 286.31962,149.92728 291.59921,145.59924 L 301.19845,137.73006 L 306.4604,127.23006 L 311.72234,116.73006 L 312.37142,102.23006 C 312.72842,94.25506 313.26681,86.38006 313.56786,84.73006 L 314.11522,81.73006 L 309.60609,78.91892 L 305.09696,76.10778 L 302.94145,77.26137 L 300.78595,78.41496 L 297.39295,75.12634 L 293.99996,71.83772 L 293.99996,66.23684 L 293.99996,60.63595 L 290.11393,56.84135 L 286.22791,53.04675 L 283.50903,54.47131 L 280.79015,55.89588 L 277.44767,61.31297 L 274.10518,66.73006 L 276.52068,70.85371 L 278.93618,74.97737 L 271.03128,75.66692 L 263.1264,76.35648 L 262.434,84.29327 L 261.7417,92.23006 L 256.0313,92.23006 L 250.32103,92.23006 L 249.20003,89.76972 L 248.07903,87.30938 L 238.28953,91.83502 C 232.90523,94.32412 227.96793,96.89377 227.31773,97.54536 C 225.31893,99.54823 218.11423,117.13993 214.96413,127.70919 L 211.97743,137.73006 L 210.23872,139.04853 C 209.28242,139.77368 207.90052,140.71224 207.16792,141.13421 L 205.83582,141.90143 L 207.44952,145.76353 L 209.06322,149.62563 L 208.42312,153.89395 L 207.78302,158.16228 L 200.89152,166.93924 C 197.10112,171.76658 194.00002,176.48027 194.00002,177.41412 C 194.00002,178.34797 193.55002,179.39014 193.00002,179.73006 C 192.45002,180.06998 191.99312,181.10904 191.98462,182.03908 C 191.97622,182.96912 191.58422,184.33786 191.11342,185.08073 L 190.25752,186.4314 L 184.16482,184.20989 C 180.81382,182.98807 177.36902,182.25821 176.50962,182.58798 C 174.06172,183.52734 171.20932,191.36715 170.01512,200.43845 L 168.92352,208.73006 L 165.80292,216.59523 L 162.68232,224.4604 L 160.86342,222.09523 C 159.86292,220.79439 159.03442,219.39984 159.02222,218.99624 C 159.01002,218.59264 157.47302,218.99058 155.60672,219.88056 L 152.21342,221.4987 L 151.48222,236.59658 L 150.75102,251.69445 L 148.05842,248.46917 L 145.36582,245.24389 L 142.98732,248.46109 L 140.60872,251.67828 L 140.81242,254.35131 C 141.02962,257.20185 142.48762,261.10786 146.92602,270.73006 C 148.44832,274.03006 150.47162,278.53006 151.42252,280.73006 L 153.15122,284.73006 L 162.48602,292.07034 L 171.82072,299.41064 L 174.07542,308.57034 C 175.31542,313.60814 178.73772,324.93004 181.68042,333.73004 L 187.03072,349.73004 L 184.45162,377.71464 L 181.87252,405.69914 L 179.89502,414.18014 L 177.91752,422.66104 L 181.70872,425.85984 L 185.50002,429.05854 L 192.50002,429.68124 C 196.35002,430.02374 202.20002,430.55134 205.50002,430.85364 L 211.50003,431.40334 L 220.92473,420.76864 C 226.10833,414.91964 233.83733,405.16284 238.10043,399.08694 L 245.85133,388.03984 L 247.08793,380.88494 L 248.32443,373.73004 L 251.71863,381.24134 L 255.11283,388.75264 L 262.0564,392.54994 C 265.87536,394.63844 268.99996,396.63484 268.99996,396.98634 C 268.99996,399.95554 273.57554,443.36764 275.34958,457.23004 L 277.58913,474.73004 L 278.88028,466.89914 C 279.59042,462.59214 280.32772,459.22444 280.51873,459.41544 C 280.70975,459.60644 283.33705,469.65544 286.35718,481.74644 L 291.84833,503.73004 L 292.55864,518.48004 L 293.26895,533.23004 L 300.72414,533.23004 L 308.17934,533.23004 L 307.45661,512.33644 z M 262.0967,124.79817 C 254.33993,119.3361 253.81613,118.78497 257.1382,119.58038 L 259.7764,120.21205 L 256.842,108.60059 C 255.22803,102.21429 254.09363,96.80307 254.32103,96.57567 C 254.54843,96.34826 256.1218,101.68997 257.8173,108.44613 L 260.9002,120.73006 L 259.8619,121.0928 C 259.2908,121.29231 260.9623,122.97621 263.5765,124.8348 L 268.32948,128.21405 L 271.66472,123.2615 C 275.58384,117.44195 275.62955,117.25266 272.94642,117.95431 L 270.89288,118.49132 L 271.56129,110.61069 C 271.92892,106.27634 272.61156,101.15506 273.07828,99.23006 L 273.92687,95.73006 L 273.50708,100.73006 C 273.2762,103.48006 272.80811,108.3348 272.46689,111.51837 L 271.84647,117.30669 L 274.64587,116.60408 L 277.44528,115.90148 L 275.55351,118.81577 C 270.89057,125.99908 268.7216,129.23006 268.56236,129.23006 C 268.46785,129.23006 265.5583,127.23571 262.0967,124.79817 z M 315.78998,523.48004 C 317.47168,518.11754 320.69682,507.81734 322.95695,500.59074 L 327.06628,487.45144 L 341.08468,486.72564 C 348.7948,486.32644 355.31969,486.21644 355.58444,486.48114 C 355.84919,486.74594 355.60492,491.82664 355.04163,497.77174 C 354.47833,503.71674 354.15845,508.72184 354.33078,508.89424 C 354.79336,509.35674 374.89161,506.67174 375.49684,506.06644 C 375.78109,505.78224 375.89807,474.20164 375.75681,435.88744 L 375.49996,366.22524 L 370.57941,369.72374 C 367.8731,371.64794 365.48284,373.04624 365.26771,372.83114 C 364.3569,371.92034 367.26832,335.35574 368.96092,326.44804 C 369.97654,321.10314 370.68539,316.60214 370.53616,316.44584 C 370.38692,316.28944 367.40411,315.70084 363.9077,315.13774 C 360.41128,314.57474 357.39706,313.96044 357.20942,313.77284 C 357.02178,313.58514 355.40072,308.09884 353.60706,301.58084 L 350.34585,289.73004 L 344.50981,289.42534 L 338.67377,289.12054 L 333.46133,294.26824 L 328.24889,299.41594 L 321.54464,298.69794 L 314.84039,297.97994 L 311.17018,301.53864 L 307.49996,305.09734 L 295.55068,306.19634 C 288.97857,306.80074 283.36699,307.52974 283.08049,307.81624 C 282.79399,308.10274 282.50989,313.15054 282.44916,319.03354 L 282.33873,329.73004 L 280.14902,333.98004 L 277.95931,338.23004 L 275.03985,338.23004 L 272.12039,338.23004 L 281.69051,357.98004 L 291.26064,377.73004 L 294.44235,390.23004 L 297.62407,402.73004 L 300.06201,403.96444 C 301.40288,404.64334 302.86272,405.32674 303.3061,405.48314 L 304.11224,405.76744 L 303.02277,412.58724 L 301.93331,419.40694 L 297.96071,427.30814 L 293.98811,435.20924 L 296.51794,446.91024 C 297.90935,453.34574 299.14951,458.67694 299.27387,458.75724 C 299.39822,458.83764 302.08746,460.35994 305.24996,462.14014 C 308.41246,463.92034 311.0082,465.68134 311.01828,466.05344 C 311.02836,466.42554 311.70739,471.45004 312.52724,477.21894 L 314.01788,487.70794 L 311.75892,489.44674 C 310.51649,490.40314 309.16246,491.19554 308.74996,491.20784 C 307.83,491.23504 307.80065,500.21334 308.65917,518.98004 L 309.31106,533.23004 L 311.02171,533.23004 L 312.73235,533.23004 L 315.78998,523.48004 z M 118.83802,523.48004 C 119.43242,521.96754 120.20512,519.07964 120.55522,517.06244 L 121.19162,513.39494 L 120.19642,511.61664 L 119.20132,509.83844 L 117.13262,516.53584 C 115.20522,522.77614 115.15282,526.23004 116.98562,526.23004 C 117.41012,526.23004 118.24362,524.99254 118.83802,523.48004 z M 126.94712,498.04134 L 129.76172,491.35254 L 128.29902,490.79134 C 127.49462,490.48264 126.47862,490.23004 126.04132,490.23004 C 125.14792,490.23004 121.60912,498.23084 120.59012,502.55454 L 119.92452,505.37904 L 122.02852,505.05454 L 124.13262,504.73004 L 126.94712,498.04134 z M 133.46282,482.35264 L 135.27132,476.37964 L 134.59892,474.62724 L 133.92652,472.87494 L 132.34062,474.46084 C 131.46832,475.33314 129.92992,478.45044 128.92192,481.38844 L 127.08912,486.73004 L 128.69192,487.94804 C 130.94422,489.65964 131.41912,489.10274 133.46282,482.35264 z M 371.58648,368.06054 L 375.99996,364.89104 L 375.99996,314.11764 L 375.99996,263.34438 L 373.90118,259.78722 C 372.74686,257.83078 371.64171,256.23006 371.44529,256.23006 C 371.24888,256.23006 369.1958,259.49256 366.88289,263.48006 C 364.56999,267.46756 360.00075,274.51714 356.72905,279.14579 L 350.78049,287.56154 L 354.02606,299.64584 C 355.81112,306.29214 357.58303,312.08004 357.96363,312.50784 C 358.34424,312.93564 361.53422,313.74934 365.05249,314.31594 C 368.57076,314.88254 371.56737,315.46414 371.71163,315.60834 C 371.85589,315.75264 371.1264,320.33904 370.09055,325.80034 C 369.0547,331.26164 367.92297,340.23004 367.57559,345.73004 C 367.22822,351.23004 366.68476,359.21754 366.3679,363.48004 C 366.05105,367.74254 366.10257,371.23004 366.4824,371.23004 C 366.86223,371.23004 369.15907,369.80374 371.58648,368.06054 z M 164.81642,322.50894 L 163.73462,321.20534 L 162.42672,322.29084 C 161.70742,322.88784 161.35712,323.99714 161.64832,324.75604 L 162.17782,326.13594 L 164.03802,324.97414 L 165.89832,323.81244 L 164.81642,322.50894 z M 169.98352,317.23944 C 169.93982,315.88614 165.35182,308.83684 164.28682,308.48674 L 163.07372,308.08794 L 162.42292,310.68094 L 161.77222,313.27384 L 164.07872,316.64004 L 166.38532,320.00634 L 168.19262,318.87764 C 169.18672,318.25684 169.99262,317.51964 169.98352,317.23944 z M 375.99996,131.23006 L 375.99996,1.23006 L 188.50002,1.23006 L 1.00003,1.23006 L 1.00003,22.68475 L 1.00003,44.13943 L 4.25003,44.69736 C 6.03753,45.00421 12.144424,45.92983 17.820824,46.75429 L 28.141624,48.2533 L 40.320824,46.22036 C 47.019424,45.10224 53.711224,43.94204 55.191524,43.64213 L 57.883024,43.09685 L 59.557224,48.41346 C 60.478024,51.33759 61.516924,56.775 61.865724,60.49659 L 62.500024,67.26312 L 65.659124,65.01226 L 68.818324,62.76139 L 73.079024,54.06879 L 77.339724,45.3762 L 83.419924,44.37538 C 86.763924,43.82493 91.362124,43.08601 93.638024,42.73333 L 97.775924,42.09211 L 104.86672,45.66294 L 111.95742,49.23378 L 113.99902,45.23192 C 115.12192,43.0309 116.23152,41.23006 116.46492,41.23006 C 116.69822,41.23006 120.36872,42.81574 124.62152,44.75379 L 132.35382,48.27752 L 142.92692,44.71518 L 153.50002,41.15284 L 159.21092,35.77119 L 164.92192,30.38955 L 162.46572,16.63833 C 161.11482,9.07516 160.18962,2.7071 160.40962,2.48708 C 160.87082,2.02586 161.31922,4.13948 163.53742,17.23006 C 164.42272,22.45506 165.35342,27.36688 165.60552,28.14522 L 166.06392,29.56038 L 169.28192,26.51397 C 171.05192,24.83845 177.19582,20.7416 182.93522,17.40986 L 193.37042,11.35214 L 201.06772,18.2911 L 208.76492,25.23006 L 220.59033,25.23006 L 232.41563,25.23006 L 236.06333,21.66816 L 239.71113,18.10627 L 246.28113,21.34611 L 252.85123,24.58595 L 249.43173,28.58082 C 247.55103,30.778 246.18583,32.74928 246.39803,32.96145 C 246.61023,33.17363 248.46243,32.64586 250.51403,31.78864 C 252.56563,30.93142 254.37293,30.23006 254.53033,30.23006 C 255.27133,30.23006 258.9384,42.75253 258.2669,42.99002 C 255.12153,44.10251 252.58663,46.06425 251.91363,47.90682 L 251.11863,50.08358 L 257.7551,50.79429 L 264.3916,51.50499 L 271.35649,54.37708 L 278.32137,57.24916 L 279.91066,55.86811 C 280.78478,55.10853 282.5638,53.93592 283.86405,53.26232 L 286.22813,52.03758 L 290.61405,56.34203 L 294.99996,60.64647 L 294.99996,66.25118 L 294.99996,71.85588 L 297.89823,74.6326 L 300.7965,77.40931 L 302.95691,76.2531 L 305.11732,75.09688 L 310.14839,78.32531 L 315.17945,81.55373 L 314.59998,84.64189 C 314.28126,86.34038 313.72842,94.25506 313.37142,102.23006 L 312.72234,116.73006 L 307.44869,127.28886 L 302.17503,137.84766 L 292.5875,145.73615 C 287.31435,150.07483 282.99988,153.64837 282.99979,153.67736 C 282.99969,153.70634 282.32344,157.26372 281.497,161.58263 L 279.99437,169.4352 L 283.01597,173.25027 L 286.03756,177.06535 L 281.50632,180.77836 L 276.97507,184.49138 L 278.73752,185.81146 L 280.49996,187.13154 L 283.49996,183.74208 L 286.49996,180.35263 L 302.49996,179.74527 L 318.49996,179.13791 L 314.70065,182.47526 L 310.90134,185.81261 L 314.60602,187.57924 L 318.3107,189.34588 L 313.65046,194.07726 L 308.99022,198.80865 L 314.40411,201.46387 L 319.818,204.11909 L 323.50275,203.10168 C 325.52936,202.5421 327.37961,202.27638 327.61441,202.51117 C 327.8492,202.74597 327.55758,207.27619 326.96636,212.57833 L 325.8914,222.21858 L 322.51675,229.62378 L 319.14209,237.02899 L 327.92343,237.724 L 336.70478,238.41902 L 337.60237,244.00658 L 338.49996,249.59413 L 346.22827,251.93559 L 353.95658,254.27705 L 361.08076,250.68937 C 364.99905,248.71615 368.29294,247.24308 368.40051,247.41588 C 368.50809,247.58868 370.10429,250.76756 371.94764,254.48006 C 373.79099,258.19256 375.45686,261.23006 375.64957,261.23006 C 375.84229,261.23006 375.99996,202.73006 375.99996,131.23006 z M 301.75776,161.55926 L 296.01556,156.89838 L 298.50501,153.63455 L 301.29942,150.29581 L 304.21271,147.01294 L 307.126,143.73006 L 306.53754,146.5055 L 305.94909,149.28093 L 308.22452,148.7783 C 309.47601,148.50186 313.42496,147.80064 316.99996,147.22005 C 320.57496,146.63946 324.84996,145.90163 326.49996,145.58043 C 328.14996,145.25923 329.22238,145.28907 328.88312,145.64675 C 328.43892,146.11506 307.53735,150.16276 305.24996,150.22343 C 305.11246,150.22708 304.99996,149.50606 304.99996,148.62118 L 304.99996,147.01229 L 301.04221,151.80172 L 297.08446,156.59115 L 300.79221,159.86898 C 304.94454,163.53984 305.99996,163.91701 305.99996,161.73006 C 305.99996,160.90506 306.33746,160.23881 306.74996,160.2495 C 310.06755,160.3355 327.30076,163.20467 327.82866,163.75891 C 328.19788,164.14654 327.14996,164.20317 325.49996,163.88475 C 323.84996,163.56633 320.24996,163.03482 317.49996,162.7036 C 314.74996,162.37238 311.24389,161.86551 309.70869,161.5772 L 306.91742,161.05302 L 307.5671,163.64154 C 307.92442,165.06523 308.05549,166.22783 307.85837,166.2251 C 307.66124,166.22237 304.91597,164.12274 301.75776,161.55926 z M 147.72152,246.8224 L 149.79132,249.6638 L 150.52622,235.40064 L 151.26112,221.13749 L 154.97812,219.24119 L 158.69522,217.34489 L 160.63082,219.93739 L 162.56632,222.52989 L 165.23512,215.62998 C 166.70292,211.83502 168.39952,204.99884 169.00532,200.43845 C 170.18192,191.58099 172.65802,184.58867 175.43382,182.28493 L 177.14102,180.86813 L 183.62932,182.97763 L 190.11762,185.08713 L 190.47512,183.9086 C 192.12462,178.47209 194.61862,172.7543 195.89892,171.47401 C 196.75002,170.62284 199.53562,167.31299 202.08892,164.11878 L 206.73142,158.31113 L 207.36002,154.38016 L 207.98862,150.44919 L 206.45562,146.10445 L 204.92272,141.7597 L 206.71132,140.42642 C 207.69512,139.69311 209.06132,138.76921 209.74732,138.3733 C 210.43342,137.9774 212.17303,133.62071 213.61303,128.69177 C 215.05313,123.76283 218.45793,114.49752 221.17923,108.1022 L 226.12713,96.47434 L 236.31353,91.75185 C 241.91613,89.15448 246.98233,86.83213 247.57183,86.59107 C 248.16143,86.35001 249.16423,87.29517 249.80043,88.69142 L 250.95713,91.23006 L 255.8744,91.23006 L 260.7918,91.23006 L 261.4903,83.33869 L 262.1889,75.44733 L 269.59442,74.75337 C 273.66747,74.3717 276.99996,73.88369 276.99996,73.66891 C 276.99996,73.45413 276.12583,71.84101 275.05745,70.0842 L 273.11494,66.89 L 275.6578,62.55093 L 278.20067,58.21187 L 274.85031,56.82542 C 273.00762,56.06287 269.88401,54.76982 267.90895,53.95197 C 265.9339,53.13412 261.0964,52.14145 257.1589,51.74603 C 253.22153,51.3506 250.00003,50.9149 250.00003,50.77779 C 250.00003,50.64068 250.48263,49.144 251.07253,47.45182 L 252.14503,44.37513 L 255.04933,43.36269 L 257.9536,42.35024 L 256.4601,38.04015 C 255.6387,35.6696 254.76313,33.16707 254.51433,32.47897 L 254.06193,31.22789 L 248.40653,33.72897 C 245.29603,35.10457 242.54733,36.23006 242.29823,36.23006 C 242.04913,36.23006 243.96913,33.74409 246.56493,30.70569 C 249.16073,27.66728 251.10803,25.02142 250.89233,24.82599 C 250.67653,24.63056 248.08103,23.25533 245.12453,21.76993 L 239.74903,19.0692 L 236.08233,22.64963 L 232.41563,26.23006 L 220.59033,26.23006 L 208.76492,26.23006 L 201.06772,19.2911 L 193.37042,12.35214 L 182.93522,18.43972 L 172.50002,24.5273 L 162.81382,33.42983 L 153.12762,42.33235 L 142.74782,45.80817 L 132.36802,49.28399 L 124.62862,45.75702 C 120.37192,43.81719 116.75742,42.23006 116.59642,42.23006 C 116.43542,42.23006 115.49202,44.03006 114.50002,46.23006 C 113.50792,48.43006 112.52832,50.23006 112.32312,50.23006 C 112.11792,50.23006 108.77292,48.63008 104.88972,46.67455 L 97.829424,43.11903 L 90.164724,44.25016 C 85.949124,44.87228 81.464624,45.62678 80.199124,45.92683 L 77.898324,46.47238 L 73.505024,55.10122 L 69.111724,63.73006 L 65.055924,66.54491 L 61.000024,69.35977 L 61.000024,63.19882 C 61.000024,57.56097 58.677824,46.65713 57.139324,45.07097 C 56.787724,44.70847 50.200024,45.49585 42.500024,46.82069 L 28.500024,49.22951 L 17.500024,47.69314 C 11.450024,46.84814 5.26253,45.91251 3.75003,45.61396 L 1.00003,45.07115 L 1.00003,137.54038 L 1.00003,230.00961 L 7.66823,228.32677 L 14.336424,226.64392 L 15.172824,225.18699 C 15.632824,224.38568 16.875324,221.70506 17.933924,219.23006 L 19.858724,214.73006 L 19.974524,218.23006 L 20.090224,221.73006 L 21.410324,218.73006 L 22.730324,215.73006 L 23.443824,220.73006 C 23.836224,223.48006 24.258924,226.14096 24.383024,226.64317 C 24.507224,227.14537 25.207324,224.89537 25.938824,221.64317 L 27.268824,215.73006 L 28.605124,218.73006 C 29.340124,220.38006 30.606624,223.41756 31.419724,225.48006 L 32.897924,229.23006 L 35.016424,229.23006 L 37.134824,229.23006 L 36.654724,227.48006 C 35.675824,223.9117 34.926324,218.23006 35.434424,218.23006 C 35.723224,218.23006 37.717624,218.93351 39.866424,219.79328 L 43.773324,221.3565 L 47.136624,226.36182 L 50.500024,231.36713 L 61.500024,230.75012 C 73.014624,230.10424 96.401924,228.20869 96.591924,227.90592 C 96.652624,227.8092 98.581124,224.53385 100.87762,220.62736 L 105.05292,213.52467 L 104.00072,204.23643 C 103.42202,199.1279 103.07262,194.82744 103.22422,194.67986 C 103.37592,194.53228 107.70532,197.5207 112.84522,201.3208 C 117.98512,205.12089 122.64032,208.23006 123.19002,208.23006 C 123.73972,208.23006 127.33472,209.18539 131.17882,210.35301 L 138.16822,212.47596 L 137.48922,221.60301 L 136.81032,230.73006 L 137.91772,237.23006 C 138.52672,240.80506 139.28422,245.29587 139.60092,247.20964 L 140.17672,250.68923 L 142.91422,247.33511 L 145.65172,243.98099 L 147.72152,246.8224 z M 19.604224,222.50089 C 19.271924,222.1686 19.035524,222.75923 19.078924,223.81339 L 19.157924,225.73006 L 19.683124,224.41756 C 19.972024,223.69568 19.936524,222.83319 19.604224,222.50089 z M 128.89062,219.5707 L 130.10232,216.91134 L 128.80112,216.08601 C 126.50282,214.62822 125.23292,215.16573 124.55042,217.8852 L 123.88402,220.54035 L 125.19202,221.36989 C 127.18752,222.63551 127.58152,222.44386 128.89062,219.5707 z" />
  <path
     style="fill:#f39e0f"
     id="path3569"
     d="M 213.89984,121.76702 C 213.23484,125.09212 212.38314,125.50612 210.36314,123.48612 C 209.63634,122.75942 208.81674,122.11342 208.54175,122.05072 C 208.26675,121.98802 207.36675,121.71682 206.54175,121.44812 C 205.71675,121.17932 203.38475,120.45042 201.35945,119.82832 L 197.67705,118.69712 L 193.68875,121.21482 C 191.49515,122.59962 189.40735,124.65602 189.04905,125.78462 C 188.69085,126.91322 187.98025,127.57852 187.46975,127.26312 C 186.95935,126.94762 186.54175,127.14572 186.54175,127.70322 C 186.54175,128.26082 184.85425,129.00162 182.79175,129.34962 C 180.72925,129.69752 178.25345,130.19852 177.28985,130.46292 L 175.53785,130.94362 L 176.14825,133.37562 L 176.75865,135.80762 L 175.81685,135.80762 C 175.29895,135.80762 174.87515,136.46282 174.87515,137.26362 C 174.87515,138.06442 175.25015,138.48782 175.70845,138.20462 C 176.16675,137.92132 176.54175,138.58392 176.54175,139.67712 C 176.54175,140.77032 177.21675,142.33972 178.04175,143.16472 C 178.86675,143.98972 179.54175,144.95402 179.54175,145.30762 C 179.54175,145.66112 180.15535,146.56402 180.90525,147.31392 L 182.26875,148.67742 L 182.96375,154.82042 L 183.65875,160.96342 L 181.25375,163.36832 C 179.93105,164.69102 177.76725,165.97252 176.44535,166.21612 C 175.12335,166.45972 173.81675,166.74222 173.54175,166.84392 C 173.26675,166.94572 172.10305,166.95662 170.95575,166.86822 C 169.80845,166.77982 168.31475,167.37622 167.63645,168.19362 L 166.40305,169.67972 L 167.47245,171.67792 C 168.06055,172.77692 168.54175,174.80412 168.54175,176.18282 C 168.54175,177.56152 168.99915,178.97222 169.55815,179.31762 C 170.11705,179.66312 170.31555,180.36472 169.99905,180.87672 C 169.68265,181.38872 169.90035,181.80762 170.48275,181.80762 C 171.06525,181.80762 171.57035,181.24512 171.60515,180.55762 C 171.64005,179.87012 172.08595,180.34832 172.59615,181.62022 L 173.52375,183.93292 L 172.70295,187.62022 L 171.88215,191.30762 L 172.76405,194.30762 C 173.24905,195.95762 174.03155,199.55762 174.50285,202.30762 C 175.81325,209.95312 176.54835,212.95122 177.58945,214.89652 C 178.11325,215.87532 178.54175,218.02912 178.54175,219.68282 C 178.54175,221.33652 179.01005,222.97902 179.58245,223.33272 L 180.62315,223.97592 L 180.03065,226.14172 L 179.43815,228.30762 L 181.57335,225.55762 C 182.74775,224.04512 184.37265,222.80762 185.18425,222.80762 L 186.65985,222.80762 L 186.04175,221.80762 C 185.70185,221.25762 185.86995,220.80762 186.41535,220.80762 C 186.96075,220.80762 187.66905,220.02012 187.98925,219.05762 C 188.30955,218.09512 191.31115,214.38262 194.65945,210.80762 C 203.10185,201.79382 204.24825,199.97452 205.06915,194.28772 C 205.88672,189.49269 207.77471,185.04176 208.54175,180.26882 C 208.54175,179.00682 208.98344,177.82422 209.52334,177.64092 C 210.06324,177.45762 210.94784,174.60762 211.48904,171.30762 C 213.03054,161.90882 216.84214,147.80762 217.84124,147.80762 C 218.33894,147.80762 224.21274,142.23212 230.89404,135.41772 L 243.04174,123.02792 L 248.77274,121.02072 L 254.50374,119.01352 L 254.29174,116.87792 C 256.25504,116.76752 255.75214,114.00912 253.64694,113.34102 L 251.75214,112.73962 L 247.58714,114.40612 L 243.42214,116.07262 L 236.08564,115.40782 L 228.74924,114.74302 L 227.15314,116.33902 L 225.55704,117.93512 L 224.29944,117.21102 L 223.04174,116.48692 L 223.78534,117.30752 L 224.52904,118.12822 L 222.29214,119.69492 C 221.06194,120.55662 219.44854,121.35072 218.70694,121.45962 C 217.96524,121.56842 217.09134,121.92472 216.76474,122.25122" />
  <text
     xml:space="preserve"
     style="font-size:12px;font-style:italic;font-weight:normal;fill:#000000;fill-opacity:1;stroke:none;stroke-width:1px;stroke-linecap:butt;stroke-linejoin:miter;stroke-opacity:1;font-family:Bitstream Vera Sans"
     x="-123.50946"
     y="278.75226"
     id="text2385"
     transform="matrix(0.5875528,-0.8091858,0.8091858,0.5875528,0,0)"><tspan
       sodipodi:role="line"
       id="tspan2387"
       x="-123.50946"
       y="278.75226"
       style="font-style:normal;font-weight:normal;font-size:12">Arakán</tspan></text>
  <text
     xml:space="preserve"
     style="font-size:15px;font-style:normal;font-weight:normal;fill:#000000;fill-opacity:1;stroke:none;stroke-width:1px;stroke-linecap:butt;stroke-linejoin:miter;stroke-opacity:1;font-family:Bitstream Vera Sans"
     x="206.74724"
     y="256.52505"
     id="text2389"><tspan
       sodipodi:role="line"
       id="tspan2391"
       x="206.74724"
       y="256.52505">BIRMANIA</tspan></text>
  <text
     xml:space="preserve"
     style="font-size:15px;font-style:normal;font-weight:normal;fill:#000000;fill-opacity:1;stroke:none;stroke-width:1px;stroke-linecap:butt;stroke-linejoin:miter;stroke-opacity:1;font-family:Bitstream Vera Sans"
     x="56.409283"
     y="123.93484"
     id="text2393"><tspan
       sodipodi:role="line"
       id="tspan2395"
       x="56.409283"
       y="123.93484">INDIA</tspan></text>
  <text
     xml:space="preserve"
     style="font-size:15px;font-style:normal;font-weight:normal;fill:#000000;fill-opacity:1;stroke:none;stroke-width:1px;stroke-linecap:butt;stroke-linejoin:miter;stroke-opacity:1;font-family:Bitstream Vera Sans"
     x="37.822254"
     y="24.78035"
     id="text3291"><tspan
       sodipodi:role="line"
       id="tspan3293"
       x="37.822254"
       y="24.78035">TIBET</tspan></text>
  <text
     xml:space="preserve"
     style="font-size:12px;font-style:normal;font-weight:normal;fill:#000000;fill-opacity:1;stroke:none;stroke-width:1px;stroke-linecap:butt;stroke-linejoin:miter;stroke-opacity:1;font-family:Bitstream Vera Sans"
     x="296.93643"
     y="266.07901"
     id="text3648"><tspan
       sodipodi:role="line"
       id="tspan3650"
       x="296.93643"
       y="266.07901"
       style="font-style:normal;font-weight:normal;font-size:12">Shan</tspan></text>
  <text
     xml:space="preserve"
     style="font-size:15px;font-style:normal;font-weight:normal;fill:#000000;fill-opacity:1;stroke:none;stroke-width:1px;stroke-linecap:butt;stroke-linejoin:miter;stroke-opacity:1;font-family:Bitstream Vera Sans"
     x="312.99124"
     y="67.355652"
     id="text3652"><tspan
       sodipodi:role="line"
       id="tspan3654"
       x="312.99124"
       y="67.355652">CHINA</tspan></text>
  <text
     xml:space="preserve"
     style="font-size:15px;font-style:normal;font-weight:normal;fill:#000000;fill-opacity:1;stroke:none;stroke-width:1px;stroke-linecap:butt;stroke-linejoin:miter;stroke-opacity:1;font-family:Bitstream Vera Sans"
     x="325.70755"
     y="421.25339"
     id="text3656"><tspan
       sodipodi:role="line"
       id="tspan3658"
       x="325.70755"
       y="421.25339">SIAM</tspan></text>
  <path
     sodipodi:type="arc"
     style="fill:#000000;fill-opacity:1;fill-rule:evenodd;stroke:#000000;stroke-width:1;stroke-linecap:round;stroke-linejoin:round;marker:none;marker-start:none;marker-mid:none;marker-end:none;stroke-miterlimit:4;stroke-dasharray:none;stroke-dashoffset:0;stroke-opacity:1;visibility:visible;display:inline;overflow:visible;enable-background:accumulate"
     id="path3660"
     sodipodi:cx="-205.70531"
     sodipodi:cy="163.23177"
     sodipodi:rx="4.1640749"
     sodipodi:ry="4.1640749"
     d="M -201.54123,163.23177 A 4.1640749,4.1640749 0 1 1 -209.86938,163.23177 A 4.1640749,4.1640749 0 1 1 -201.54123,163.23177 z"
     transform="translate(381.87883,-4.9753263)" />
  <path
     sodipodi:type="arc"
     style="fill:#000000;fill-opacity:1;fill-rule:evenodd;stroke:#000000;stroke-width:1;stroke-linecap:round;stroke-linejoin:round;marker:none;marker-start:none;marker-mid:none;marker-end:none;stroke-miterlimit:4;stroke-dasharray:none;stroke-dashoffset:0;stroke-opacity:1;visibility:visible;display:inline;overflow:visible;enable-background:accumulate"
     id="path4432"
     sodipodi:cx="-205.70531"
     sodipodi:cy="163.23177"
     sodipodi:rx="4.1640749"
     sodipodi:ry="4.1640749"
     d="M -201.54123,163.23177 A 4.1640749,4.1640749 0 1 1 -209.86938,163.23177 A 4.1640749,4.1640749 0 1 1 -201.54123,163.23177 z"
     transform="translate(390.56514,-39.620871)" />
  <path
     sodipodi:type="arc"
     style="fill:#000000;fill-opacity:1;fill-rule:evenodd;stroke:#000000;stroke-width:1;stroke-linecap:round;stroke-linejoin:round;marker:none;marker-start:none;marker-mid:none;marker-end:none;stroke-miterlimit:4;stroke-dasharray:none;stroke-dashoffset:0;stroke-opacity:1;visibility:visible;display:inline;overflow:visible;enable-background:accumulate"
     id="path4434"
     sodipodi:cx="-205.70531"
     sodipodi:cy="163.23177"
     sodipodi:rx="4.1640749"
     sodipodi:ry="4.1640749"
     d="M -201.54123,163.23177 A 4.1640749,4.1640749 0 1 1 -209.86938,163.23177 A 4.1640749,4.1640749 0 1 1 -201.54123,163.23177 z"
     transform="translate(433.6054,241.26888)" />
  <path
     sodipodi:nodetypes="cccccccsssccccccccccccssscccsccccccccccccccccccccscccccccccsccccccccsccccccccscccccccccccsccccccccscccccscccssscccccscccccccccccscccccscccccccsscccscccccccscccccsssccccccccssscccccccccccccccsssccccccccccsccccccccsccccccccccccccccccccccssscccccscccccscccccsccccccccccccccccccccccscccscccccccccccccccccccccsccccccccccccccccccccccccccccccccsccccccccccssscccscccccscccccccccsccccccccccccccccccccccccscccscccccccccccscccccccccccccccccscccccsssscccssssscccccccccccsccccccccccccccccccssscccsccccccccccsscccsssssssccccccccccccccccccccccccccscccccccsscccccccccccccccccsscccccccccccccccccccccccccscccccccccccccccccccccscccccccccccssscccccccccccsssscccccssssscccscccccccccccccccccccccccsccccccccccccccccccccccccccccccccccccccccccccccccccccccccccccccscccccccccccccccscccscccccccc"
     style="fill:#12080c"
     id="path3573"
     d="M 0.2452,267.75 L 0,0 L 188.4999,0 L 376.99998,0 L 376.99998,253.45469 L 376.99998,506.90944 L 373.74998,507.44534 C 365.80248,508.75604 353.75271,510.08614 353.3624,509.69584 C 353.12686,509.46024 353.39502,504.40344 353.95831,498.45834 C 354.52161,492.51334 354.77498,487.44174 354.52135,487.18804 C 354.26773,486.93444 348.11075,487.12594 340.83918,487.61354 L 327.6181,488.50004 L 320.4958,511.39294 L 313.3735,534.28574 L 303.1758,534.39294 L 292.9782,534.50004 L 292.5649,533.00004 C 292.3376,532.17504 291.8529,525.20004 291.4879,517.50004 L 290.8242,503.50004 L 285.7046,483.00004 L 280.585,462.50004 L 279.4579,469.25134 C 277.4256,481.42364 277.2634,480.90964 273.5403,450.50004 C 272.1935,439.50004 270.3822,422.87374 269.515,413.55264 C 268.6479,404.23154 267.8398,396.53514 267.7192,396.44954 C 267.5986,396.36404 264.4976,394.63374 260.828,392.60454 L 254.156,388.91514 L 251.894,383.45764 C 250.6498,380.45594 249.3227,378.00004 248.9448,378.00004 C 248.5668,378.00004 247.9703,380.16574 247.6192,382.81274 L 246.9808,387.62544 L 239.1353,398.80714 C 234.8202,404.95714 226.8495,414.98314 221.4225,421.08714 L 211.5552,432.18544 L 205.5276,431.62964 C 202.2124,431.32404 196.3499,430.79714 192.4999,430.45874 L 185.4999,429.84354 L 181.1998,426.17184 L 176.8996,422.50004 L 178.886,413.98464 L 180.8725,405.46914 L 183.4516,377.48464 L 186.0307,349.50004 L 180.6804,333.50004 C 177.7377,324.70004 174.3274,313.42684 173.1021,308.44854 L 170.8742,299.39704 L 161.4619,291.97004 L 152.0496,284.54301 L 149.9906,279.5215 C 148.8581,276.75968 147.4292,273.61017 146.8152,272.5226 C 146.2013,271.43503 144.4504,267.51751 142.9245,263.817 L 140.15,257.08881 L 138.0046,243.5295 L 135.8592,229.97018 L 136.1796,221.36521 L 136.4999,212.76023 L 128.6458,210.40682 L 120.7916,208.05341 L 112.7222,202.03362 C 108.284,198.72273 104.5433,196.12334 104.4094,196.25719 C 104.2756,196.39103 104.5878,200.27029 105.1033,204.87775 L 106.0405,213.25497 L 101.4917,221.01404 L 96.942903,228.77312 L 90.721403,229.41052 C 83.643203,230.1357 56.817503,231.96277 52.919403,231.98517 L 50.338903,232 L 46.996003,227.25 C 45.157403,224.6375 43.595503,222.40189 43.525103,222.28197 C 43.454803,222.16205 41.695603,221.35298 39.615903,220.48404 L 35.834703,218.90413 L 36.330003,220.70207 C 36.602403,221.69093 37.109903,224.1875 37.457903,226.25 L 38.090503,230 L 35.127903,230 L 32.165303,230 L 30.417403,225.25 C 28.003103,218.68941 27.356103,218.25618 26.572003,222.6753 C 26.198703,224.77889 25.625803,227.4 25.298703,228.5 L 24.704103,230.5 L 23.922303,228.5 C 23.492403,227.4 23.108903,225.01094 23.070303,223.19098 L 23.000003,219.88197 L 22.000003,220.5 L 21.000003,221.11803 L 21.015303,219.80902 C 21.023703,219.08906 21.434803,217.8615 21.928703,217.08111 L 22.826803,215.66221 L 23.492103,220.58111 C 23.857903,223.2865 24.258903,225.9109 24.383003,226.41311 C 24.507203,226.91531 25.207303,224.66531 25.938803,221.41311 L 27.268803,215.5 L 28.605103,218.5 C 29.340103,220.15 30.606603,223.1875 31.419603,225.25 L 32.897803,229 L 35.016303,229 L 37.134703,229 L 36.654603,227.25 C 35.675703,223.68164 34.926203,218 35.434303,218 C 35.723103,218 37.717503,218.70345 39.866303,219.56322 L 43.773203,221.12644 L 47.136503,226.13176 L 50.499903,231.13707 L 61.499903,230.52006 C 73.014503,229.87418 96.401903,227.97863 96.591903,227.67586 C 96.652603,227.57914 98.581103,224.30379 100.8775,220.3973 L 105.0529,213.29461 L 104.0007,204.00637 C 103.422,198.89784 103.0726,194.59738 103.2242,194.4498 C 103.3759,194.30222 107.7053,197.29064 112.8452,201.09074 C 117.9851,204.89083 122.6403,208 123.19,208 C 123.7397,208 127.3347,208.95533 131.1788,210.12295 L 138.1682,212.2459 L 137.5114,221.37295 L 136.8545,230.5 L 138.4014,239.89087 C 139.2522,245.05585 140.1359,249.46925 140.3651,249.69844 C 140.5942,249.92763 141.8095,248.67185 143.0656,246.90782 L 145.3494,243.7005 L 147.5743,246.49079 L 149.7992,249.28108 L 150.5301,235.09425 L 151.2611,220.90743 L 154.9781,219.01113 L 158.6952,217.11483 L 160.6308,219.70733 L 162.5663,222.29983 L 165.2351,215.39992 C 166.7029,211.60496 168.3995,204.76878 169.0053,200.20839 C 170.1819,191.35093 172.658,184.35861 175.4338,182.05487 L 177.141,180.63807 L 183.6293,182.74757 L 190.1176,184.85707 L 190.4751,183.67854 C 192.1246,178.24203 194.6186,172.52424 195.8989,171.24395 C 196.75,170.39278 199.5355,167.08293 202.0889,163.88872 L 206.7314,158.08107 L 207.36,154.1501 L 207.9885,150.21913 L 206.4556,145.87439 L 204.9227,141.52964 L 206.7113,140.19636 C 207.6951,139.46305 209.0613,138.53915 209.7473,138.14324 C 210.4334,137.74734 212.1729,133.39065 213.613,128.46171 C 215.0531,123.53277 218.4578,114.26746 221.1792,107.87214 L 226.1271,96.24428 L 236.3135,91.52179 C 241.916,88.92441 246.9823,86.60206 247.5718,86.36101 C 248.1614,86.11995 249.1642,87.06511 249.8004,88.46136 L 250.9571,91 L 255.8744,91 L 260.7918,91 L 261.4903,83.10863 L 262.1889,75.21727 L 269.5944,74.52331 C 273.6675,74.14164 277,73.65363 277,73.43885 C 277,73.22407 276.1258,71.61095 275.0575,69.85414 L 273.115,66.65994 L 275.6578,62.32087 L 278.2007,57.9818 L 274.6003,56.4909 C 272.6201,55.6709 269.4965,54.37785 267.659,53.61746 C 265.8214,52.85706 261.0964,51.91139 257.1589,51.51596 C 253.2215,51.12054 249.9999,50.68484 249.9999,50.54773 C 249.9999,50.41062 250.4826,48.91394 251.0725,47.22176 L 252.145,44.14507 L 255.0493,43.13263 L 257.9536,42.12018 L 256.4601,37.81009 C 255.6387,35.43954 254.763,32.93701 254.5142,32.24891 L 254.0619,30.99783 L 248.4065,33.49891 C 245.296,34.87451 242.5473,36 242.2982,36 C 242.0491,36 243.9691,33.51403 246.5649,30.47563 C 249.1607,27.43722 251.108,24.79136 250.8922,24.59593 C 250.6765,24.4005 248.081,23.02527 245.1245,21.53987 L 239.749,18.83914 L 236.0823,22.41957 L 232.4156,26 L 220.5903,26 L 208.7649,26 L 201.0677,19.06104 L 193.3704,12.12208 L 182.9352,18.20966 L 172.4999,24.29724 L 162.8138,33.19977 L 153.1276,42.10229 L 142.7478,45.57811 L 132.368,49.05393 L 124.6286,45.52696 C 120.3719,43.58713 116.7574,42 116.5964,42 C 116.4354,42 115.492,43.8 114.4999,46 C 113.5079,48.2 112.5283,50 112.3231,50 C 112.1179,50 108.7729,48.40002 104.8897,46.44449 L 97.829403,42.88897 L 90.164703,44.0201 C 85.949103,44.64222 81.464603,45.39672 80.199103,45.69677 L 77.898303,46.24232 L 73.504903,54.87116 L 69.111603,63.5 L 65.055803,66.31485 L 60.999903,69.12971 L 60.999903,62.96876 C 60.999903,57.33091 58.677703,46.42707 57.139203,44.84091 C 56.787603,44.47841 50.199903,45.26579 42.499903,46.59063 L 28.500003,48.99945 L 17.500003,47.46308 C 11.450003,46.61808 5.2625,45.68244 3.75,45.3839 L 1,44.84109 L 1,137.30888 L 1,229.77667 L 7.25,228.24132 C 10.687503,227.39688 13.964003,226.34875 14.531203,225.91214 C 15.098303,225.47554 16.430103,222.72919 17.490603,219.80916 L 19.418903,214.5 L 20.226703,219.21473 L 21.034503,223.92946 L 19.598803,227.21473 L 18.163103,230.5 L 18.002603,226 L 17.842103,221.5 L 16.843603,224.23231 L 15.845103,226.96461 L 12.172603,227.92115 C 10.152703,228.44725 6.925,229.2713 5,229.75238 L 1.5,230.62707 L 0.9952,383.06354 L 0.75957055,534.42336 L 0.2452,267.75 z M 307.4566,512.10644 L 306.7339,491.21284 L 308.6169,490.13994 C 309.6526,489.54984 311.0635,488.68724 311.7522,488.22314 L 313.0043,487.37934 L 311.4768,476.49764 C 310.6367,470.51284 309.8482,465.53294 309.7247,465.43134 C 309.6011,465.32974 306.9125,463.79824 303.75,462.02784 C 300.5875,460.25754 298,458.66304 298,458.48454 C 298,458.30614 296.8723,452.94434 295.4941,446.56964 L 292.9881,434.97924 L 296.9567,427.08614 L 300.9252,419.19314 L 301.9307,412.94954 C 302.9684,406.50594 302.7357,405.01104 300.691,404.98474 C 300.0359,404.97634 298.904,404.59164 298.1757,404.12984 L 296.8514,403.29024 L 293.5527,390.39514 L 290.2541,377.50004 L 280.627,357.62504 C 275.3321,346.69374 271,337.58124 271,337.37504 C 271,337.16874 272.4916,337.00004 274.3148,337.00004 L 277.6296,337.00004 L 279.4567,333.25004 L 281.2839,329.50004 L 281.4576,318.26774 C 281.5531,312.08994 281.8308,306.83584 282.0748,306.59184 C 282.3188,306.34794 288.1392,305.63644 295.0092,305.01074 L 307.5,303.87314 L 311.1558,300.32564 L 314.8116,296.77814 L 321.6558,297.45274 L 328.5,298.12734 L 333.46239,293.06374 L 338.4248,288.00004 L 343.96239,287.96854 L 349.49998,287.93714 L 351.08989,285.71858 C 355.97317,278.90439 365.1241,264.76419 367.73387,260 L 370.7467,254.5 L 369.3667,251.24077 L 367.98671,247.98154 L 360.96914,251.51553 L 353.95157,255.04952 L 345.5877,252.49839 L 337.22384,249.94725 L 336.54871,244.54375 L 335.87359,239.14026 L 326.9368,238.44114 C 322.0215,238.05663 318,237.6 318,237.42642 C 318,237.25283 319.5503,233.70885 321.4451,229.55091 L 324.8903,221.99102 L 325.9164,212.80013 C 326.4808,207.74514 326.8132,203.47986 326.655,203.32172 C 326.4969,203.16359 324.8869,203.45882 323.0774,203.9778 L 319.7872,204.9214 L 313.7612,201.87947 L 307.7352,198.83754 L 312.388,194.11371 L 317.0408,189.38988 L 313.2704,187.58915 L 309.5,185.78841 L 313,182.80929 L 316.5,179.83016 L 301.5,180.50934 L 286.5,181.18852 L 283.5,184.58841 L 280.5,187.9883 L 278.1364,186.15417 L 275.7728,184.32005 L 280.3795,180.54521 L 284.9862,176.77038 L 281.9903,172.98776 L 278.9944,169.20514 L 280.497,161.35257 C 281.3235,157.03366 281.9997,153.44113 281.9998,153.36918 C 281.9999,153.29722 286.3196,149.69722 291.5992,145.36918 L 301.1985,137.5 L 306.4604,127 L 311.7224,116.5 L 312.3714,102 C 312.7284,94.025 313.2668,86.15 313.5679,84.5 L 314.1152,81.5 L 309.6061,78.68886 L 305.097,75.87772 L 302.9415,77.03131 L 300.786,78.1849 L 297.393,74.89628 L 294,71.60766 L 294,66.00678 L 294,60.40589 L 290.1139,56.61129 L 286.2279,52.81669 L 283.509,54.24125 L 280.7902,55.66582 L 277.4477,61.08291 L 274.1052,66.5 L 276.5207,70.62365 L 278.9362,74.74731 L 271.0313,75.43686 L 263.1264,76.12642 L 262.434,84.06321 L 261.7417,92 L 256.0313,92 L 250.321,92 L 249.2,89.53966 L 248.079,87.07931 L 238.2895,91.60496 C 232.9052,94.09406 227.9679,96.66371 227.3177,97.3153 C 225.3189,99.31817 218.1142,116.90987 214.9641,127.47913 L 211.9774,137.5 L 210.2387,138.81847 C 209.2824,139.54362 207.9005,140.48218 207.1679,140.90415 L 205.8358,141.67137 L 207.4495,145.53347 L 209.0632,149.39557 L 208.4231,153.66389 L 207.783,157.93222 L 200.8915,166.70918 C 197.1011,171.53652 193.9999,176.25021 193.9999,177.18406 C 193.9999,178.11791 193.5499,179.16008 192.9999,179.5 C 192.4499,179.83992 191.9931,180.87898 191.9846,181.80902 C 191.9762,182.73906 191.5842,184.1078 191.1134,184.85067 L 190.2575,186.20134 L 184.1648,183.97983 C 180.8138,182.75801 177.369,182.02815 176.5096,182.35792 C 174.0617,183.29728 171.2093,191.13709 170.0151,200.20839 L 168.9235,208.5 L 165.8029,216.36517 L 162.6823,224.23034 L 160.8634,221.86517 C 159.8629,220.56433 159.0344,219.16978 159.0222,218.76618 C 159.01,218.36258 157.473,218.76052 155.6067,219.6505 L 152.2134,221.26864 L 151.4822,236.36652 L 150.751,251.46439 L 148.0584,248.23911 L 145.3658,245.01383 L 142.9873,248.23103 L 140.6087,251.44822 L 140.8124,254.12125 C 141.0296,256.97179 142.4876,260.8778 146.926,270.5 C 148.4482,273.8 150.4716,278.3 151.4224,280.5 L 153.1512,284.5 L 162.486,291.84024 L 171.8207,299.18054 L 174.0754,308.34034 C 175.3154,313.37814 178.7377,324.70004 181.6804,333.50004 L 187.0307,349.50004 L 184.4516,377.48464 L 181.8725,405.46914 L 179.895,413.95014 L 177.9175,422.43104 L 181.7087,425.62984 L 185.4999,428.82854 L 192.4999,429.45124 C 196.3499,429.79374 202.1999,430.32134 205.4999,430.62364 L 211.4999,431.17334 L 220.9247,420.53864 C 226.1083,414.68964 233.8373,404.93284 238.1003,398.85694 L 245.8513,387.80984 L 247.0879,380.65494 L 248.3244,373.50004 L 251.7186,381.01134 L 255.1128,388.52264 L 262.0564,392.31994 C 265.8754,394.40844 269,396.40484 269,396.75634 C 269,399.72554 273.5756,443.13764 275.3496,457.00004 L 277.5891,474.50004 L 278.8803,466.66914 C 279.5904,462.36214 280.3277,458.99444 280.5187,459.18544 C 280.7098,459.37654 283.3371,469.42544 286.3572,481.51644 L 291.8483,503.50004 L 292.5587,518.25004 L 293.269,533.00004 L 300.7242,533.00004 L 308.1794,533.00004 L 307.4566,512.10644 z M 262.0967,124.56811 C 254.3398,119.10604 253.8161,118.55491 257.1382,119.35032 L 259.7764,119.98199 L 256.842,108.37053 C 255.228,101.98423 254.0936,96.57301 254.321,96.34561 C 254.5484,96.1182 256.1218,101.45991 257.8173,108.21607 L 260.9002,120.5 L 259.8618,120.86274 C 259.2908,121.06225 260.9623,122.74615 263.5765,124.60474 L 268.3295,127.98399 L 271.6647,123.03144 C 275.5839,117.21189 275.6296,117.0226 272.9464,117.72425 L 270.8929,118.26126 L 271.5613,110.38063 C 271.9289,106.04628 272.6116,100.925 273.0783,99 L 273.9269,95.5 L 273.5071,100.5 C 273.2762,103.25 272.8081,108.10474 272.4669,111.28831 L 271.8465,117.07663 L 274.6459,116.37402 L 277.4453,115.67142 L 275.5535,118.58571 C 270.8906,125.76902 268.7216,129 268.5624,129 C 268.4679,129 265.5583,127.00565 262.0967,124.56811 z M 315.79,523.25004 C 317.4717,517.88754 320.6968,507.58734 322.957,500.36074 L 327.0663,487.22144 L 341.0847,486.49564 C 348.79482,486.09644 355.31971,485.98644 355.58446,486.25124 C 355.84921,486.51594 355.60494,491.59664 355.04165,497.54174 C 354.47835,503.48674 354.15847,508.49184 354.3308,508.66424 C 354.79338,509.12674 374.89163,506.44174 375.49686,505.83654 C 375.78111,505.55224 375.89809,473.97174 375.75683,435.65744 L 375.49998,365.99524 L 370.57943,369.49374 C 367.87312,371.41794 365.48286,372.81624 365.26773,372.60114 C 364.35692,371.69034 367.26834,335.12574 368.96094,326.21804 C 369.97656,320.87314 370.68541,316.37214 370.53618,316.21584 C 370.38694,316.05944 367.40413,315.47084 363.90772,314.90774 C 360.4113,314.34474 357.39708,313.73044 357.20944,313.54284 C 357.0218,313.35524 355.40074,307.86884 353.60708,301.35084 L 350.34587,289.50004 L 344.50983,289.19524 L 338.67379,288.89044 L 333.46135,294.03814 L 328.2489,299.18584 L 321.5447,298.46784 L 314.8404,297.74994 L 311.1702,301.30864 L 307.5,304.86734 L 295.5507,305.96634 C 288.9786,306.57074 283.367,307.29964 283.0805,307.58614 C 282.794,307.87264 282.5099,312.92054 282.4492,318.80354 L 282.3387,329.50004 L 280.149,333.75004 L 277.9593,338.00004 L 275.0399,338.00004 L 272.1204,338.00004 L 281.6905,357.75004 L 291.2607,377.50004 L 294.4424,390.00004 L 297.6241,402.50004 L 300.062,403.73444 C 301.4029,404.41334 302.8627,405.09674 303.3061,405.25314 L 304.1123,405.53744 L 303.0228,412.35724 L 301.9333,419.17704 L 297.9607,427.07814 L 293.9881,434.97924 L 296.518,446.68024 C 297.9094,453.11574 299.1495,458.44694 299.2739,458.52724 C 299.3982,458.60764 302.0875,460.12994 305.25,461.91014 C 308.4125,463.69034 311.0082,465.45134 311.0183,465.82344 C 311.0284,466.19554 311.7074,471.22004 312.5273,476.98894 L 314.0179,487.47794 L 311.7589,489.21674 C 310.5165,490.17314 309.1625,490.96554 308.75,490.97784 C 307.83,491.00504 307.8007,499.98334 308.6592,518.75004 L 309.3111,533.00004 L 311.0217,533.00004 L 312.7324,533.00004 L 315.79,523.25004 z M 371.5865,367.83054 L 375.99998,364.66104 L 375.99998,313.88764 L 375.99998,263.11432 L 373.9012,259.55716 C 372.74688,257.60072 371.64173,256 371.44531,256 C 371.2489,256 369.19582,259.2625 366.88291,263.25 C 364.57001,267.2375 360.00077,274.28708 356.72907,278.91573 L 350.78051,287.33144 L 354.02608,299.41574 C 355.81114,306.06214 357.58305,311.85004 357.96365,312.27784 C 358.34426,312.70574 361.53424,313.51934 365.05251,314.08594 C 368.57078,314.65254 371.56739,315.23414 371.71165,315.37834 C 371.85591,315.52264 371.12642,320.10904 370.09057,325.57034 C 369.05472,331.03164 367.92299,340.00004 367.57561,345.50004 C 367.22824,351.00004 366.68478,358.98754 366.36792,363.25004 C 366.05107,367.51254 366.10259,371.00004 366.48242,371.00004 C 366.86225,371.00004 369.15909,369.57374 371.5865,367.83054 z M 375.99998,131 L 375.99998,1 L 188.4999,1 L 1,1 L 1,22.45468 L 1,43.90937 L 4.25,44.46729 C 6.0375,44.77415 12.144403,45.69977 17.820803,46.52423 L 28.141603,48.02324 L 40.320703,45.9903 C 47.019303,44.87218 53.711103,43.71198 55.191403,43.41207 L 57.882903,42.86679 L 59.557103,48.1834 C 60.477903,51.10753 61.516803,56.54494 61.865603,60.26653 L 62.499903,67.03306 L 65.659003,64.7822 L 68.818203,62.53133 L 73.078903,53.83873 L 77.339703,45.14614 L 83.419803,44.14532 C 86.763903,43.59487 91.362003,42.85595 93.637903,42.50327 L 97.775903,41.86205 L 104.8667,45.43288 L 111.9574,49.00372 L 113.999,45.00186 C 115.1219,42.80083 116.2315,41 116.4649,41 C 116.6982,41 120.3687,42.58568 124.6215,44.52373 L 132.3538,48.04746 L 142.9269,44.48512 L 153.4999,40.92278 L 159.2109,35.54113 L 164.9218,30.15949 L 162.4657,16.40827 C 161.1148,8.8451 160.1896,2.47704 160.4096,2.25702 C 160.8708,1.7958 161.3192,3.90942 163.5374,17 C 164.4227,22.225 165.3534,27.13682 165.6055,27.91516 L 166.0639,29.33031 L 169.2819,26.28391 C 171.0518,24.60839 177.1958,20.51154 182.9352,17.1798 L 193.3704,11.12208 L 201.0677,18.06104 L 208.7649,25 L 220.5903,25 L 232.4156,25 L 236.0633,21.4381 L 239.711,17.87621 L 246.3429,21.14653 L 252.9748,24.41684 L 250.7085,26.95842 C 249.4621,28.35629 247.5775,30.53521 246.5205,31.80048 L 244.5986,34.10096 L 249.3822,32.05048 C 252.0131,30.92271 254.3121,30 254.491,30 C 255.2581,30 258.9613,42.51436 258.2669,42.75996 C 255.1214,43.87245 252.5866,45.83418 251.9136,47.67676 L 251.1186,49.85351 L 257.7551,50.56422 L 264.3916,51.27493 L 271.3565,54.14702 L 278.3214,57.0191 L 279.9107,55.63805 C 280.7848,54.87847 282.5638,53.70586 283.8641,53.03226 L 286.2281,51.80752 L 290.6141,56.11196 L 295,60.41641 L 295,66.02111 L 295,71.62582 L 297.8982,74.40253 L 300.7965,77.17925 L 302.9569,76.02304 L 305.1173,74.86682 L 310.1484,78.09524 L 315.1795,81.32367 L 314.6,84.41183 C 314.2813,86.11032 313.7284,94.025 313.3714,102 L 312.7224,116.5 L 307.4487,127.0588 L 302.175,137.6176 L 292.5875,145.50609 C 287.3144,149.84477 282.9999,153.41831 282.9998,153.4473 C 282.9997,153.47628 282.3235,157.03366 281.497,161.35257 L 279.9944,169.20514 L 283.016,173.02021 L 286.0376,176.83529 L 281.5063,180.5483 L 276.9751,184.26132 L 278.7375,185.5814 L 280.5,186.90148 L 283.5,183.51202 L 286.5,180.12257 L 302.5,179.51521 L 318.5,178.90785 L 314.7007,182.2452 L 310.9014,185.58255 L 314.606,187.34918 L 318.3107,189.11582 L 313.6505,193.8472 L 308.9902,198.57859 L 314.4041,201.23381 L 319.818,203.88903 L 323.5028,202.87162 C 325.5294,202.31204 327.3796,202.04632 327.6144,202.28111 C 327.8492,202.51591 327.5576,207.04613 326.9664,212.34827 L 325.8914,221.98852 L 322.5168,229.39372 L 319.1421,236.79893 L 327.9234,237.49394 L 336.7048,238.18896 L 337.60239,243.77652 L 338.49998,249.36407 L 346.22829,251.70553 L 353.9566,254.04699 L 361.08078,250.45931 C 364.99907,248.48609 368.29296,247.01302 368.40053,247.18582 C 368.50811,247.35862 370.10431,250.5375 371.94766,254.25 C 373.79101,257.9625 375.45688,261 375.64959,261 C 375.84231,261 375.99998,202.5 375.99998,131 z M 301.7578,161.3292 L 296.0156,156.66832 L 298.505,153.40449 L 300.9945,150.14065 L 301.2994,150.06575 L 304.2127,146.78288 L 307.126,143.5 L 306.5376,146.27544 L 305.9491,149.05087 L 308.2245,148.54824 C 309.476,148.2718 313.425,147.57058 317,146.98999 C 320.575,146.4094 324.85,145.67157 326.5,145.35037 C 328.15,145.02917 329.2224,145.05901 328.8831,145.41669 C 328.4389,145.885 307.5374,149.9327 305.25,149.99337 C 305.1125,149.99702 305,149.276 305,148.39112 L 305,146.78223 L 301.0422,151.57166 L 297.0845,156.36109 L 300.7922,159.63892 C 304.9446,163.30978 306,163.68695 306,161.5 C 306,160.675 306.3375,160.00875 306.75,160.01944 C 310.0676,160.10544 327.3008,162.97461 327.8287,163.52885 C 328.1979,163.91648 327.15,163.97311 325.5,163.65469 C 323.85,163.33627 320.25,162.80476 317.5,162.47354 C 314.75,162.14232 311.2439,161.63545 309.7087,161.34714 L 306.9174,160.82296 L 307.5671,163.41148 C 307.9244,164.83517 308.0555,165.99777 307.8584,165.99504 C 307.6613,165.99231 304.916,163.89268 301.7578,161.3292 z M 18.995303,221.28768 L 17.849003,219.5 L 18.424503,221.33179 C 18.741003,222.33927 19.035503,223.68927 19.078903,224.33179 L 19.157903,225.5 L 19.649703,224.28768 C 19.920203,223.6209 19.625703,222.2709 18.995303,221.28768 z M 115.6234,525.82874 L 113.9705,523.30614 L 116.0123,516.69534 C 118.3173,509.23284 119.4008,508.01194 121.025,511.04694 L 122.1504,513.14974 L 121.4566,517.32494 C 121.075,519.62124 119.9783,523.04164 119.0195,524.92574 L 117.2763,528.35134 L 115.6234,525.82874 z M 118.838,523.25004 C 119.4324,521.73754 120.2051,518.84964 120.5551,516.83244 L 121.1916,513.16494 L 120.1964,511.38664 L 119.2013,509.60844 L 117.1326,516.30584 C 115.2052,522.54614 115.1528,526.00004 116.9856,526.00004 C 117.41,526.00004 118.2436,524.76254 118.838,523.25004 z M 119.5116,502.75004 C 119.8804,500.96254 121.2412,497.13754 122.5357,494.25004 L 124.8893,489.00004 L 126.6946,488.98474 L 128.4999,488.96944 L 127.2476,488.17424 L 125.9952,487.37904 L 127.5486,482.14824 L 129.102,476.91744 L 131.9605,473.71814 L 134.8191,470.51884 L 135.4772,474.02734 L 136.1354,477.53584 L 133.67,484.01794 C 132.3141,487.58304 129.7168,493.98754 127.8983,498.25004 L 124.5919,506.00004 L 121.7165,506.00004 L 118.841,506.00004 L 119.5116,502.75004 z M 126.973,497.75004 L 129.8133,491.00004 L 128.6841,491.00004 C 128.0631,491.00004 128.4744,490.35604 129.5983,489.56884 L 131.6416,488.13764 L 133.4565,482.14364 L 135.2713,476.14964 L 134.5989,474.39724 L 133.9265,472.64494 L 132.3406,474.23084 C 131.4683,475.10314 129.9299,478.22054 128.9219,481.15844 L 127.0891,486.50004 L 128.6674,487.70014 L 130.2457,488.90024 L 127.7086,489.53704 L 125.1715,490.17384 L 123.2136,494.83694 C 122.1368,497.40164 120.9563,500.77104 120.5901,502.32454 L 119.9244,505.14904 L 122.0285,504.82454 L 124.1326,504.50004 L 126.973,497.75004 z M 161.0673,325.12594 L 160.0643,323.25174 L 161.8698,321.61784 L 163.6753,319.98384 L 165.3696,321.85604 L 167.0639,323.72814 L 164.5671,325.36414 L 162.0703,327.00004 L 161.0673,325.12594 z M 164.8164,322.27894 L 163.7346,320.97534 L 162.4267,322.06084 C 161.7074,322.65784 161.3571,323.76724 161.6483,324.52614 L 162.1778,325.90594 L 164.038,324.74414 L 165.8983,323.58244 L 164.8164,322.27894 z M 163.5114,317.01654 L 160.8138,313.12394 L 161.4863,310.06204 C 162.5831,305.06824 165.5271,306.12474 168.8656,312.71024 C 171.4805,317.86824 171.4972,317.44424 168.6045,319.33964 L 166.209,320.90914 L 163.5114,317.01654 z M 169.9835,317.00954 C 169.9398,315.65614 165.3518,308.60684 164.2868,308.25674 L 163.0737,307.85794 L 162.4229,310.45094 L 161.7721,313.04384 L 164.0787,316.41004 L 166.3853,319.77634 L 168.1926,318.64764 C 169.1867,318.02684 169.9925,317.28974 169.9835,317.00954 z M 124.6558,222.29255 L 122.8117,221.81709 L 123.495,218.15855 C 123.8708,216.14635 124.3172,214.35848 124.4869,214.18552 C 124.6567,214.01255 126.4016,214.17232 128.3645,214.54057 L 131.9334,215.2101 L 129.9464,219.10505 C 128.8535,221.24727 127.6309,222.9478 127.2296,222.884 C 126.8283,222.8202 125.6701,222.55404 124.6558,222.29255 z M 128.8906,219.34064 L 130.1023,216.68128 L 128.8011,215.85595 C 126.5028,214.39816 125.2329,214.93567 124.5504,217.65514 L 123.884,220.31029 L 125.192,221.13983 C 127.1875,222.40545 127.5815,222.2138 128.8906,219.34064 z" />
  <text
     xml:space="preserve"
     style="font-size:12px;font-style:normal;font-weight:normal;fill:#000000;fill-opacity:1;stroke:none;stroke-width:1px;stroke-linecap:butt;stroke-linejoin:miter;stroke-opacity:1;font-family:Bitstream Vera Sans"
     x="-532.06793"
     y="304.25256"
     id="text4436"
     transform="matrix(0,-1,1,0,0,0)"><tspan
       sodipodi:role="line"
       id="tspan4438"
       x="-532.06793"
       y="304.25256"
       style="font-weight:normal;font-style:normal;font-size:12">Victoria Point</tspan></text>
  <text
     xml:space="preserve"
     style="font-size:12px;font-style:normal;font-weight:normal;fill:#000000;fill-opacity:1;stroke:none;stroke-width:1px;stroke-linecap:butt;stroke-linejoin:miter;stroke-opacity:1;font-family:Bitstream Vera Sans"
     x="188.97099"
     y="393.1438"
     id="text4586"><tspan
       sodipodi:role="line"
       id="tspan4588"
       x="188.97099"
       y="393.1438"
       style="font-size:11px">Rangún</tspan></text>
  <text
     xml:space="preserve"
     style="font-size:11px;font-style:normal;font-weight:normal;fill:#000000;fill-opacity:1;stroke:none;stroke-width:1px;stroke-linecap:butt;stroke-linejoin:miter;stroke-opacity:1;font-family:Bitstream Vera Sans"
     x="140.43341"
     y="126.4582"
     id="text4590"><tspan
       sodipodi:role="line"
       id="tspan4592"
       x="140.43341"
       y="126.4582">Kohima</tspan></text>
  <text
     xml:space="preserve"
     style="font-size:11px;font-style:normal;font-weight:normal;fill:#000000;fill-opacity:1;stroke:none;stroke-width:1px;stroke-linecap:butt;stroke-linejoin:miter;stroke-opacity:1;font-family:Bitstream Vera Sans"
     x="169.73991"
     y="172.79044"
     id="text4594"><tspan
       sodipodi:role="line"
       id="tspan4596"
       x="169.73991"
       y="172.79044">Imfal</tspan></text>
  <g
     id="g4165"
     transform="translate(311.33897,80.748342)">
    <rect
       style="fill:#ffff00;fill-opacity:1;fill-rule:nonzero;stroke:#252c00;stroke-width:1.33988607;stroke-linecap:round;stroke-linejoin:round;marker:none;marker-start:none;marker-mid:none;marker-end:none;stroke-miterlimit:4;stroke-dasharray:none;stroke-dashoffset:0;stroke-opacity:1;visibility:visible;display:inline;overflow:visible;enable-background:accumulate"
       id="rect2975"
       width="23.558031"
       height="14.05217"
       x="-95.612144"
       y="86.825333" />
    <text
       xml:space="preserve"
       style="font-size:10.71909046px;font-style:normal;font-weight:normal;fill:#000000;fill-opacity:1;stroke:none;stroke-width:1px;stroke-linecap:butt;stroke-linejoin:miter;stroke-opacity:1;font-family:Bitstream Vera Sans"
       x="-90.166183"
       y="97.638168"
       id="text2977"><tspan
         sodipodi:role="line"
         id="tspan2979"
         x="-90.166183"
         y="97.638168">15</tspan></text>
    <text
       xml:space="preserve"
       style="font-size:24.11795425px;font-style:normal;font-weight:normal;fill:#000000;fill-opacity:1;stroke:none;stroke-width:1px;stroke-linecap:butt;stroke-linejoin:miter;stroke-opacity:1;font-family:Bitstream Vera Sans"
       x="-94.808983"
       y="84.600967"
       id="text2981"><tspan
         sodipodi:role="line"
         id="tspan2983"
         x="-94.808983"
         y="84.600967"
         style="font-size:8.03931713px">XXXX</tspan></text>
  </g>
  <g
     id="g4172"
     transform="translate(352.96183,30.800914)">
    <rect
       style="fill:#ffff00;fill-opacity:1;fill-rule:nonzero;stroke:#252c00;stroke-width:1.33988607;stroke-linecap:round;stroke-linejoin:round;marker:none;marker-start:none;marker-mid:none;marker-end:none;stroke-miterlimit:4;stroke-dasharray:none;stroke-dashoffset:0;stroke-opacity:1;visibility:visible;display:inline;overflow:visible;enable-background:accumulate"
       id="rect4145"
       width="23.558031"
       height="14.05217"
       x="-91.922867"
       y="114.58978" />
    <text
       xml:space="preserve"
       style="font-size:10.71909046px;font-style:normal;font-weight:normal;fill:#000000;fill-opacity:1;stroke:none;stroke-width:1px;stroke-linecap:butt;stroke-linejoin:miter;stroke-opacity:1;font-family:Bitstream Vera Sans"
       x="-86.0896"
       y="125.4"
       id="text4147"><tspan
         sodipodi:role="line"
         id="tspan4149"
         x="-86.0896"
         y="125.4">33</tspan></text>
    <text
       xml:space="preserve"
       style="font-size:24.11795425px;font-style:normal;font-weight:normal;fill:#000000;fill-opacity:1;stroke:none;stroke-width:1px;stroke-linecap:butt;stroke-linejoin:miter;stroke-opacity:1;font-family:Bitstream Vera Sans"
       x="-91.119705"
       y="112.36542"
       id="text4151"><tspan
         sodipodi:role="line"
         id="tspan4153"
         x="-91.119705"
         y="112.36542"
         style="font-size:8.03931713px">XXXX</tspan></text>
  </g>
  <g
     id="g4179"
     transform="translate(276.37577,124.86857)">
    <rect
       style="fill:#ffff00;fill-opacity:1;fill-rule:nonzero;stroke:#252c00;stroke-width:1.33988607;stroke-linecap:round;stroke-linejoin:round;marker:none;marker-start:none;marker-mid:none;marker-end:none;stroke-miterlimit:4;stroke-dasharray:none;stroke-dashoffset:0;stroke-opacity:1;visibility:visible;display:inline;overflow:visible;enable-background:accumulate"
       id="rect4155"
       width="23.558031"
       height="14.05217"
       x="-97.35067"
       y="141.59477" />
    <text
       xml:space="preserve"
       style="font-size:10.71909046px;font-style:normal;font-weight:normal;fill:#000000;fill-opacity:1;stroke:none;stroke-width:1px;stroke-linecap:butt;stroke-linejoin:miter;stroke-opacity:1;font-family:Bitstream Vera Sans"
       x="-91.457207"
       y="152.40761"
       id="text4157"><tspan
         sodipodi:role="line"
         id="tspan4159"
         x="-91.457207"
         y="152.40761">28</tspan></text>
    <text
       xml:space="preserve"
       style="font-size:24.11795425px;font-style:normal;font-weight:normal;fill:#000000;fill-opacity:1;stroke:none;stroke-width:1px;stroke-linecap:butt;stroke-linejoin:miter;stroke-opacity:1;font-family:Bitstream Vera Sans"
       x="-96.547508"
       y="139.37041"
       id="text4161"><tspan
         sodipodi:role="line"
         id="tspan4163"
         x="-96.547508"
         y="139.37041"
         style="font-size:8.03931713px">XXXX</tspan></text>
  </g>
  <g
     id="g4186"
     transform="translate(238.70048,8.2650659)"
     inkscape:transform-center-x="-12.448959"
     inkscape:transform-center-y="36.628114">
    <rect
       style="fill:#00ffff;fill-opacity:1;fill-rule:nonzero;stroke:#04002c;stroke-width:1.33988607;stroke-linecap:round;stroke-linejoin:round;marker:none;marker-start:none;marker-mid:none;marker-end:none;stroke-miterlimit:4;stroke-dasharray:none;stroke-dashoffset:0;stroke-opacity:1;visibility:visible;display:inline;overflow:visible;enable-background:accumulate"
       id="rect4188"
       width="23.558031"
       height="14.05217"
       x="-97.35067"
       y="141.59477" />
    <text
       xml:space="preserve"
       style="font-size:10.71909046px;font-style:normal;font-weight:normal;fill:#000000;fill-opacity:1;stroke:none;stroke-width:1px;stroke-linecap:butt;stroke-linejoin:miter;stroke-opacity:1;font-family:Bitstream Vera Sans"
       x="-90.720581"
       y="152.19995"
       id="text4190"><tspan
         sodipodi:role="line"
         id="tspan4192"
         x="-90.720581"
         y="152.19995"
         style="font-size:10px">IV</tspan></text>
    <text
       xml:space="preserve"
       style="font-size:24.11795425px;font-style:normal;font-weight:normal;fill:#000000;fill-opacity:1;stroke:none;stroke-width:1px;stroke-linecap:butt;stroke-linejoin:miter;stroke-opacity:1;font-family:Bitstream Vera Sans"
       x="-93.614899"
       y="139.37041"
       id="text4194"><tspan
         sodipodi:role="line"
         id="tspan4196"
         x="-93.614899"
         y="139.37041"
         style="font-size:8.03931713px">XXX</tspan></text>
  </g>
  <g
     id="g4198"
     transform="translate(242.51886,-57.463692)"
     inkscape:transform-center-x="-12.448959"
     inkscape:transform-center-y="36.628114">
    <rect
       style="fill:#00ffff;fill-opacity:1;fill-rule:nonzero;stroke:#04002c;stroke-width:1.34000003;stroke-linecap:round;stroke-linejoin:round;marker:none;marker-start:none;marker-mid:none;marker-end:none;stroke-miterlimit:4;stroke-dasharray:none;stroke-dashoffset:0;stroke-opacity:1;visibility:visible;display:inline;overflow:visible;enable-background:accumulate"
       id="rect4200"
       width="34.293285"
       height="13.80098"
       x="-97.225075"
       y="141.72037" />
    <text
       xml:space="preserve"
       style="font-size:7px;font-style:normal;font-weight:normal;fill:#000000;fill-opacity:1;stroke:none;stroke-width:1px;stroke-linecap:butt;stroke-linejoin:miter;stroke-opacity:1;font-family:Bitstream Vera Sans"
       x="-93.833313"
       y="152.19995"
       id="text4202"><tspan
         sodipodi:role="line"
         id="tspan4204"
         x="-93.833313"
         y="152.19995"
         style="font-size:10px">XXXIII</tspan></text>
    <text
       xml:space="preserve"
       style="font-size:24.11795425px;font-style:normal;font-weight:normal;fill:#000000;fill-opacity:1;stroke:none;stroke-width:1px;stroke-linecap:butt;stroke-linejoin:miter;stroke-opacity:1;font-family:Bitstream Vera Sans"
       x="-88.121674"
       y="139.37041"
       id="text4206"><tspan
         sodipodi:role="line"
         id="tspan4208"
         x="-88.121674"
         y="139.37041"
         style="font-size:8.03931713px">XXX</tspan></text>
  </g>
  <g
     id="g4214"
     transform="translate(243.46136,67.546159)"
     inkscape:transform-center-x="-12.448959"
     inkscape:transform-center-y="36.628114">
    <rect
       style="fill:#00ffff;fill-opacity:1;fill-rule:nonzero;stroke:#04002c;stroke-width:1.33988607;stroke-linecap:round;stroke-linejoin:round;marker:none;marker-start:none;marker-mid:none;marker-end:none;stroke-miterlimit:4;stroke-dasharray:none;stroke-dashoffset:0;stroke-opacity:1;visibility:visible;display:inline;overflow:visible;enable-background:accumulate"
       id="rect4216"
       width="23.558031"
       height="14.05217"
       x="-97.35067"
       y="141.59477" />
    <text
       xml:space="preserve"
       style="font-size:10.71909046px;font-style:normal;font-weight:normal;fill:#000000;fill-opacity:1;stroke:none;stroke-width:1px;stroke-linecap:butt;stroke-linejoin:miter;stroke-opacity:1;font-family:Bitstream Vera Sans"
       x="-92.22937"
       y="152.19995"
       id="text4218"><tspan
         sodipodi:role="line"
         id="tspan4220"
         x="-92.22937"
         y="152.19995"
         style="font-size:10px">XV</tspan></text>
    <text
       xml:space="preserve"
       style="font-size:24.11795425px;font-style:normal;font-weight:normal;fill:#000000;fill-opacity:1;stroke:none;stroke-width:1px;stroke-linecap:butt;stroke-linejoin:miter;stroke-opacity:1;font-family:Bitstream Vera Sans"
       x="-93.614899"
       y="139.37041"
       id="text4222"><tspan
         sodipodi:role="line"
         id="tspan4224"
         x="-93.614899"
         y="139.37041"
         style="font-size:8.03931713px">XXX</tspan></text>
  </g>
  <g
     id="g4226"
     transform="translate(339.99138,-70.194119)"
     inkscape:transform-center-x="-12.448959"
     inkscape:transform-center-y="36.628114">
    <rect
       style="fill:#00ffff;fill-opacity:1;fill-rule:nonzero;stroke:#04002c;stroke-width:1.34000003;stroke-linecap:round;stroke-linejoin:round;marker:none;marker-start:none;marker-mid:none;marker-end:none;stroke-miterlimit:4;stroke-dasharray:none;stroke-dashoffset:0;stroke-opacity:1;visibility:visible;display:inline;overflow:visible;enable-background:accumulate"
       id="rect4228"
       width="37.339024"
       height="13.724949"
       x="-97.187057"
       y="141.75838" />
    <text
       xml:space="preserve"
       style="font-size:10px;font-style:normal;font-weight:normal;fill:#000000;fill-opacity:1;stroke:none;stroke-width:1px;stroke-linecap:butt;stroke-linejoin:miter;stroke-opacity:1;font-family:Bitstream Vera Sans"
       x="-92.877899"
       y="152.19995"
       id="text4230"><tspan
         sodipodi:role="line"
         id="tspan4232"
         x="-92.877899"
         y="152.19995"
         style="font-size:10px">NCAC</tspan></text>
    <text
       xml:space="preserve"
       style="font-size:24.11795425px;font-style:normal;font-weight:normal;fill:#000000;fill-opacity:1;stroke:none;stroke-width:1px;stroke-linecap:butt;stroke-linejoin:miter;stroke-opacity:1;font-family:Bitstream Vera Sans"
       x="-86.560791"
       y="139.37041"
       id="text4234"><tspan
         sodipodi:role="line"
         id="tspan4236"
         x="-86.560791"
         y="139.37041"
         style="font-size:8.03931713px">XXX</tspan></text>
  </g>
  <g
     id="g4262"
     transform="translate(436.56566,5.1383843)"
     inkscape:transform-center-x="-12.448959"
     inkscape:transform-center-y="36.628114">
    <rect
       style="fill:#00ffff;fill-opacity:1;fill-rule:nonzero;stroke:#04002c;stroke-width:1.34000003;stroke-linecap:round;stroke-linejoin:round;marker:none;marker-start:none;marker-mid:none;marker-end:none;stroke-miterlimit:4;stroke-dasharray:none;stroke-dashoffset:0;stroke-opacity:1;visibility:visible;display:inline;overflow:visible;enable-background:accumulate"
       id="rect4264"
       width="24.034653"
       height="13.922979"
       x="-97.286079"
       y="141.65936" />
    <text
       xml:space="preserve"
       style="font-size:10px;font-style:normal;font-weight:normal;fill:#000000;fill-opacity:1;stroke:none;stroke-width:1px;stroke-linecap:butt;stroke-linejoin:miter;stroke-opacity:1;font-family:Bitstream Vera Sans"
       x="-88.5793"
       y="152.19995"
       id="text4266"><tspan
         sodipodi:role="line"
         id="tspan4268"
         x="-88.5793"
         y="152.19995"
         style="font-size:10px">Y</tspan></text>
    <text
       xml:space="preserve"
       style="font-size:24.11795425px;font-style:normal;font-weight:normal;fill:#000000;fill-opacity:1;stroke:none;stroke-width:1px;stroke-linecap:butt;stroke-linejoin:miter;stroke-opacity:1;font-family:Bitstream Vera Sans"
       x="-95.997002"
       y="139.37041"
       id="text4270"><tspan
         sodipodi:role="line"
         id="tspan4272"
         x="-95.997002"
         y="139.37041"
         style="font-size:8.03931713px">XXXX</tspan></text>
  </g>
  <rect
     style="opacity:1;fill:#ffffff;fill-opacity:1;fill-rule:evenodd;stroke:#000000;stroke-width:1;stroke-linecap:round;stroke-linejoin:miter;marker:none;marker-start:none;marker-mid:none;marker-end:none;stroke-miterlimit:4;stroke-dasharray:none;stroke-dashoffset:0;stroke-opacity:1;visibility:visible;display:inline;overflow:visible;enable-background:accumulate"
     id="rect4280"
     width="175.66608"
     height="144.85406"
     x="0.48511568"
     y="389.93079" />
  <rect
     style="opacity:1;fill:#efcc5c;fill-opacity:1;fill-rule:evenodd;stroke:#000000;stroke-width:1;stroke-linecap:round;stroke-linejoin:miter;marker:none;marker-start:none;marker-mid:none;marker-end:none;stroke-miterlimit:4;stroke-dasharray:none;stroke-dashoffset:0;stroke-opacity:1;visibility:visible;display:inline;overflow:visible;enable-background:accumulate"
     id="rect4282"
     width="33.298286"
     height="21.643885"
     x="9.1570282"
     y="424.96658" />
  <rect
     style="opacity:1;fill:#f39e0f;fill-opacity:1;fill-rule:evenodd;stroke:#000000;stroke-width:1;stroke-linecap:round;stroke-linejoin:miter;marker:none;marker-start:none;marker-mid:none;marker-end:none;stroke-miterlimit:4;stroke-dasharray:none;stroke-dashoffset:0;stroke-opacity:1;visibility:visible;display:inline;overflow:visible;enable-background:accumulate"
     id="rect4284"
     width="33.298286"
     height="21.643885"
     x="9.1570282"
     y="457.41138" />
  <text
     xml:space="preserve"
     style="font-size:15px;font-style:normal;font-weight:normal;fill:#000000;fill-opacity:1;stroke:none;stroke-width:1px;stroke-linecap:butt;stroke-linejoin:miter;stroke-opacity:1;font-family:Bitstream Vera Sans"
     x="7.4998016"
     y="412.14462"
     id="text4286"><tspan
       sodipodi:role="line"
       id="tspan4288"
       x="7.4998016"
       y="412.14462">Posición japonesa:</tspan></text>
  <text
     xml:space="preserve"
     style="font-size:15px;font-style:normal;font-weight:normal;fill:#000000;fill-opacity:1;stroke:none;stroke-width:1px;stroke-linecap:butt;stroke-linejoin:miter;stroke-opacity:1;font-family:Bitstream Vera Sans"
     x="50.942173"
     y="441.08759"
     id="text4290"><tspan
       sodipodi:role="line"
       x="50.942173"
       y="441.08759"
       id="tspan4294">Febrero 1944</tspan></text>
  <text
     xml:space="preserve"
     style="font-size:15px;font-style:normal;font-weight:normal;fill:#000000;fill-opacity:1;stroke:none;stroke-width:1px;stroke-linecap:butt;stroke-linejoin:miter;stroke-opacity:1;font-family:Bitstream Vera Sans"
     x="50.942173"
     y="473.53238"
     id="text4298"><tspan
       sodipodi:role="line"
       x="50.942173"
       y="473.53238"
       id="tspan4300">Junio 1944</tspan></text>
  <path
     sodipodi:nodetypes="ccccccccccsssscccccssssscccsc"
     style="fill:#12080c"
     id="path4302"
     d="M 15.083275,513.10972 L 9.341075,508.44884 L 11.830475,505.18501 L 14.319975,501.92117 L 14.624875,501.84627 L 17.538175,498.5634 L 20.451475,495.28052 L 19.863075,498.05596 L 19.274575,500.83139 L 21.549975,500.32876 C 22.801475,500.05232 26.750475,499.3511 30.325475,498.77051 C 33.900475,498.18992 38.175475,497.45209 39.825475,497.13089 C 41.475475,496.80969 42.547875,496.83953 42.208575,497.19721 C 41.764375,497.66552 20.862875,501.71322 18.575475,501.77389 C 18.437975,501.77754 18.325475,501.05652 18.325475,500.17164 L 18.325475,498.56275 L 14.367675,503.35218 L 10.409975,508.14161 L 14.117675,511.41944 C 18.270075,515.0903 19.325475,515.46747 19.325475,513.28052 C 19.325475,512.45552 19.662975,511.78927 20.075475,511.79996 C 23.393075,511.88596 40.626275,514.75513 41.154175,515.30937 C 41.523375,515.697 40.475475,515.75363 38.825475,515.43521 C 37.175475,515.11679 33.575475,514.58528 30.825475,514.25406 C 28.075475,513.92284 24.569375,513.41597 23.034175,513.12766 L 20.242875,512.60348 L 20.892575,515.192 C 21.249875,516.61569 21.380975,517.77829 21.183875,517.77556 C 20.986775,517.77283 18.241475,515.6732 15.083275,513.10972 z" />
  <text
     xml:space="preserve"
     style="font-size:15px;font-style:normal;font-weight:normal;fill:#000000;fill-opacity:1;stroke:none;stroke-width:1px;stroke-linecap:butt;stroke-linejoin:miter;stroke-opacity:1;font-family:Bitstream Vera Sans"
     x="50.942173"
     y="502.5217"
     id="text4305"><tspan
       sodipodi:role="line"
       id="tspan4307"
       x="50.942173"
       y="502.5217">Contraataques</tspan><tspan
       sodipodi:role="line"
       x="50.942173"
       y="521.27173"
       id="tspan4309">chinos</tspan></text>
</svg>
