<?xml version="1.0" encoding="UTF-8" ?><svg id="chart" width="500" height="300" xmlns="http://www.w3.org/2000/svg"><rect x="0" y="0" width="500" height="300" fill="white"></rect><text text-anchor="middle" x="250" y="28" font-family="Arial" font-size="22" font-weight="bold" fill="#000000">Religion in Meerut District (2001)</text><rect x="370" y="109" width="121" height="114" fill="white"></rect><rect x="379" y="118" width="12" height="12" stroke="none" fill="#ff9933"></rect><text x="394" y="128" font-family="Arial" font-size="12" fill="black">Hindu</text><rect x="379" y="139" width="12" height="12" stroke="none" fill="#128807"></rect><text x="394" y="149" font-family="Arial" font-size="12" fill="black">Muslim</text><rect x="379" y="160" width="12" height="12" stroke="none" fill="#f3c206"></rect><text x="394" y="170" font-family="Arial" font-size="12" fill="black">Sikh</text><rect x="379" y="181" width="12" height="12" stroke="none" fill="#4684ee"></rect><text x="394" y="191" font-family="Arial" font-size="12" fill="black">Jain</text><rect x="379" y="202" width="12" height="12" stroke="none" fill="#000000"></rect><text x="394" y="212" font-family="Arial" font-size="12" fill="black">Other</text><path d="M185,166L181.77,76.03A129,90,0,0,1,185,76Z" stroke="none" fill="#000000"></path><path d="M185,166L185,177L181.77,87.03L181.77,76.03Z" stroke="none" fill="#000000"></path><path d="M185,166L176.7,76.19A129,90,0,0,1,181.77,76.03Z" stroke="none" fill="#4684ee"></path><path d="M185,166L185,177L176.7,87.19L176.7,76.19Z" stroke="none" fill="#4684ee"></path><path d="M185,166L169.58,76.64A129,90,0,0,1,176.7,76.19Z" stroke="none" fill="#f3c206"></path><path d="M185,166L185,177L169.58,87.64L169.58,76.64Z" stroke="none" fill="#f3c206"></path><path d="M185,166L78.12,216.4A129,90,0,0,1,169.58,76.64Z" stroke="none" fill="#128807"></path><path d="M78.12,216.4L78.12,227.4A129,90,0,0,1,56,177L56,166A129,90,0,0,0,78.12,216.4Z" stroke="none" fill="#128807"></path><path d="M185,166L185,76A129,90,0,1,1,78.12,216.4Z" stroke="none" fill="#ff9933" stroke-width="0"></path><path d="M314,166L314,177A129,90,0,0,1,78.12,227.4L78.12,216.4A129,90,0,0,0,314,166Z" stroke="none" fill="#ff9933" stroke-width="0"></path></svg>